<svg width="34" height="34" viewBox="0 0 34 34" fill="none" xmlns="http://www.w3.org/2000/svg">
<path d="M6.37516 12.1146C6.37516 14.9408 8.50725 17.0729 11.3335 17.0729C14.1597 17.0729 16.2918 14.9408 16.2918 12.1146C16.2918 9.28833 14.1597 7.15625 11.3335 7.15625C8.50725 7.15625 6.37516 9.28833 6.37516 12.1146ZM26.9168 11.3326H24.0835V15.5826H19.8335V18.4159H24.0835V22.6659H26.9168V18.4159H31.1668V15.5826H26.9168V11.3326ZM5.66683 26.9159H19.8335V25.4992C19.8335 21.5935 16.6559 18.4159 12.7502 18.4159H9.91683C6.01108 18.4159 2.8335 21.5935 2.8335 25.4992V26.9159H5.66683Z" fill="#F4F5F7"/>
</svg>
