<svg width="193" height="204" viewBox="0 0 193 204" fill="none" xmlns="http://www.w3.org/2000/svg">
<path d="M187.686 53.5574V11.3789H117.385V53.5574H112.444V63.2179H193V53.5574H187.686ZM123.259 16.8129H181.812V35.5302H162.605C162.139 35.5302 161.766 35.789 161.673 36.2202L158.876 45.0182L156.079 36.2202C155.985 35.789 155.519 35.5302 155.146 35.5302H151.324L145.729 20.1769C145.45 19.4006 144.051 19.4006 143.771 20.1769L138.177 35.5302H123.259V16.8129ZM181.812 51.7461H123.259V37.4278H138.923C139.389 37.4278 139.762 37.169 139.855 36.824L144.704 23.4545L149.552 36.824C149.645 37.169 150.112 37.4278 150.484 37.4278H154.307L157.85 48.6409C157.943 49.0722 158.41 49.3309 158.783 49.3309C159.249 49.3309 159.622 49.0722 159.715 48.6409L163.258 37.4278H181.719V51.7461H181.812Z" fill="black"/>
<path d="M46.4321 34.5816C56.6881 34.5816 64.8929 26.9912 64.8929 17.5032C64.8929 8.01521 56.6881 0.424805 46.4321 0.424805C36.176 0.424805 27.9712 8.01521 27.9712 17.5032C27.9712 26.9912 36.176 34.5816 46.4321 34.5816Z" fill="black"/>
<path d="M122.14 68.825H93.2367L92.3975 67.7037L76.6405 46.3988C71.7922 40.016 66.198 37.2559 58.3662 37.2559H33.8449C26.013 37.2559 20.4188 40.1885 15.5705 46.3988L0 67.5312V84.0059V111.004C0 115.058 3.72947 118.508 8.11159 118.508C12.4937 118.508 16.2232 115.058 16.2232 111.004V73.6553L23.6821 63.8223L23.8686 194.326C23.8686 200.536 28.6237 203.727 33.472 203.986C38.8797 204.245 44.5671 200.967 44.4739 193.98L44.6604 118.163H46.3386H48.0169L48.2034 193.98C48.2034 200.708 53.5178 203.986 58.7391 203.986C63.8671 203.986 68.9019 200.708 68.9019 194.326L69.0884 63.8223L81.7686 80.5557C83.6333 83.1433 86.8033 84.0059 89.414 84.0059H92.4908H122.513C132.955 84.0059 133.701 68.825 122.14 68.825Z" fill="black"/>
</svg>
