<svg width="301" height="327" viewBox="0 0 301 327" fill="none" xmlns="http://www.w3.org/2000/svg">
<g clip-path="url(#clip0_45_640)">
<path d="M14.1307 307.277C16.0031 307.917 18.0134 308.077 19.968 307.742C21.9226 307.408 23.7556 306.589 25.2904 305.366C29.1991 302.176 30.4261 296.92 31.4218 292.054L34.371 277.66L28.1964 281.795C23.7558 284.767 19.2156 287.836 16.1407 292.142C13.0659 296.449 11.724 302.327 14.1943 306.987" fill="#E6E6E6"/>
<path d="M14.6585 324.704C14.0336 320.277 13.3908 315.794 13.8291 311.32C14.2186 307.347 15.4649 303.466 18.0033 300.284C19.3506 298.598 20.9899 297.154 22.8476 296.016C23.3322 295.719 23.7777 296.465 23.2956 296.761C20.0813 298.736 17.5952 301.653 16.1956 305.09C14.6498 308.913 14.4017 313.081 14.6702 317.141C14.8313 319.597 15.1726 322.036 15.5168 324.474C15.5445 324.584 15.5279 324.7 15.4702 324.799C15.4125 324.898 15.3182 324.971 15.2066 325.005C15.0931 325.034 14.9721 325.019 14.8698 324.963C14.7676 324.907 14.6923 324.813 14.6605 324.703L14.6585 324.704Z" fill="#F2F2F2"/>
<path d="M37.0375 251.183L295.366 251.183L295.366 0L37.0375 0L37.0375 251.183Z" fill="white"/>
<path d="M37.0375 251.183L295.366 251.183L295.366 0L37.0375 0L37.0375 251.183ZM291.549 247.472L40.8543 247.472L40.8543 3.71121L291.549 3.71121L291.549 247.472Z" fill="#E5E5E5"/>
<path d="M82.8013 39.2969L194.668 39.2969V42.6852L82.8013 42.6852V39.2969Z" fill="#E5E5E5"/>
<path d="M82.8013 48.1074L194.668 48.1074V51.4958L82.8013 51.4958V48.1074Z" fill="#E5E5E5"/>
<path d="M82.8013 56.918L194.668 56.918V60.3063L82.8013 60.3063V56.918Z" fill="#E5E5E5"/>
<path d="M82.8013 114.945L194.668 114.945V118.334L82.8013 118.334V114.945Z" fill="#E5E5E5"/>
<path d="M82.8013 123.754L194.668 123.754V127.142L82.8013 127.142V123.754Z" fill="#E5E5E5"/>
<path d="M82.8013 132.564L194.668 132.564V135.953L82.8013 135.953V132.564Z" fill="#E5E5E5"/>
<path d="M82.8013 190.592L194.668 190.592V193.98L82.8013 193.98V190.592Z" fill="#E5E5E5"/>
<path d="M82.8013 199.4L194.668 199.4V202.789L82.8013 202.789V199.4Z" fill="#E5E5E5"/>
<path d="M82.8013 208.211L194.668 208.211V211.599L82.8013 211.599V208.211Z" fill="#E5E5E5"/>
<path d="M239.451 66.2934C241.362 65.3142 243.357 64.4979 245.413 63.8538L245.675 61.0338L256.308 59.9199L257.66 63.5244L261.475 64.9167C261.612 64.9671 261.742 65.0329 261.863 65.1128H261.867C262.08 65.2528 262.261 65.4335 262.4 65.6439C262.539 65.8543 262.632 66.09 262.674 66.3365C262.714 66.5817 262.705 66.8323 262.645 67.0739L262.444 67.8779C262.153 68.0466 261.855 68.2074 261.556 68.3604L261.367 68.4545C260.931 68.6741 260.487 68.882 260.031 69.0742C259.939 69.1134 259.838 69.1526 259.745 69.1919C259.737 69.1958 259.733 69.1958 259.725 69.1997C259.511 69.286 259.297 69.3684 259.079 69.4468C258.364 69.7125 257.634 69.9403 256.893 70.1293C255.002 70.6193 253.054 70.8672 251.097 70.8666C250.383 70.8666 249.677 70.8352 248.979 70.7686C247.384 70.6255 245.81 70.3165 244.284 69.8469C244.28 69.8469 244.276 69.843 244.272 69.843C243.307 69.5442 242.365 69.1812 241.452 68.7565C241.448 68.7526 241.44 68.7526 241.436 68.7487C241.23 68.6545 241.032 68.5526 240.831 68.4545L240.734 68.4074C240.573 68.3251 240.411 68.2427 240.25 68.1564C239.847 67.9407 239.451 67.7132 239.06 67.47C238.951 67.4072 238.846 67.3406 238.737 67.27C238.584 67.172 238.431 67.07 238.282 66.9641C238.657 66.7288 239.048 66.5052 239.451 66.2934Z" fill="#3F3D56"/>
<path d="M259.406 68.0314L260.072 65.1094H261.81C261.828 65.1096 261.845 65.1109 261.863 65.1133H261.867C262.492 65.1647 263.093 65.3669 263.617 65.7016C263.973 65.9223 264.289 66.1978 264.553 66.5174C264.037 66.8979 263.5 67.2509 262.948 67.5882L262.923 67.5999C262.766 67.6941 262.605 67.7882 262.443 67.8784C262.153 68.047 261.855 68.2079 261.556 68.3608L261.366 68.455C260.931 68.6746 260.487 68.8825 260.031 69.0746C259.939 69.1139 259.838 69.1531 259.745 69.1923C259.737 69.1962 259.733 69.1962 259.725 69.2002C259.511 69.2865 259.297 69.3688 259.079 69.4473L259.406 68.0314Z" fill="#3F3D56"/>
<path d="M251.409 58.1382C247.18 58.1382 243.751 54.8045 243.751 50.6921C243.751 46.5798 247.18 43.2461 251.409 43.2461C255.638 43.2461 259.067 46.5798 259.067 50.6921C259.067 54.8045 255.638 58.1382 251.409 58.1382Z" fill="#FFB8B8"/>
<path d="M256.55 47.0649C255.758 47.9771 254.416 48.2345 253.179 48.34C250.285 48.4954 247.384 48.265 244.555 47.6553C244.379 49.3074 244.857 51.0887 243.857 52.4477C243.387 50.8024 243.115 49.1101 243.044 47.4042C242.969 46.6722 243.067 45.9334 243.331 45.244C243.472 44.8986 243.71 44.5985 244.017 44.3779C244.325 44.1574 244.69 44.0252 245.071 43.9963C244.501 43.5755 243.833 43.2977 243.126 43.1874L245.557 41.9993L244.933 41.376L249.335 41.114L248.06 40.3264C249.979 40.07 251.92 40.0104 253.852 40.1486C254.755 40.149 255.64 40.3884 256.414 40.8411C257.141 41.3464 257.561 42.3509 257.11 43.0929C257.674 43.1831 258.206 43.412 258.655 43.758C259.103 44.104 259.453 44.5556 259.672 45.07C259.949 45.8877 260.016 46.7587 259.867 47.6072C259.701 48.9685 259.375 50.307 258.897 51.5964L256.55 47.0649Z" fill="#2F2E41"/>
<path d="M229.875 42.6201C230.95 39.6188 232.685 36.8815 234.959 34.5991C237.233 32.3167 239.992 30.5442 243.043 29.4051C246.094 28.2659 249.364 27.7877 252.625 28.0036C255.886 28.2196 259.059 29.1246 261.923 30.6554C264.787 32.1863 267.273 34.3062 269.208 36.8674C271.143 39.4285 272.48 42.3692 273.126 45.4845C273.772 48.5997 273.711 51.8144 272.948 54.9045C272.185 57.9946 270.738 60.8857 268.708 63.3761C268.506 63.6232 268.297 63.8703 268.083 64.1095C268.066 64.1252 268.054 64.1409 268.038 64.1566C267.513 64.7457 266.954 65.3061 266.364 65.8353C266.211 65.9726 266.05 66.1138 265.888 66.2471C265.582 66.5138 265.267 66.7687 264.94 67.0119C264.811 67.11 264.686 67.208 264.553 67.3022C264.037 67.6826 263.5 68.0356 262.948 68.3729L262.924 68.3847C262.766 68.4788 262.605 68.573 262.444 68.6632C262.153 68.8318 261.855 68.9926 261.556 69.1456L261.367 69.2397C260.931 69.4594 260.487 69.6672 260.031 69.8594C259.939 69.8986 259.838 69.9379 259.745 69.9771C259.737 69.981 259.733 69.981 259.725 69.9849C259.511 70.0712 259.297 70.1536 259.079 70.232C258.364 70.4977 257.634 70.7256 256.893 70.9145C255.002 71.4045 253.054 71.6524 251.097 71.6519C250.383 71.6519 249.677 71.6205 248.979 71.5538C247.385 71.4107 245.81 71.1017 244.284 70.6321C244.28 70.6321 244.276 70.6282 244.272 70.6282C243.307 70.3294 242.365 69.9664 241.452 69.5417C241.448 69.5378 241.44 69.5378 241.436 69.5339C241.23 69.4398 241.032 69.3378 240.831 69.2397L240.734 69.1926C240.573 69.1103 240.411 69.0279 240.25 68.9416C239.847 68.7259 239.451 68.4984 239.06 68.2553C238.951 68.1925 238.846 68.1258 238.737 68.0552C238.584 67.9572 238.431 67.8552 238.282 67.7493C238.084 67.6159 237.886 67.4787 237.693 67.3375C237.632 67.2943 237.568 67.2512 237.507 67.2041C233.728 64.415 230.954 60.5341 229.583 56.1178C228.212 51.7014 228.314 46.9764 229.875 42.6201ZM238.249 66.251C238.382 66.353 238.519 66.451 238.657 66.5413C238.79 66.6393 238.923 66.7335 239.06 66.8197C239.177 66.9021 239.294 66.9806 239.415 67.0551L239.451 67.0786C239.54 67.1374 239.629 67.1923 239.718 67.2472C240.052 67.4512 240.391 67.6473 240.734 67.8356L240.843 67.8944C240.996 67.9768 241.149 68.0552 241.303 68.1337C241.323 68.1454 241.347 68.1533 241.367 68.165L241.392 68.1768C241.585 68.2749 241.783 68.369 241.98 68.4592C242.743 68.8164 243.529 69.1255 244.332 69.3848C244.437 69.4201 244.542 69.4555 244.647 69.4868C246.092 69.9337 247.582 70.2283 249.092 70.3654C249.753 70.4242 250.423 70.4556 251.097 70.4556C252.948 70.4593 254.791 70.2245 256.578 69.7574C257.496 69.5246 258.395 69.2284 259.269 68.871C259.313 68.8514 259.362 68.8357 259.406 68.8161C259.454 68.7965 259.499 68.7808 259.543 68.7612C259.592 68.7416 259.636 68.722 259.685 68.6985C260.064 68.5377 260.439 68.3612 260.806 68.1768L260.983 68.0866C261.431 67.8591 261.871 67.616 262.298 67.3571C262.423 67.2826 262.552 67.2041 262.674 67.1217C262.706 67.1021 262.734 67.0825 262.766 67.0629C263.053 66.8786 263.339 66.6864 263.617 66.4864C263.807 66.3491 263.997 66.2118 264.182 66.0706C264.493 65.8431 264.791 65.5999 265.082 65.3489C265.235 65.2234 265.384 65.0861 265.529 64.9567C266.101 64.4432 266.643 63.8985 267.151 63.3251C267.32 63.1368 267.486 62.9486 267.643 62.7525C267.679 62.7137 267.712 62.6731 267.744 62.6309C270.365 59.4152 271.941 55.5133 272.272 51.4229C272.603 47.3325 271.673 43.239 269.602 39.6644C267.531 36.0897 264.411 33.196 260.641 31.3522C256.872 29.5085 252.623 28.7982 248.436 29.3121C244.25 29.8259 240.315 31.5406 237.135 34.2374C233.955 36.9342 231.673 40.4909 230.58 44.4539C229.487 48.4169 229.633 52.6067 230.999 56.4888C232.365 60.3709 234.889 63.7694 238.249 66.251Z" fill="#3F3D56"/>
<path d="M229.875 118.267C230.95 115.265 232.684 112.528 234.959 110.246C237.233 107.963 239.992 106.191 243.043 105.052C246.094 103.912 249.364 103.434 252.625 103.65C255.885 103.866 259.059 104.771 261.923 106.302C264.787 107.833 267.273 109.953 269.208 112.514C271.143 115.075 272.48 118.016 273.126 121.131C273.772 124.246 273.711 127.461 272.948 130.551C272.185 133.641 270.738 136.532 268.708 139.023C268.506 139.27 268.296 139.517 268.083 139.756C268.066 139.772 268.054 139.787 268.038 139.803C267.512 140.392 266.954 140.952 266.364 141.482C266.211 141.619 266.05 141.76 265.888 141.894C265.582 142.16 265.267 142.415 264.94 142.658C264.302 143.147 263.637 143.602 262.948 144.019L262.923 144.031C262.476 144.302 262.02 144.553 261.556 144.792L261.367 144.886C260.931 145.106 260.487 145.314 260.031 145.506C259.939 145.545 259.838 145.584 259.745 145.624C259.737 145.627 259.733 145.627 259.725 145.631C258.804 146.004 257.858 146.314 256.893 146.561C255.002 147.051 253.054 147.299 251.097 147.298C250.383 147.298 249.677 147.267 248.979 147.2C247.384 147.057 245.81 146.748 244.284 146.279C244.28 146.279 244.276 146.275 244.272 146.275C243.307 145.976 242.365 145.613 241.452 145.188C241.448 145.184 241.44 145.184 241.436 145.18C241.23 145.086 241.032 144.984 240.831 144.886L240.734 144.839C240.573 144.757 240.411 144.674 240.25 144.588C239.847 144.372 239.451 144.145 239.06 143.902C238.951 143.839 238.846 143.772 238.737 143.702C238.382 143.474 238.031 143.231 237.693 142.984C237.632 142.941 237.568 142.898 237.507 142.851C233.728 140.061 230.954 136.18 229.583 131.764C228.212 127.348 228.314 122.623 229.875 118.267Z" fill="white"/>
<path d="M243.681 134.455C241.821 134.455 240.313 132.989 240.313 131.181C240.313 129.372 241.821 127.906 243.681 127.906C245.541 127.906 247.049 129.372 247.049 131.181C247.049 132.989 245.541 134.455 243.681 134.455Z" fill="#2F2E41"/>
<path d="M242.743 127.996C242.16 127.996 241.587 128.143 241.08 128.423C240.573 128.703 240.15 129.106 239.851 129.593C239.552 130.079 239.388 130.633 239.376 131.2C239.363 131.766 239.502 132.326 239.778 132.825C239.486 132.47 239.274 132.06 239.154 131.62C239.034 131.181 239.01 130.722 239.083 130.272C239.155 129.823 239.323 129.394 239.576 129.011C239.829 128.629 240.161 128.302 240.551 128.051C240.941 127.8 241.381 127.631 241.842 127.555C242.303 127.478 242.775 127.496 243.228 127.606C243.682 127.717 244.107 127.918 244.476 128.198C244.845 128.477 245.15 128.828 245.372 129.228C245.057 128.843 244.657 128.533 244.202 128.32C243.747 128.107 243.248 127.996 242.743 127.996Z" fill="#2F2E41"/>
<path d="M249.975 131.173C244.511 131.173 240.081 126.866 240.081 121.553C240.081 116.24 244.511 111.934 249.975 111.934C255.438 111.934 259.868 116.24 259.868 121.553C259.868 126.866 255.438 131.173 249.975 131.173Z" fill="#2F2E41"/>
<path d="M257.739 115.587C256.034 113.722 253.652 112.575 251.093 112.387C248.535 112.199 246.002 112.984 244.028 114.578C244.109 114.503 244.19 114.428 244.273 114.355C246.228 112.653 248.797 111.775 251.417 111.915C254.037 112.055 256.492 113.201 258.243 115.101C259.994 117.001 260.897 119.5 260.753 122.048C260.609 124.595 259.43 126.982 257.476 128.685C257.457 128.701 257.438 128.717 257.419 128.734C257.335 128.806 257.249 128.875 257.163 128.944C259.022 127.225 260.121 124.871 260.228 122.379C260.335 119.886 259.443 117.451 257.739 115.587Z" fill="#2F2E41"/>
<path d="M250.058 131.092C246.539 131.092 243.687 128.318 243.687 124.897C243.687 121.475 246.539 118.701 250.058 118.701C253.577 118.701 256.43 121.475 256.43 124.897C256.43 128.318 253.577 131.092 250.058 131.092Z" fill="#A0616A"/>
<path d="M238.657 141.039V143.118C239.048 143.361 239.443 143.589 239.847 143.805C240.008 143.891 240.169 143.973 240.33 144.056L240.427 144.103C240.629 144.201 240.827 144.303 241.032 144.397C241.036 144.401 241.045 144.401 241.049 144.405C241.962 144.829 242.904 145.192 243.868 145.491C243.872 145.491 243.876 145.495 243.88 145.495C245.407 145.965 246.981 146.274 248.576 146.417C249.273 146.483 249.979 146.515 250.693 146.515C252.65 146.515 254.599 146.267 256.49 145.777C257.454 145.531 258.4 145.22 259.321 144.848C259.329 144.844 259.334 144.844 259.342 144.84C259.434 144.801 259.535 144.762 259.628 144.722C260.084 144.53 260.527 144.322 260.963 144.103L261.153 144.009C261.617 143.769 262.072 143.518 262.52 143.248L262.544 143.236C263.234 142.818 263.899 142.364 264.537 141.875C264.864 141.632 265.178 141.377 265.485 141.11C265.646 140.977 265.808 140.835 265.961 140.698C266.55 140.169 267.109 139.609 267.635 139.02C267.565 138.611 267.463 138.208 267.328 137.815L267.324 137.811C267.3 137.744 267.272 137.679 267.24 137.615C267.217 137.559 267.192 137.504 267.163 137.451C266.441 136.137 265.134 135.811 263.512 135.741C262.597 135.701 261.584 135.745 260.515 135.733C259.951 135.729 259.366 135.709 258.781 135.658C255.09 135.333 255.759 133.215 255.594 132.073C255.429 130.967 254.404 131.924 254.336 131.987L254.332 131.991C252.243 132.941 249.932 133.335 247.636 133.132C247.24 133.085 246.845 133.058 246.45 133.046C245.409 133.034 245.635 133.325 245.994 133.564C246.168 133.675 246.35 133.775 246.538 133.862C246.538 133.862 246.704 134.842 246.873 136.309C247.035 137.713 244.267 138.372 244.038 138.423C244.033 138.426 244.027 138.428 244.021 138.427C243.011 138.172 241.947 138.2 240.952 138.506H240.948C240.379 138.709 239.872 139.047 239.471 139.49C239.071 139.932 238.791 140.465 238.657 141.039Z" fill="#796A6E"/>
<path d="M259.281 143.56C259.281 143.851 259.289 144.129 259.301 144.392C259.305 144.549 259.313 144.702 259.321 144.847C259.329 144.843 259.334 144.843 259.342 144.839C259.434 144.8 259.535 144.76 259.628 144.721C260.084 144.529 260.527 144.321 260.963 144.102L261.153 144.007C261.617 143.768 262.072 143.517 262.52 143.247C262.508 143.109 262.488 142.972 262.468 142.835C262.423 142.533 262.387 142.227 262.363 141.925C262.204 139.803 262.6 137.677 263.512 135.743V135.74C263.593 135.583 263.641 135.496 263.641 135.496C263.641 135.496 262.468 134.516 260.794 135.496C260.687 135.557 260.592 135.637 260.515 135.732C259.507 136.889 259.233 140.779 259.281 143.56Z" fill="#2F2E41"/>
<path d="M240.964 143.026C240.98 143.466 241.004 143.925 241.032 144.391V144.395C241.036 144.399 241.045 144.399 241.049 144.403C241.962 144.828 242.904 145.191 243.868 145.49C243.872 145.49 243.876 145.494 243.88 145.494L243.925 144.391L243.929 144.246L244.142 138.881C244.148 138.759 244.129 138.638 244.085 138.524C244.041 138.41 243.974 138.306 243.887 138.218C243.801 138.13 243.697 138.06 243.582 138.012C243.467 137.964 243.344 137.94 243.219 137.939H241.174C241.073 137.939 241 138.139 240.952 138.5V138.504C240.853 140.01 240.857 141.521 240.964 143.026Z" fill="#2F2E41"/>
<path d="M255.508 117.152V123.349H254.032L252.155 121.393L252.406 123.349H245.884L246.287 121.393L245.48 123.349H244.44V117.152H255.508Z" fill="#2F2E41"/>
<path d="M256.514 124.489C256.236 124.489 256.011 124.087 256.011 123.592C256.011 123.097 256.236 122.695 256.514 122.695C256.792 122.695 257.017 123.097 257.017 123.592C257.017 124.087 256.792 124.489 256.514 124.489Z" fill="#A0616A"/>
<path d="M243.602 124.489C243.325 124.489 243.099 124.087 243.099 123.592C243.099 123.097 243.325 122.695 243.602 122.695C243.88 122.695 244.105 123.097 244.105 123.592C244.105 124.087 243.88 124.489 243.602 124.489Z" fill="#A0616A"/>
<path d="M237.289 142.199C237.628 142.447 237.979 142.69 238.334 142.917C238.443 142.988 238.548 143.054 238.657 143.117C239.048 143.36 239.443 143.588 239.847 143.804C240.008 143.89 240.169 143.972 240.331 144.055V139.732C240.331 139.732 239.685 140.234 238.657 141.07C238.528 141.176 238.394 141.286 238.253 141.403C237.955 141.646 237.632 141.913 237.289 142.199Z" fill="#796A6E"/>
<path d="M229.875 118.267C230.95 115.265 232.684 112.528 234.959 110.246C237.233 107.963 239.992 106.191 243.043 105.052C246.094 103.912 249.364 103.434 252.625 103.65C255.885 103.866 259.059 104.771 261.923 106.302C264.787 107.833 267.273 109.953 269.208 112.514C271.143 115.075 272.48 118.016 273.126 121.131C273.772 124.246 273.711 127.461 272.948 130.551C272.185 133.641 270.738 136.532 268.708 139.023C268.506 139.27 268.296 139.517 268.083 139.756C268.066 139.772 268.054 139.787 268.038 139.803C267.512 140.392 266.954 140.952 266.364 141.482C266.211 141.619 266.05 141.76 265.888 141.894C265.582 142.16 265.267 142.415 264.94 142.658C264.302 143.147 263.637 143.602 262.948 144.019L262.923 144.031C262.476 144.302 262.02 144.553 261.556 144.792L261.367 144.886C260.931 145.106 260.487 145.314 260.031 145.506C259.939 145.545 259.838 145.584 259.745 145.624C259.737 145.627 259.733 145.627 259.725 145.631C258.804 146.004 257.858 146.314 256.893 146.561C255.002 147.051 253.054 147.299 251.097 147.298C250.383 147.298 249.677 147.267 248.979 147.2C247.384 147.057 245.81 146.748 244.284 146.279C244.28 146.279 244.276 146.275 244.272 146.275C243.307 145.976 242.365 145.613 241.452 145.188C241.448 145.184 241.44 145.184 241.436 145.18C241.23 145.086 241.032 144.984 240.831 144.886L240.734 144.839C240.573 144.757 240.411 144.674 240.25 144.588C239.847 144.372 239.451 144.145 239.06 143.902C238.951 143.839 238.846 143.772 238.737 143.702C238.382 143.474 238.031 143.231 237.693 142.984C237.632 142.941 237.568 142.898 237.507 142.851C233.728 140.061 230.954 136.18 229.583 131.764C228.212 127.348 228.314 122.623 229.875 118.267ZM238.249 141.897C238.382 141.999 238.519 142.098 238.657 142.188C238.79 142.286 238.923 142.38 239.06 142.466C239.177 142.549 239.294 142.627 239.415 142.702C239.516 142.768 239.617 142.831 239.718 142.894C240.052 143.098 240.391 143.294 240.734 143.482L240.843 143.541C240.996 143.623 241.149 143.702 241.303 143.78C241.323 143.792 241.347 143.8 241.367 143.811L241.391 143.823C241.585 143.921 241.783 144.015 241.98 144.106C242.743 144.463 243.529 144.772 244.332 145.031C244.437 145.067 244.542 145.102 244.647 145.133C246.092 145.58 247.582 145.875 249.092 146.012C249.753 146.071 250.423 146.102 251.097 146.102C252.948 146.106 254.791 145.871 256.578 145.404C257.496 145.171 258.395 144.875 259.269 144.517C259.362 144.482 259.454 144.443 259.543 144.408C259.592 144.388 259.636 144.368 259.684 144.345C260.064 144.184 260.439 144.008 260.806 143.823L260.983 143.733C261.431 143.506 261.871 143.262 262.298 143.004C262.455 142.909 262.613 142.811 262.766 142.709C263.25 142.399 263.722 142.066 264.182 141.717C264.493 141.49 264.791 141.246 265.082 140.995C265.235 140.87 265.384 140.733 265.529 140.603C266.101 140.09 266.643 139.545 267.151 138.972C267.32 138.783 267.486 138.595 267.643 138.399C267.679 138.36 267.712 138.32 267.744 138.277C270.365 135.062 271.941 131.16 272.272 127.069C272.603 122.979 271.673 118.885 269.602 115.311C267.531 111.736 264.411 108.842 260.641 106.999C256.872 105.155 252.623 104.445 248.436 104.959C244.25 105.472 240.315 107.187 237.135 109.884C233.955 112.581 231.673 116.137 230.58 120.1C229.487 124.063 229.633 128.253 230.999 132.135C232.365 136.017 234.889 139.416 238.249 141.897Z" fill="#3F3D56"/>
<path d="M250.97 210.916C246.107 210.916 242.166 207.084 242.166 202.356C242.166 197.628 246.107 193.795 250.97 193.795C255.832 193.795 259.774 197.628 259.774 202.356C259.774 207.084 255.832 210.916 250.97 210.916Z" fill="#2F2E41"/>
<path d="M257.842 197.739C256.419 196.355 256.131 194.393 257.198 193.355C258.265 192.318 260.283 192.598 261.706 193.982C263.129 195.365 263.417 197.327 262.35 198.365C261.283 199.402 259.265 199.122 257.842 197.739Z" fill="#2F2E41"/>
<path d="M241.793 195.022C241.201 193.672 242.22 191.955 244.07 191.187C245.921 190.418 247.901 190.889 248.494 192.238C249.087 193.588 248.067 195.305 246.217 196.073C244.367 196.842 242.386 196.371 241.793 195.022Z" fill="#2F2E41"/>
<path d="M240.439 218.96L241.476 217.373C241.916 216.417 242.728 215.669 243.734 215.294C244.74 214.919 245.857 214.946 246.842 215.371C247.827 215.795 248.599 216.582 248.988 217.559C249.378 218.535 249.353 219.622 248.92 220.581L248.625 221.61L248.29 222.777C246.931 222.61 245.59 222.325 244.283 221.926C244.279 221.926 244.275 221.924 244.273 221.921C243.307 221.624 242.363 221.261 241.45 220.834C241.445 220.829 241.44 220.829 241.435 220.824C241.232 220.73 241.033 220.631 240.83 220.532C240.797 220.517 240.765 220.501 240.734 220.483C240.571 220.403 240.408 220.319 240.25 220.235C240.088 220.151 239.93 220.062 239.778 219.968L240.439 218.96Z" fill="#CACACA"/>
<path d="M250.691 211.664C246.564 211.664 243.219 208.411 243.219 204.398C243.219 200.386 246.564 197.133 250.691 197.133C254.817 197.133 258.163 200.386 258.163 204.398C258.163 208.411 254.817 211.664 250.691 211.664Z" fill="#FFB6B6"/>
<path d="M239.9 218.65C240.724 217.317 241.747 216.111 242.935 215.07C243.749 214.363 244.803 213.972 245.895 213.973H256.42C257.027 213.972 257.627 214.093 258.184 214.327C258.74 214.562 259.242 214.904 259.657 215.334C260.072 215.764 260.392 216.272 260.597 216.827C260.802 217.382 260.888 217.972 260.849 218.561C260.826 218.893 260.765 219.221 260.666 219.54C260.591 219.771 260.498 219.996 260.387 220.212L259.868 221.221C259.827 221.236 259.786 221.255 259.746 221.27C259.736 221.275 259.731 221.275 259.726 221.28C259.512 221.364 259.298 221.448 259.08 221.527C258.364 221.793 257.634 222.021 256.893 222.21C255.7 222.521 254.482 222.735 253.253 222.848C252.536 222.912 251.819 222.946 251.097 222.946C250.379 222.946 249.678 222.912 248.976 222.848C248.747 222.828 248.519 222.803 248.29 222.778C246.931 222.611 245.59 222.327 244.283 221.928C244.279 221.927 244.275 221.926 244.273 221.923C243.307 221.626 242.364 221.262 241.45 220.835C241.445 220.83 241.441 220.83 241.435 220.825C241.232 220.731 241.034 220.633 240.83 220.534C240.797 220.519 240.765 220.503 240.734 220.484C240.571 220.405 240.408 220.321 240.25 220.237C240.088 220.153 239.93 220.064 239.778 219.97C239.615 219.886 239.462 219.792 239.305 219.698C239.498 219.327 239.696 218.981 239.9 218.65Z" fill="#CACACA"/>
<path d="M254.514 215.296C255.488 214.853 256.603 214.803 257.614 215.157C258.626 215.511 259.453 216.24 259.914 217.185L260.849 218.56L261.297 219.217L261.978 220.216C261.836 220.29 261.698 220.364 261.556 220.438L261.368 220.532C260.931 220.75 260.488 220.958 260.03 221.15C259.98 221.175 259.924 221.195 259.868 221.22C259.827 221.234 259.786 221.254 259.746 221.269C259.736 221.274 259.731 221.274 259.726 221.279C259.512 221.363 259.298 221.447 259.08 221.526C258.364 221.792 257.634 222.02 256.893 222.208C255.7 222.52 254.482 222.733 253.253 222.846L252.897 221.674L252.551 220.557C252.095 219.606 252.046 218.518 252.414 217.532C252.781 216.546 253.537 215.742 254.514 215.296Z" fill="#CACACA"/>
<path d="M258.542 199.828C256.834 200.972 254.808 201.581 252.734 201.573C253.474 202.072 254.316 202.409 255.202 202.561C252.445 203.136 249.596 203.151 246.832 202.606C246.218 202.511 245.625 202.313 245.08 202.021C244.808 201.874 244.571 201.672 244.385 201.43C244.199 201.188 244.067 200.91 243.998 200.615C243.815 199.595 244.632 198.668 245.482 198.043C246.782 197.102 248.282 196.453 249.872 196.144C251.463 195.835 253.104 195.873 254.677 196.257C255.725 196.462 256.678 196.986 257.4 197.753C257.749 198.144 257.96 198.633 258.001 199.149C258.042 199.664 257.912 200.179 257.629 200.618L258.542 199.828Z" fill="#2F2E41"/>
<path d="M229.872 193.913C230.947 190.912 232.681 188.174 234.955 185.891C237.23 183.609 239.989 181.836 243.04 180.697C246.091 179.557 249.361 179.079 252.622 179.295C255.883 179.51 259.057 180.415 261.921 181.946C264.785 183.477 267.272 185.597 269.207 188.159C271.142 190.72 272.479 193.661 273.125 196.777C273.771 199.892 273.71 203.107 272.947 206.197C272.183 209.288 270.736 212.179 268.705 214.669C268.507 214.916 268.293 215.164 268.08 215.401C268.068 215.418 268.054 215.435 268.039 215.45C267.513 216.039 266.952 216.599 266.361 217.126C266.209 217.265 266.051 217.408 265.888 217.542C265.583 217.809 265.268 218.061 264.938 218.303C264.81 218.402 264.683 218.501 264.551 218.595C264.038 218.976 263.498 219.327 262.949 219.668C262.94 219.668 262.931 219.671 262.924 219.678C262.766 219.772 262.603 219.866 262.441 219.955C262.288 220.044 262.131 220.133 261.978 220.217C261.836 220.291 261.698 220.365 261.556 220.439L261.368 220.533C260.93 220.751 260.488 220.958 260.03 221.151C259.98 221.176 259.924 221.196 259.868 221.22C259.827 221.235 259.786 221.255 259.746 221.27C259.736 221.275 259.731 221.275 259.726 221.28C259.512 221.364 259.298 221.448 259.08 221.527C258.364 221.793 257.634 222.021 256.893 222.209C255.7 222.521 254.482 222.734 253.253 222.847C252.536 222.911 251.818 222.946 251.096 222.946C250.379 222.946 249.678 222.911 248.976 222.847C248.747 222.827 248.519 222.802 248.29 222.778C246.931 222.611 245.59 222.326 244.283 221.927C244.279 221.927 244.275 221.925 244.273 221.922C243.307 221.625 242.364 221.262 241.45 220.835C241.445 220.83 241.44 220.83 241.435 220.825C241.232 220.731 241.034 220.632 240.83 220.533C240.797 220.518 240.765 220.502 240.734 220.484C240.571 220.404 240.408 220.32 240.25 220.236C240.088 220.152 239.93 220.063 239.778 219.969C239.615 219.885 239.462 219.791 239.305 219.697C239.223 219.648 239.142 219.599 239.061 219.549C238.949 219.485 238.847 219.421 238.735 219.346C238.583 219.252 238.43 219.149 238.283 219.045C238.084 218.911 237.886 218.773 237.693 218.629C237.628 218.588 237.565 218.544 237.505 218.496C233.729 215.705 230.957 211.824 229.586 207.409C228.215 202.994 228.315 198.27 229.872 193.913ZM238.247 217.542C238.379 217.646 238.517 217.744 238.654 217.833C238.791 217.932 238.923 218.026 239.061 218.115C239.178 218.194 239.295 218.274 239.416 218.348C239.427 218.357 239.439 218.365 239.452 218.372C239.539 218.432 239.63 218.486 239.717 218.541C239.778 218.575 239.838 218.615 239.9 218.649C240.078 218.758 240.256 218.862 240.439 218.961C240.535 219.02 240.637 219.074 240.734 219.129C240.769 219.149 240.805 219.168 240.84 219.188C240.998 219.272 241.15 219.346 241.303 219.426C241.323 219.44 241.349 219.445 241.364 219.46C241.373 219.46 241.383 219.464 241.39 219.47C241.583 219.569 241.781 219.663 241.979 219.752C242.743 220.109 243.529 220.418 244.334 220.676C244.435 220.711 244.542 220.751 244.644 220.78C245.941 221.18 247.274 221.458 248.625 221.611C248.778 221.631 248.935 221.645 249.093 221.66C249.754 221.72 250.42 221.749 251.096 221.749C251.697 221.749 252.302 221.725 252.896 221.675C254.14 221.574 255.372 221.366 256.578 221.052C257.496 220.82 258.395 220.522 259.268 220.162C259.314 220.142 259.359 220.128 259.405 220.108C259.456 220.088 259.497 220.073 259.542 220.053C259.593 220.034 259.634 220.014 259.685 219.989C260.015 219.851 260.346 219.697 260.666 219.539C260.712 219.515 260.758 219.495 260.803 219.47L260.981 219.381C261.088 219.327 261.195 219.272 261.297 219.218C261.637 219.04 261.973 218.847 262.298 218.649C262.42 218.575 262.552 218.496 262.675 218.417L262.766 218.358C263.051 218.17 263.336 217.982 263.615 217.779C263.804 217.641 263.997 217.507 264.18 217.364C264.49 217.136 264.79 216.894 265.08 216.642C265.232 216.518 265.385 216.38 265.527 216.251C266.1 215.738 266.641 215.194 267.149 214.62C267.317 214.432 267.485 214.244 267.643 214.046C267.678 214.007 267.709 213.967 267.744 213.923C270.366 210.707 271.943 206.804 272.274 202.713C272.605 198.623 271.676 194.528 269.604 190.953C267.533 187.378 264.413 184.484 260.643 182.639C256.873 180.795 252.623 180.085 248.436 180.598C244.249 181.112 240.314 182.827 237.133 185.524C233.953 188.221 231.67 191.778 230.577 195.742C229.484 199.705 229.63 203.895 230.996 207.778C232.362 211.661 234.886 215.06 238.247 217.542Z" fill="#3F3D56"/>
<path d="M213.502 87.162C221.327 80.7422 230.902 76.6721 241.062 75.447C251.222 74.2219 261.529 75.8947 270.73 80.2617C279.93 84.6288 287.626 91.5018 292.883 100.044C298.139 108.587 300.728 118.431 300.335 128.379C299.942 138.326 296.585 147.948 290.67 156.074C284.756 164.199 276.54 170.478 267.023 174.147C257.505 177.815 247.097 178.715 237.063 176.736C227.029 174.757 217.803 169.985 210.508 163.001L145.727 216.151C144.741 216.957 143.466 217.35 142.182 217.244C140.899 217.137 139.711 216.54 138.879 215.584C138.047 214.627 137.639 213.389 137.745 212.14C137.851 210.892 138.461 209.735 139.443 208.924L139.45 208.918L204.231 155.768C196.706 145.265 193.485 132.409 195.2 119.719C196.915 107.028 203.442 95.4172 213.502 87.162ZM217.679 150.649C222.725 156.465 229.432 160.695 236.951 162.804C244.471 164.913 252.464 164.807 259.921 162.499C267.378 160.191 273.964 155.785 278.845 149.837C283.727 143.89 286.685 136.668 287.346 129.086C288.006 121.504 286.34 113.902 282.557 107.241C278.774 100.579 273.044 95.1586 266.093 91.6636C259.142 88.1686 251.28 86.7564 243.503 87.6056C235.727 88.4548 228.383 91.5272 222.402 96.4344C214.382 103.015 209.379 112.423 208.493 122.591C207.607 132.758 210.911 142.851 217.679 150.649Z" fill="#3F3D56"/>
<path opacity="0.3" d="M273.436 155.242C281.026 149.014 285.931 140.237 287.174 130.656C288.418 121.074 285.911 111.389 280.15 103.521C280.907 104.262 281.638 105.038 282.344 105.849C285.695 109.71 288.231 114.176 289.807 118.99C291.383 123.805 291.969 128.874 291.53 133.908C291.091 138.942 289.637 143.843 287.251 148.331C284.864 152.819 281.592 156.806 277.62 160.064C273.649 163.322 269.057 165.788 264.106 167.321C259.154 168.853 253.941 169.423 248.763 168.996C243.586 168.57 238.545 167.156 233.93 164.835C229.314 162.514 225.214 159.333 221.863 155.471C221.158 154.659 220.495 153.828 219.872 152.977C226.879 159.822 236.277 163.854 246.199 164.274C256.122 164.694 265.845 161.47 273.436 155.242Z" fill="black"/>
<path d="M82.9033 218.137C82.3973 217.536 82.0329 216.835 81.8357 216.082C81.6386 215.33 81.6135 214.545 81.7623 213.782C81.9111 213.019 82.23 212.297 82.6968 211.667C83.1635 211.037 83.7667 210.514 84.4637 210.135L96.2718 163.141L104.886 165.814L92.1352 212.488C92.7122 213.669 92.8237 215.014 92.4485 216.27C92.0733 217.525 91.2376 218.603 90.0997 219.299C88.9617 219.996 87.6006 220.262 86.2743 220.048C84.948 219.833 83.7485 219.153 82.9033 218.137Z" fill="#FFB6B6"/>
<path d="M89.0065 188.077L95.3016 193.357L104.109 200.739L107.998 181.388L108.405 179.375L108.726 177.779L99.8017 162.664L92.3625 163.079L91.854 163.109L91.8439 163.218L91.7269 164.231L90.2014 177.57L90.1658 177.892L89.0065 188.077Z" fill="#3F3D56"/>
<path d="M130.153 319.433L136.386 319.433L139.352 296.053L130.151 296.053L130.153 319.433Z" fill="#FFB6B6"/>
<path d="M128.563 325.308L148.663 325.308V325.06C148.663 323.043 147.839 321.108 146.372 319.681C144.905 318.255 142.915 317.453 140.84 317.453H140.839L128.562 317.454L128.563 325.308Z" fill="#2F2E41"/>
<path d="M65.0665 319.928L71.3 319.927L74.2661 296.547L65.065 296.547L65.0665 319.928Z" fill="#FFB6B6"/>
<path d="M63.4764 325.802L83.5773 325.802V325.555C83.5771 323.537 82.7528 321.602 81.2855 320.175C79.8183 318.749 77.8284 317.947 75.7535 317.947H75.7529L63.4761 317.948L63.4764 325.802Z" fill="#2F2E41"/>
<path d="M60.0838 310.619L76.8638 313.091L101.276 232.758L127.204 313.586L146.018 311.114L121.611 217.173V209.757L118.305 198.633L118.651 195.622L121.056 174.564L122.099 165.432L122.166 164.842C122.223 164.347 122.088 163.849 121.788 163.446C121.488 163.042 121.044 162.761 120.543 162.659L112.712 161.057H99.9136L92.3625 163.079L91.8438 163.217L91.6099 163.282L91.7269 164.231L93.4964 178.658L93.593 179.449L95.3016 193.357L95.6778 196.408C80.9317 206.791 80.4232 217.173 80.4232 217.173L60.0838 310.619Z" fill="#2F2E41"/>
<path d="M107.859 154.803C100.962 154.803 95.3705 149.366 95.3705 142.659C95.3705 135.952 100.962 130.516 107.859 130.516C114.757 130.516 120.348 135.952 120.348 142.659C120.348 149.366 114.757 154.803 107.859 154.803Z" fill="#FFB6B6"/>
<path d="M94.7422 193.618L119.448 196.76L118.986 200.192L94.2806 197.05L94.7422 193.618Z" fill="#3F3D56"/>
<path d="M152.586 197.795C152.35 197.944 152.126 198.11 151.917 198.293L127.481 192.236L125.814 186.504L116.588 187.819L118.525 198.246C118.682 199.088 119.115 199.858 119.76 200.441C120.405 201.023 121.227 201.387 122.102 201.476L150.634 204.398C151.099 205.35 151.851 206.142 152.79 206.668C153.73 207.194 154.811 207.43 155.891 207.344C156.972 207.258 158 206.854 158.838 206.186C159.677 205.518 160.286 204.618 160.586 203.605C160.885 202.592 160.86 201.515 160.514 200.516C160.169 199.517 159.518 198.644 158.65 198.013C157.782 197.383 156.736 197.024 155.653 196.985C154.57 196.946 153.5 197.228 152.586 197.795Z" fill="#FFB6B6"/>
<path d="M115 165.755L119.322 162.541C120.491 162.11 122.092 163.335 122.373 164.519L128.475 188.746L115.763 197.645L113.983 194.926L115 165.755Z" fill="#3F3D56"/>
<g opacity="0.2">
<path d="M90.2014 177.57C91.2802 177.987 92.3799 178.35 93.4964 178.658C93.8523 178.762 94.2184 178.861 94.5794 178.955C96.9592 179.597 99.4047 179.981 101.871 180.102C102.933 180.145 103.997 180.117 105.054 180.018C106.19 179.908 107.312 179.692 108.405 179.375C108.441 179.365 108.482 179.355 108.517 179.345C110.791 178.718 112.875 177.566 114.594 175.988C114.978 175.625 115.336 175.236 115.666 174.826C116.616 173.696 117.313 172.385 117.712 170.978C118.111 169.57 118.204 168.098 117.985 166.653C117.943 166.392 117.885 166.133 117.812 165.877C117.621 165.181 117.367 164.503 117.055 163.85C116.917 163.544 116.765 163.242 116.602 162.945L110.856 161.057H99.9136L92.3625 163.079L91.854 163.108L91.8439 163.217L91.6099 163.282L91.7269 164.231L90.2014 177.57Z" fill="black"/>
</g>
<path d="M117.429 132.605C119.765 132.327 122.328 132.524 124.149 133.973C125.969 135.423 126.557 138.437 124.833 139.995C123.307 141.374 120.921 141.049 118.877 141.442C117.117 141.825 115.539 142.772 114.398 144.131C113.256 145.489 112.616 147.181 112.58 148.935C112.611 153.966 117.576 157.775 118.468 162.73C119.076 166.112 117.609 169.671 115.073 172.06C112.537 174.448 109.051 175.739 105.539 176.089C102.026 176.439 98.4747 175.905 95.0612 175.027C91.6333 174.146 88.2587 172.896 85.3825 170.88C82.5063 168.864 80.1486 166.022 79.2251 162.694C78.3016 159.365 78.9646 155.549 81.3444 152.993C84.0693 150.067 88.6026 149.06 90.9598 145.846C93.602 142.243 92.6243 137.111 94.7628 133.205C96.1906 130.597 98.8941 128.818 101.776 127.881C104.658 126.943 107.735 126.758 110.772 126.668C112.368 126.62 114.014 126.604 115.501 127.17C116.988 127.736 118.296 129.026 118.373 130.577C118.45 132.128 117.429 132.605 117.429 132.605Z" fill="#2F2E41"/>
<path d="M0.508606 326.003L194.242 326.003C194.377 326.003 194.506 325.95 194.601 325.858C194.697 325.765 194.75 325.639 194.75 325.508C194.75 325.377 194.697 325.251 194.601 325.158C194.506 325.066 194.377 325.014 194.242 325.014L0.508606 325.014C0.373749 325.014 0.244415 325.066 0.149063 325.158C0.0536957 325.251 0.00012207 325.377 0.00012207 325.508C0.00012207 325.639 0.0536957 325.765 0.149063 325.858C0.244415 325.95 0.373749 326.003 0.508606 326.003Z" fill="#CACACA"/>
</g>
<defs>
<clipPath id="clip0_45_640">
<rect width="300.375" height="326.003" fill="white" transform="matrix(-1 0 0 1 300.375 0)"/>
</clipPath>
</defs>
</svg>
