<svg width="97" height="93" viewBox="0 0 97 93" fill="none" xmlns="http://www.w3.org/2000/svg">
<path fill-rule="evenodd" clip-rule="evenodd" d="M87.0942 38.9532L87.7325 38.1332L87.9726 39.4952L87.0942 38.9532ZM85.4662 38.5328L86.1044 37.7128L86.3464 39.0851L85.4662 38.5328ZM86.3464 39.0851L86.9733 38.2671L87.2134 39.6291L86.3464 39.0851ZM86.8523 37.5809L87.7325 38.1332L86.2254 38.3989L86.8523 37.5809Z" fill="#C1121F"/>
<path d="M14.6778 53.3905C13.522 53.5943 12.4316 52.9102 12.2474 51.8656C12.0632 50.8211 12.8539 49.8052 14.0096 49.6014L31.0973 46.5884L33.9112 43.9276C34.7434 43.1473 36.079 43.1019 36.8956 43.8238C37.0174 43.9184 37.1071 44.0293 37.1985 44.1505L37.1967 44.1402L41.2652 49.8534L43.4385 30.5059C43.5544 29.4401 44.5941 28.6443 45.7497 28.7045C46.6601 28.7657 47.3799 29.3357 47.5946 30.0898L55.4824 51.8975L57.3109 37.0879C57.4399 36.0304 58.4909 35.2326 59.652 35.3235C60.2551 35.365 60.7829 35.6415 61.123 36.0462L64.8543 40.5094L87.0289 37.6554C88.1847 37.4516 89.0832 37.1136 89.2674 38.1582C89.4516 39.2028 88.6723 40.2166 87.5165 40.4204L64.2533 44.5223L64.2515 44.5121C63.4923 44.6459 62.7021 44.4052 62.2126 43.8157L60.9102 42.2608L58.5792 61.0448C58.4962 61.7669 57.9478 62.4338 57.131 62.7046C56.0249 63.058 54.8239 62.5412 54.4733 61.5471L46.628 39.848L44.866 55.5646C44.833 56.1723 44.4927 56.7602 43.8806 57.1321C42.899 57.7276 41.5863 57.505 40.9633 56.6223L35.033 48.3019L33.7315 49.5346C33.4213 49.8955 32.9665 50.1657 32.4339 50.2596L14.6778 53.3905Z" fill="#C1121F"/>
<path d="M82.291 34.7729C83.2306 27.2093 81.1666 20.8555 77.5137 16.355C75.4362 13.816 72.8611 11.8607 70.0533 10.6126C67.2756 9.37332 64.2326 8.8186 61.2332 9.07821C55.4724 9.56961 49.7239 13.0492 45.7344 20.3429C45.0409 21.5989 44.9906 22.9825 43.7286 22.3122C43.5543 22.2154 41.8648 21.1811 41.7272 21.0494C35.4837 15.5602 28.8779 14.2589 23.3103 15.765C20.3891 16.5494 17.7333 18.109 15.5331 20.226C13.3215 22.3591 11.5705 25.0772 10.5005 28.1712C8.58664 33.6958 8.83 40.4273 12.3812 47.27L7.04292 48.2113C3.46863 40.5081 3.36862 32.8868 5.59043 26.5143C6.92506 22.6508 9.12651 19.2439 11.9376 16.5374C14.7462 13.8171 18.1831 11.8221 21.9633 10.8013C28.3899 9.05868 35.5152 10.3533 42.5217 15.4671C47.3566 8.26538 54.1663 4.5136 60.8013 3.95309C64.7027 3.61947 68.6008 4.32104 72.1843 5.91424C75.7376 7.49859 78.9715 9.94708 81.5609 13.1186C85.7933 18.3106 88.2938 25.4378 87.6155 33.8341L82.291 34.7729ZM54.0728 79.3889C60.7233 72.3488 66.314 66.1901 70.7417 60.1656C74.6545 54.8696 77.7184 49.6241 79.8739 43.9294L85.7391 42.8952C83.3763 50.1712 79.7576 56.6484 74.936 63.1959C69.9976 69.8915 63.858 76.5864 56.5533 84.2945C55.7846 85.1245 54.5301 85.3882 53.4637 84.8534C43.9354 80.1134 35.8739 75.9084 28.9433 71.3056C22.2244 66.8497 16.6435 62.0372 11.9607 56.0744L17.8259 55.0402C21.787 59.5855 26.4089 63.4191 31.8343 67.026C38.0694 71.1704 45.4293 75.0455 54.0728 79.3889Z" fill="#284B63"/>
</svg>
