<svg width="227" height="191" viewBox="0 0 227 191" fill="none" xmlns="http://www.w3.org/2000/svg">
<g clip-path="url(#clip0_76_63)">
<path d="M2.01074 157.21C4.07558 169.145 13.3788 178.387 23.2832 186.464C24.6661 187.592 26.0523 188.698 27.4418 189.782C27.4515 189.787 27.4608 189.797 27.4706 189.802C27.5375 189.854 27.6045 189.906 27.6664 189.958C27.9532 190.181 28.2401 190.405 28.5246 190.626L28.3461 190.678L27.7901 190.839C27.981 190.789 28.1692 190.742 28.3601 190.693C28.417 190.678 28.4761 190.665 28.5329 190.65C35.0997 188.984 41.8 187.155 47.1683 183.251C52.7377 179.196 56.5733 172.284 54.6525 165.915C54.3997 165.08 54.0486 164.275 53.6056 163.514C53.4245 163.195 53.2249 162.887 53.015 162.583C51.7458 160.71 49.9684 159.189 47.8657 158.175C45.763 157.161 43.4108 156.692 41.0509 156.815C38.6911 156.938 36.4088 157.65 34.4387 158.876C32.4687 160.103 30.882 161.801 29.8417 163.794C29.9354 156.777 36.7586 151.659 43.1583 148.038C49.5604 144.418 56.809 140.508 58.8218 133.746C59.944 129.984 59 126.109 56.7964 122.835C56.728 122.735 56.6597 122.636 56.5885 122.538C53.8861 118.71 49.7457 115.98 44.9944 114.894C36.1289 113.005 26.8377 116.485 19.5659 121.613C7.86251 129.863 -0.336307 143.639 2.01074 157.21Z" fill="#F2F2F2"/>
<path d="M20.8146 144.024C18.7696 146.348 17.0964 148.939 15.8476 151.717C14.7738 154.204 14.102 156.828 13.8542 159.502C13.3156 164.995 14.4248 170.548 16.6369 175.631C18.3577 179.49 20.5908 183.13 23.2832 186.463C24.6661 187.591 26.0522 188.697 27.4417 189.781C27.4514 189.786 27.4608 189.796 27.4706 189.802C27.5374 189.854 27.6045 189.906 27.6663 189.957C27.9531 190.181 28.2401 190.404 28.5246 190.625L28.3461 190.677L27.79 190.838C27.9809 190.789 28.1692 190.742 28.36 190.692C28.4169 190.677 28.4761 190.665 28.5328 190.649C28.5243 186.262 29.6351 181.937 31.7722 178.037C33.9094 174.136 37.0106 170.773 40.816 168.231C44.624 165.733 49.0063 164.117 53.6056 163.513C53.4245 163.194 53.2249 162.886 53.015 162.583C51.2353 162.842 49.4835 163.248 47.7801 163.798C41.6929 165.745 36.4347 169.481 32.7839 174.454C29.5006 178.973 27.6578 184.278 27.4721 189.747C27.2427 189.499 27.0137 189.246 26.7921 188.996C22.5656 184.291 18.9501 179.029 16.7951 173.184C14.911 168.227 14.3531 162.911 15.1707 157.705C16.1324 152.035 19.2226 147.032 23.3074 142.834C27.6826 138.341 32.9358 134.522 38.4335 131.321C44.0654 128.035 50.1041 125.409 56.415 123.501C56.5575 123.457 56.6765 123.363 56.7475 123.239C56.8185 123.115 56.836 122.97 56.7964 122.834C56.7714 122.713 56.6966 122.607 56.5885 122.538C56.5322 122.507 56.4692 122.488 56.4043 122.484C56.3394 122.479 56.2742 122.488 56.2135 122.51C55.4343 122.746 54.6596 122.987 53.889 123.243C47.4706 125.373 41.3587 128.243 35.6937 131.788C30.223 135.203 24.9704 139.217 20.8146 144.024Z" fill="white"/>
<path d="M132.438 116.768C133.069 116.768 133.676 116.541 134.137 116.136C134.597 115.73 134.876 115.175 134.917 114.584L135.287 109.286C135.33 108.668 135.11 108.058 134.674 107.592C134.239 107.126 133.625 106.841 132.966 106.801L88.7914 104.083C88.0948 104.04 87.3961 104.126 86.735 104.337C86.0739 104.547 85.4635 104.878 84.9386 105.31C84.4137 105.743 83.9846 106.268 83.6758 106.856C83.367 107.444 83.1846 108.084 83.139 108.738C83.0934 109.392 83.1855 110.049 83.41 110.67C83.6345 111.291 83.987 111.864 84.4474 112.357C84.9078 112.85 85.4671 113.253 86.0933 113.542C86.7195 113.832 87.4003 114.003 88.0969 114.046L132.272 116.763C132.327 116.767 132.383 116.768 132.438 116.768Z" fill="#888792"/>
<path d="M123.727 117.451C124.371 117.45 124.989 117.215 125.452 116.795C125.916 116.376 126.188 115.804 126.213 115.2L126.528 107.288C126.54 106.981 126.488 106.675 126.374 106.388C126.26 106.1 126.087 105.836 125.865 105.611C125.643 105.386 125.376 105.204 125.079 105.076C124.781 104.948 124.46 104.876 124.134 104.865L87.8078 103.59C87.1483 103.566 86.506 103.79 86.0222 104.212C85.5384 104.634 85.2528 105.219 85.2281 105.838L84.9133 113.75C84.9011 114.057 84.9533 114.363 85.067 114.651C85.1807 114.939 85.3537 115.203 85.576 115.428C85.7983 115.653 86.0656 115.834 86.3626 115.962C86.6596 116.09 86.9806 116.162 87.3072 116.173L123.633 117.449C123.665 117.45 123.696 117.451 123.727 117.451Z" fill="#2F2E41"/>
<path d="M81.159 190.382H86.8096C87.4693 190.381 88.1019 190.135 88.5684 189.696C89.0349 189.258 89.2973 188.664 89.298 188.044V143.802C89.2973 143.182 89.0349 142.588 88.5684 142.149C88.1019 141.711 87.4693 141.465 86.8096 141.464H81.159C80.4992 141.465 79.8667 141.711 79.4002 142.149C78.9337 142.588 78.6713 143.182 78.6705 143.802V188.044C78.6713 188.664 78.9337 189.258 79.4002 189.696C79.8667 190.135 80.4992 190.381 81.159 190.382Z" fill="#2F2E41"/>
<path d="M106.24 166.996L111.072 164.244C111.636 163.922 112.041 163.403 112.198 162.801C112.355 162.199 112.251 161.564 111.91 161.033L87.4986 123.198C87.156 122.669 86.6037 122.288 85.9629 122.141C85.3222 121.993 84.6452 122.09 84.0807 122.411L79.2485 125.162C78.6847 125.484 78.2798 126.003 78.1227 126.605C77.9656 127.207 78.069 127.843 78.4104 128.373L102.822 166.208C103.164 166.738 103.717 167.118 104.357 167.266C104.998 167.413 105.675 167.316 106.24 166.996Z" fill="#2F2E41"/>
<path d="M89.7411 95.2922C78.9578 95.2922 70.2163 87.08 70.2163 76.9498C70.2163 66.8196 78.9578 58.6074 89.7411 58.6074C100.524 58.6074 109.266 66.8196 109.266 76.9498C109.266 87.08 100.524 95.2922 89.7411 95.2922Z" fill="#888792"/>
<path d="M100.31 83.2121C100.938 83.0182 101.514 82.7003 102.001 82.2796C102.323 81.9792 102.571 81.6163 102.729 81.2163C102.886 80.8163 102.948 80.3888 102.911 79.9638C102.89 79.661 102.796 79.3667 102.634 79.104C102.473 78.8412 102.249 78.6172 101.98 78.4492C101.281 78.0285 100.347 78.0272 99.3967 78.4209L99.4327 71.2603L98.667 71.2568L98.6247 79.6749L99.2146 79.3263C99.8987 78.9227 100.876 78.6386 101.566 79.0547C101.737 79.1647 101.878 79.3101 101.979 79.4797C102.08 79.6493 102.138 79.8385 102.149 80.0326C102.174 80.3492 102.127 80.6673 102.011 80.9652C101.894 81.2632 101.71 81.534 101.472 81.7593C100.626 82.518 99.3928 82.7552 97.9862 82.9673L98.1075 83.6774C98.8549 83.5844 99.5919 83.4287 100.31 83.2121Z" fill="#2F2E41"/>
<path d="M107.326 70.8993L107.426 71.6123L103.337 72.1195L103.237 71.4065L107.326 70.8993Z" fill="#2F2E41"/>
<path d="M94.421 72.4999L94.5212 73.2129L90.4329 73.7201L90.3327 73.0071L94.421 72.4999Z" fill="#2F2E41"/>
<path d="M73.4378 155.672H106.362C107.225 155.671 108.052 155.349 108.662 154.776C109.272 154.203 109.615 153.426 109.616 152.615L102.723 102.96C102.718 102.153 102.373 101.381 101.763 100.812C101.154 100.244 100.33 99.9252 99.4709 99.9258H87.7866C83.1196 99.9307 78.6453 101.675 75.3453 104.775C72.0452 107.875 70.1889 112.078 70.1837 116.463V152.615C70.1846 153.426 70.5278 154.203 71.1379 154.776C71.7479 155.349 72.5751 155.671 73.4378 155.672Z" fill="#2F2E41"/>
<path d="M81.7284 153.025C81.9286 153.435 82.2508 153.782 82.6561 154.025C83.0615 154.267 83.5327 154.394 84.0131 154.391L89.6635 154.345C89.9903 154.342 90.3133 154.279 90.6141 154.159C90.9149 154.039 91.1876 153.864 91.4167 153.646C91.6457 153.427 91.8266 153.167 91.9491 152.883C92.0715 152.598 92.133 152.294 92.1302 151.987L91.7463 110.4C91.7403 109.744 91.5968 109.096 91.3242 108.493C91.0516 107.889 90.6552 107.342 90.1575 106.883C89.6598 106.423 89.0707 106.06 88.4237 105.815C87.7767 105.569 87.0846 105.446 86.3869 105.451C85.6891 105.457 84.9994 105.592 84.357 105.848C83.7147 106.104 83.1323 106.476 82.6432 106.944C82.1541 107.412 81.7678 107.965 81.5064 108.573C81.2449 109.181 81.1135 109.831 81.1195 110.486L81.5032 152.073C81.5058 152.402 81.5826 152.726 81.7284 153.025Z" fill="#888792"/>
<path d="M79.2322 141.923C79.4324 142.333 79.7546 142.68 80.1599 142.923C80.5652 143.165 81.0365 143.292 81.5169 143.289L91.168 143.21C91.8277 143.204 92.4579 142.952 92.9203 142.51C93.3828 142.068 93.6397 141.472 93.6347 140.852L93.3194 106.703C93.3166 106.396 93.2495 106.093 93.1218 105.81C92.9942 105.528 92.8085 105.271 92.5754 105.056C92.3424 104.841 92.0665 104.671 91.7635 104.556C91.4605 104.441 91.1363 104.383 90.8095 104.386L81.1586 104.464C80.8318 104.467 80.5088 104.53 80.208 104.65C79.9071 104.77 79.6344 104.944 79.4053 105.163C79.1763 105.382 78.9954 105.642 78.873 105.926C78.7505 106.211 78.689 106.515 78.6919 106.822L79.007 140.971C79.0097 141.3 79.0864 141.624 79.2322 141.923Z" fill="#2F2E41"/>
<path d="M89.3759 66.0706C91.986 64.0415 95.475 65.9607 98.4267 65.6883C101.251 65.4277 103.524 63.093 104.143 60.5807C104.865 57.6497 103.299 54.6723 100.94 52.7947C98.3555 50.7383 94.886 50.0992 91.5797 50.4121C87.7902 50.7708 84.2989 52.3647 81.1558 54.312C78.1231 56.1317 75.3247 58.2749 72.8164 60.6989C70.5689 62.9436 68.6487 65.6328 67.991 68.6956C67.3932 71.4791 67.7439 74.5816 69.4537 76.9791C70.3612 78.2085 71.5906 79.1975 73.0234 79.8506C74.5164 80.5727 76.1141 81.0984 77.5583 81.9106C79.742 83.1385 81.8378 85.6413 81.0944 88.1936C80.9348 88.7512 80.6318 89.2634 80.2119 89.685C79.7075 90.1914 78.8301 89.4947 79.3359 88.987C80.2242 88.0953 80.2144 86.8847 79.7727 85.7932C79.2461 84.5628 78.2903 83.5368 77.0618 82.8835C75.55 82.0353 73.8728 81.4985 72.3215 80.7228C70.8359 80.0129 69.5548 78.9764 68.5874 77.7014C66.762 75.2202 66.2656 72.0247 66.7504 69.0854C67.275 65.9046 69.0778 63.0379 71.3133 60.6485C73.7461 58.0482 76.714 55.8633 79.7405 53.9069C82.9879 51.8077 86.5643 50.0478 90.4945 49.4583C93.9012 48.9473 97.5743 49.3649 100.508 51.1561C103.247 52.8281 105.315 55.657 105.464 58.7795C105.511 60.1998 105.154 61.6063 104.431 62.8543C103.707 64.1022 102.643 65.1464 101.347 65.8795C100.018 66.5948 98.4837 66.9 96.9603 66.7521C95.3311 66.6249 93.7078 66.1265 92.0635 66.2275C91.3198 66.2566 90.6065 66.5126 90.0316 66.9569C89.4613 67.4002 88.8104 66.5103 89.3759 66.0706Z" fill="#2F2E41"/>
<path d="M112.334 161.672C112.327 161.632 112.319 161.591 112.31 161.551C112.242 161.251 112.111 160.966 111.925 160.713C111.739 160.461 111.501 160.245 111.226 160.08L106.478 157.202C105.923 156.867 105.249 156.752 104.604 156.883C103.959 157.013 103.396 157.379 103.038 157.9L88.39 179.234C88.0323 179.755 87.9096 180.388 88.0488 180.994C88.188 181.601 88.5777 182.13 89.1323 182.466L93.8808 185.343C94.4357 185.679 95.1094 185.793 95.7543 185.663C96.3992 185.532 96.9626 185.166 97.3209 184.646L111.969 163.311C112.303 162.827 112.434 162.242 112.334 161.672Z" fill="#2F2E41"/>
<path d="M130.118 21.0663C130.483 20.2525 131.094 19.5571 131.875 19.0661C132.656 18.5751 133.573 18.31 134.513 18.3037H222.244C223.505 18.3043 224.715 18.7753 225.606 19.613C226.498 20.4507 226.999 21.5867 227 22.7714V127.038C226.999 128.223 226.498 129.359 225.606 130.196C224.715 131.034 223.505 131.505 222.244 131.506H134.51C133.249 131.504 132.041 131.033 131.149 130.195C130.258 129.358 129.756 128.222 129.754 127.038V22.7714C129.752 22.1862 129.875 21.6064 130.115 21.0663H130.118ZM130.814 127.038C130.815 127.959 131.205 128.843 131.898 129.494C132.592 130.146 133.532 130.512 134.513 130.514H222.244C223.225 130.513 224.166 130.147 224.86 129.496C225.554 128.844 225.944 127.96 225.944 127.039V22.772C225.943 21.8506 225.552 20.9673 224.859 20.3158C224.165 19.6643 223.225 19.2977 222.244 19.2965H134.51C133.771 19.2991 133.05 19.5085 132.438 19.8979C131.827 20.2873 131.352 20.8391 131.076 21.4828C131.022 21.6111 130.976 21.7419 130.937 21.8749C130.853 22.1674 130.81 22.469 130.81 22.772L130.814 127.038Z" fill="#3F3D56"/>
<path d="M148.426 42.9214H174.852C175.413 42.9214 175.951 42.7122 176.347 42.3397C176.743 41.9673 176.966 41.4621 176.966 40.9353C176.966 40.4086 176.743 39.9034 176.347 39.5309C175.951 39.1585 175.413 38.9492 174.852 38.9492H148.426C147.866 38.9492 147.328 39.1585 146.931 39.5309C146.535 39.9034 146.312 40.4086 146.312 40.9353C146.312 41.4621 146.535 41.9673 146.931 42.3397C147.328 42.7122 147.866 42.9214 148.426 42.9214Z" fill="#3F3D56"/>
<path d="M148.426 53.3472H174.852C175.13 53.3476 175.405 53.2965 175.662 53.1968C175.919 53.0972 176.152 52.9509 176.349 52.7664C176.546 52.582 176.701 52.3629 176.808 52.1218C176.914 51.8806 176.969 51.6222 176.969 51.3611C176.969 51.1001 176.914 50.8416 176.808 50.6004C176.701 50.3593 176.546 50.1402 176.349 49.9558C176.152 49.7713 175.919 49.6251 175.662 49.5254C175.405 49.4258 175.13 49.3747 174.852 49.375H148.426C148.148 49.3747 147.873 49.4258 147.616 49.5254C147.36 49.6251 147.126 49.7713 146.93 49.9558C146.733 50.1402 146.577 50.3593 146.471 50.6004C146.364 50.8416 146.309 51.1001 146.309 51.3611C146.309 51.6222 146.364 51.8806 146.471 52.1218C146.577 52.3629 146.733 52.582 146.93 52.7664C147.126 52.9509 147.36 53.0972 147.616 53.1968C147.873 53.2965 148.148 53.3476 148.426 53.3472Z" fill="#3F3D56"/>
<path d="M188.411 59.2845H207.723C208.354 59.2839 208.958 59.0483 209.404 58.6294C209.85 58.2105 210.101 57.6425 210.101 57.0501V35.6407C210.101 35.0483 209.85 34.4803 209.404 34.0614C208.958 33.6425 208.354 33.4069 207.723 33.4062H188.411C187.78 33.4069 187.176 33.6425 186.73 34.0614C186.284 34.4803 186.033 35.0483 186.033 35.6407V57.0501C186.033 57.6425 186.284 58.2105 186.73 58.6294C187.176 59.0483 187.78 59.2839 188.411 59.2845Z" fill="#888792"/>
<path d="M148.61 74.6978H208.332C208.893 74.6978 209.43 74.4886 209.827 74.1161C210.223 73.7436 210.446 73.2385 210.446 72.7117C210.446 72.185 210.223 71.6798 209.827 71.3073C209.43 70.9348 208.893 70.7256 208.332 70.7256H148.61C148.049 70.7256 147.511 70.9348 147.115 71.3073C146.718 71.6798 146.495 72.185 146.495 72.7117C146.495 73.2385 146.718 73.7436 147.115 74.1161C147.511 74.4886 148.049 74.6978 148.61 74.6978Z" fill="#CCCCCC"/>
<path d="M148.61 85.1246H208.332C208.893 85.1246 209.43 84.9153 209.827 84.5428C210.223 84.1704 210.446 83.6652 210.446 83.1385C210.446 82.6117 210.223 82.1065 209.827 81.7341C209.43 81.3616 208.893 81.1523 208.332 81.1523H148.61C148.049 81.1523 147.511 81.3616 147.115 81.7341C146.718 82.1065 146.495 82.6117 146.495 83.1385C146.495 83.6652 146.718 84.1704 147.115 84.5428C147.511 84.9153 148.049 85.1246 148.61 85.1246Z" fill="#CCCCCC"/>
<path d="M148.61 95.5513H208.332C208.892 95.5506 209.429 95.3411 209.825 94.9687C210.221 94.5963 210.443 94.0915 210.443 93.5652C210.443 93.0389 210.221 92.5342 209.825 92.1618C209.429 91.7894 208.892 91.5798 208.332 91.5791H148.61C148.332 91.5788 148.057 91.6299 147.8 91.7295C147.543 91.8292 147.31 91.9754 147.113 92.1599C146.916 92.3443 146.76 92.5634 146.654 92.8045C146.547 93.0457 146.493 93.3042 146.493 93.5652C146.493 93.8263 146.547 94.0847 146.654 94.3259C146.76 94.567 146.916 94.7861 147.113 94.9705C147.31 95.155 147.543 95.3013 147.8 95.4009C148.057 95.5006 148.332 95.5517 148.61 95.5513Z" fill="#CCCCCC"/>
<path d="M148.61 105.978H208.332C208.893 105.978 209.43 105.769 209.827 105.396C210.223 105.024 210.446 104.519 210.446 103.992C210.446 103.465 210.223 102.96 209.827 102.588C209.43 102.215 208.893 102.006 208.332 102.006H148.61C148.049 102.006 147.511 102.215 147.115 102.588C146.718 102.96 146.495 103.465 146.495 103.992C146.495 104.519 146.718 105.024 147.115 105.396C147.511 105.769 148.049 105.978 148.61 105.978Z" fill="#CCCCCC"/>
<path d="M148.61 116.404H208.332C208.893 116.404 209.43 116.195 209.827 115.822C210.223 115.45 210.446 114.945 210.446 114.418C210.446 113.891 210.223 113.386 209.827 113.013C209.43 112.641 208.893 112.432 208.332 112.432H148.61C148.049 112.432 147.511 112.641 147.115 113.013C146.718 113.386 146.495 113.891 146.495 114.418C146.495 114.945 146.718 115.45 147.115 115.822C147.511 116.195 148.049 116.404 148.61 116.404Z" fill="#CCCCCC"/>
<path d="M129.462 38.3345C118.194 38.3345 109.059 29.753 109.059 19.1672C109.059 8.58146 118.194 0 129.462 0C140.73 0 149.865 8.58146 149.865 19.1672C149.865 29.753 140.73 38.3345 129.462 38.3345Z" fill="#888792"/>
<path d="M127.828 26C127.309 26.0007 126.804 25.8572 126.389 25.591L126.363 25.5745L120.943 22.0288C120.692 21.8642 120.481 21.659 120.323 21.4248C120.165 21.1906 120.062 20.932 120.021 20.6639C119.979 20.3957 120 20.1232 120.082 19.8619C120.164 19.6006 120.305 19.3556 120.497 19.1409C120.69 18.9262 120.93 18.7461 121.203 18.6107C121.477 18.4754 121.78 18.3875 122.093 18.3521C122.407 18.3167 122.725 18.3344 123.031 18.4043C123.337 18.4742 123.623 18.5949 123.874 18.7595L127.385 21.0617L135.681 11.8062C135.873 11.5917 136.113 11.4116 136.387 11.2763C136.66 11.141 136.963 11.0531 137.276 11.0177C137.59 10.9823 137.908 11.0001 138.214 11.0699C138.519 11.1398 138.805 11.2604 139.056 11.4249L139.057 11.4254L139.006 11.4865L139.058 11.4254C139.565 11.7581 139.896 12.249 139.979 12.7903C140.063 13.3316 139.892 13.8791 139.504 14.3127L129.746 25.1943C129.52 25.445 129.23 25.6479 128.898 25.7872C128.565 25.9265 128.2 25.9985 127.83 25.9975L127.828 26Z" fill="white"/>
<path d="M0.377178 191H139.188C139.288 191 139.384 190.962 139.455 190.896C139.525 190.829 139.565 190.739 139.565 190.645C139.565 190.551 139.525 190.461 139.455 190.395C139.384 190.328 139.288 190.291 139.188 190.291H0.377178C0.277138 190.291 0.1812 190.328 0.110461 190.395C0.0397214 190.461 -2.5034e-05 190.551 -2.5034e-05 190.645C-2.5034e-05 190.739 0.0397214 190.829 0.110461 190.896C0.1812 190.962 0.277138 191 0.377178 191Z" fill="#3F3D56"/>
</g>
<defs>
<clipPath id="clip0_76_63">
<rect width="227" height="191" fill="white" transform="matrix(-1 0 0 1 227 0)"/>
</clipPath>
</defs>
</svg>
