<svg width="34" height="34" viewBox="0 0 34 34" fill="none" xmlns="http://www.w3.org/2000/svg">
<path d="M28.3333 17C28.3333 15.4375 27.0626 14.1667 25.5 14.1667H24.0833V9.91671C24.0833 6.01096 20.9057 2.83337 17 2.83337C13.0942 2.83337 9.91667 6.01096 9.91667 9.91671V14.1667H8.5C6.93742 14.1667 5.66667 15.4375 5.66667 17V28.3334C5.66667 29.896 6.93742 31.1667 8.5 31.1667H25.5C27.0626 31.1667 28.3333 29.896 28.3333 28.3334V17ZM12.75 9.91671C12.75 7.57354 14.6568 5.66671 17 5.66671C19.3432 5.66671 21.25 7.57354 21.25 9.91671V14.1667H12.75V9.91671Z" fill="#F4F5F7"/>
</svg>
