<svg width="84" height="83" viewBox="0 0 84 83" fill="none" xmlns="http://www.w3.org/2000/svg">
<path fill-rule="evenodd" clip-rule="evenodd" d="M75.5523 33.8499L76.1516 33.1196L76.2969 34.2514L75.5523 33.8499ZM74.144 33.5975L74.7434 32.8673L74.8897 34.0076L74.144 33.5975ZM74.8897 34.0076L75.4791 33.2797L75.6244 34.4115L74.8897 34.0076ZM75.4059 32.7096L76.1516 33.1196L74.8166 33.4374L75.4059 32.7096Z" fill="#C1121F"/>
<path d="M12.5524 49.0971C11.5409 49.334 10.6282 48.8408 10.518 47.9978C10.4078 47.1548 11.1412 46.2761 12.1527 46.0392L27.1073 42.537L29.6724 40.1901C30.4307 39.5014 31.5906 39.3831 32.2643 39.9238C32.3654 39.9938 32.4379 40.0791 32.5114 40.1726L32.5103 40.1643L35.7665 44.589L38.5664 28.6355C38.7172 27.7569 39.6562 27.043 40.655 27.022C41.4413 27.0167 42.0382 27.4391 42.1887 28.0427L47.9935 45.3967L50.2796 33.175C50.4415 32.3024 51.3903 31.5861 52.3924 31.5899C52.9133 31.5872 53.3577 31.7812 53.6333 32.0915L56.6564 35.5146L76.013 31.8333C77.0245 31.5964 77.8193 31.2654 77.9295 32.1084C78.0397 32.9514 77.3162 33.8278 76.3047 34.0647L55.9454 38.8327L55.9443 38.8244C55.2799 38.98 54.6063 38.8311 54.2099 38.3788L53.1547 37.1865L50.2447 52.6888C50.1386 53.2843 49.6317 53.863 48.9108 54.1341C47.9353 54.4903 46.9187 54.1406 46.6619 53.349L40.8888 36.0812L38.6173 49.0406C38.5599 49.5395 38.2371 50.041 37.6889 50.3823C36.8099 50.9289 35.6825 50.8267 35.1843 50.1427L30.4377 43.699L29.2512 44.7861C28.9652 45.1001 28.5582 45.3487 28.0921 45.4579L12.5524 49.0971Z" fill="#C1121F"/>
<path d="M72.1345 29.7257C73.2432 23.2199 71.6876 17.89 68.6761 14.2187C66.9625 12.1482 64.7929 10.6 62.3933 9.66696C60.0197 8.74001 57.3886 8.41041 54.7642 8.77438C49.7241 9.46727 44.5801 12.7123 40.8233 19.132C40.1707 20.2379 40.0738 21.4222 38.9996 20.9094C38.8513 20.8349 37.4183 20.0315 37.3034 19.9256C32.0717 15.5323 26.3637 14.734 21.4531 16.2845C18.8768 17.093 16.5021 18.5512 14.5033 20.464C12.4939 22.3911 10.8634 24.796 9.81225 27.4898C7.93241 32.2998 7.88661 38.0387 10.7198 43.7157L6.03068 44.7729C3.21035 38.3619 3.41519 31.8562 5.59597 26.3071C6.90731 22.9435 8.95671 19.9288 11.5106 17.4834C14.0629 15.0265 17.1351 13.1594 20.4692 12.1081C26.1376 10.3148 32.2987 11.0829 38.2098 15.1192C42.7 8.73791 48.7794 5.21011 54.5841 4.41673C57.9975 3.94678 61.3683 4.36128 64.4308 5.55238C67.4673 6.73734 70.1923 8.67564 72.3278 11.2622C75.8179 15.4967 77.7244 21.4666 76.8114 28.6712L72.1345 29.7257ZM45.8289 69.1765C51.8955 62.8473 57.0045 57.3212 61.0947 51.9648C64.7082 47.2552 67.5798 42.629 69.6767 37.6621L74.8287 36.5006C72.4905 42.8282 69.088 48.5328 64.6345 54.3546C60.0734 60.3085 54.4655 66.3186 47.8031 73.2496C47.1013 73.995 45.9977 74.2798 45.0887 73.8735C36.9651 70.2761 30.0996 67.0662 24.2349 63.4628C18.5492 59.9749 13.8692 56.1285 10.0159 51.2567L15.1679 50.0952C18.4463 53.7902 22.3281 56.846 26.9189 59.6699C32.1948 62.9146 38.4615 65.8761 45.8289 69.1765Z" fill="#284B63"/>
</svg>
