<svg width="185" height="59" viewBox="0 0 185 59" fill="none" xmlns="http://www.w3.org/2000/svg">
<path d="M73.1 24.7102C73.0546 24.2519 72.8595 23.8958 72.5148 23.642C72.1701 23.3883 71.7023 23.2614 71.1114 23.2614C70.7099 23.2614 70.3709 23.3182 70.0944 23.4318C69.8179 23.5417 69.6057 23.6951 69.458 23.892C69.3141 24.089 69.2421 24.3125 69.2421 24.5625C69.2345 24.7708 69.2781 24.9527 69.3728 25.108C69.4713 25.2633 69.6057 25.3977 69.7762 25.5114C69.9466 25.6212 70.1436 25.7178 70.3671 25.8011C70.5906 25.8807 70.8292 25.9489 71.083 26.0057L72.1285 26.2557C72.636 26.3693 73.1019 26.5208 73.5262 26.7102C73.9504 26.8996 74.3179 27.1326 74.6285 27.4091C74.9391 27.6856 75.1796 28.0114 75.35 28.3864C75.5243 28.7614 75.6133 29.1913 75.6171 29.6761C75.6133 30.3883 75.4315 31.0057 75.0716 31.5284C74.7156 32.0473 74.2004 32.4508 73.5262 32.7386C72.8557 33.0227 72.047 33.1648 71.1 33.1648C70.1607 33.1648 69.3425 33.0208 68.6455 32.733C67.9523 32.4451 67.4107 32.0189 67.0205 31.4545C66.6341 30.8864 66.4315 30.1837 66.4125 29.3466H68.7932C68.8197 29.7367 68.9315 30.0625 69.1285 30.3239C69.3292 30.5814 69.5963 30.7765 69.9296 30.9091C70.2667 31.0379 70.6474 31.1023 71.0716 31.1023C71.4883 31.1023 71.85 31.0417 72.1569 30.9205C72.4675 30.7992 72.708 30.6307 72.8785 30.4148C73.0489 30.1989 73.1341 29.9508 73.1341 29.6705C73.1341 29.4091 73.0565 29.1894 72.9012 29.0114C72.7497 28.8333 72.5262 28.6818 72.2307 28.5568C71.9391 28.4318 71.5811 28.3182 71.1569 28.2159L69.8898 27.8977C68.9088 27.6591 68.1341 27.286 67.566 26.7784C66.9978 26.2708 66.7156 25.5871 66.7194 24.7273C66.7156 24.0227 66.9031 23.4072 67.2819 22.8807C67.6644 22.3542 68.1891 21.9432 68.8557 21.6477C69.5224 21.3523 70.28 21.2045 71.1285 21.2045C71.9921 21.2045 72.7459 21.3523 73.3898 21.6477C74.0375 21.9432 74.5413 22.3542 74.9012 22.8807C75.261 23.4072 75.4466 24.017 75.458 24.7102H73.1ZM77.2719 33V21.3636H81.8628C82.7454 21.3636 83.4973 21.5322 84.1185 21.8693C84.7397 22.2027 85.2132 22.6667 85.539 23.2614C85.8685 23.8523 86.0333 24.5341 86.0333 25.3068C86.0333 26.0795 85.8666 26.7614 85.5333 27.3523C85.2 27.9432 84.717 28.4034 84.0844 28.733C83.4556 29.0625 82.6943 29.2273 81.8003 29.2273H78.8742V27.2557H81.4026C81.8761 27.2557 82.2662 27.1742 82.5731 27.0114C82.8837 26.8447 83.1147 26.6155 83.2662 26.3239C83.4215 26.0284 83.4992 25.6894 83.4992 25.3068C83.4992 24.9205 83.4215 24.5833 83.2662 24.2955C83.1147 24.0038 82.8837 23.7784 82.5731 23.6193C82.2625 23.4564 81.8685 23.375 81.3912 23.375H79.7322V33H77.2719ZM98.3245 27.1818C98.3245 28.4508 98.0839 29.5303 97.6029 30.4205C97.1256 31.3106 96.4741 31.9905 95.6483 32.4602C94.8264 32.9261 93.9021 33.1591 92.8756 33.1591C91.8415 33.1591 90.9135 32.9242 90.0915 32.4545C89.2696 31.9848 88.6199 31.3049 88.1427 30.4148C87.6654 29.5246 87.4268 28.447 87.4268 27.1818C87.4268 25.9129 87.6654 24.8333 88.1427 23.9432C88.6199 23.053 89.2696 22.375 90.0915 21.9091C90.9135 21.4394 91.8415 21.2045 92.8756 21.2045C93.9021 21.2045 94.8264 21.4394 95.6483 21.9091C96.4741 22.375 97.1256 23.053 97.6029 23.9432C98.0839 24.8333 98.3245 25.9129 98.3245 27.1818ZM95.8302 27.1818C95.8302 26.3598 95.7071 25.6667 95.4608 25.1023C95.2184 24.5379 94.8756 24.1098 94.4324 23.8182C93.9893 23.5265 93.4703 23.3807 92.8756 23.3807C92.2809 23.3807 91.762 23.5265 91.3188 23.8182C90.8756 24.1098 90.5309 24.5379 90.2847 25.1023C90.0423 25.6667 89.9211 26.3598 89.9211 27.1818C89.9211 28.0038 90.0423 28.697 90.2847 29.2614C90.5309 29.8258 90.8756 30.2538 91.3188 30.5455C91.762 30.8371 92.2809 30.983 92.8756 30.983C93.4703 30.983 93.9893 30.8371 94.4324 30.5455C94.8756 30.2538 95.2184 29.8258 95.4608 29.2614C95.7071 28.697 95.8302 28.0038 95.8302 27.1818ZM100.147 33V21.3636H104.738C105.617 21.3636 106.367 21.5208 106.988 21.8352C107.613 22.1458 108.088 22.5871 108.414 23.1591C108.744 23.7273 108.908 24.3958 108.908 25.1648C108.908 25.9375 108.742 26.6023 108.408 27.1591C108.075 27.7121 107.592 28.1364 106.959 28.4318C106.331 28.7273 105.569 28.875 104.675 28.875H101.601V26.8977H104.278C104.747 26.8977 105.137 26.8333 105.448 26.7045C105.759 26.5758 105.99 26.3826 106.141 26.125C106.297 25.8674 106.374 25.5473 106.374 25.1648C106.374 24.7784 106.297 24.4527 106.141 24.1875C105.99 23.9223 105.757 23.7216 105.442 23.5852C105.132 23.4451 104.74 23.375 104.266 23.375H102.607V33H100.147ZM106.431 27.7045L109.323 33H106.607L103.778 27.7045H106.431ZM110.204 23.392V21.3636H119.761V23.392H116.198V33H113.766V23.392H110.204ZM121.334 33V21.3636H123.795V26.1648H128.789V21.3636H131.244V33H128.789V28.1932H123.795V33H121.334ZM143.965 27.1818C143.965 28.4508 143.725 29.5303 143.244 30.4205C142.766 31.3106 142.115 31.9905 141.289 32.4602C140.467 32.9261 139.543 33.1591 138.516 33.1591C137.482 33.1591 136.554 32.9242 135.732 32.4545C134.91 31.9848 134.261 31.3049 133.783 30.4148C133.306 29.5246 133.067 28.447 133.067 27.1818C133.067 25.9129 133.306 24.8333 133.783 23.9432C134.261 23.053 134.91 22.375 135.732 21.9091C136.554 21.4394 137.482 21.2045 138.516 21.2045C139.543 21.2045 140.467 21.4394 141.289 21.9091C142.115 22.375 142.766 23.053 143.244 23.9432C143.725 24.8333 143.965 25.9129 143.965 27.1818ZM141.471 27.1818C141.471 26.3598 141.348 25.6667 141.101 25.1023C140.859 24.5379 140.516 24.1098 140.073 23.8182C139.63 23.5265 139.111 23.3807 138.516 23.3807C137.922 23.3807 137.403 23.5265 136.959 23.8182C136.516 24.1098 136.172 24.5379 135.925 25.1023C135.683 25.6667 135.562 26.3598 135.562 27.1818C135.562 28.0038 135.683 28.697 135.925 29.2614C136.172 29.8258 136.516 30.2538 136.959 30.5455C137.403 30.8371 137.922 30.983 138.516 30.983C139.111 30.983 139.63 30.8371 140.073 30.5455C140.516 30.2538 140.859 29.8258 141.101 29.2614C141.348 28.697 141.471 28.0038 141.471 27.1818ZM145.788 33V21.3636H148.248V30.9716H153.236V33H145.788ZM152.969 23.392V21.3636H162.526V23.392H158.964V33H156.532V23.392H152.969ZM164.1 33V21.3636H171.941V23.392H166.56V26.1648H171.538V28.1932H166.56V30.9716H171.964V33H164.1ZM173.897 33V21.3636H178.488C179.367 21.3636 180.117 21.5208 180.738 21.8352C181.363 22.1458 181.838 22.5871 182.164 23.1591C182.494 23.7273 182.658 24.3958 182.658 25.1648C182.658 25.9375 182.492 26.6023 182.158 27.1591C181.825 27.7121 181.342 28.1364 180.709 28.4318C180.081 28.7273 179.319 28.875 178.425 28.875H175.351V26.8977H178.028C178.497 26.8977 178.887 26.8333 179.198 26.7045C179.509 26.5758 179.74 26.3826 179.891 26.125C180.047 25.8674 180.124 25.5473 180.124 25.1648C180.124 24.7784 180.047 24.4527 179.891 24.1875C179.74 23.9223 179.507 23.7216 179.192 23.5852C178.882 23.4451 178.49 23.375 178.016 23.375H176.357V33H173.897ZM180.181 27.7045L183.073 33H180.357L177.528 27.7045H180.181Z" fill="white"/>
<path fill-rule="evenodd" clip-rule="evenodd" d="M57.705 24.8803L58.1201 24.3566L58.287 25.2342L57.705 24.8803ZM56.6302 24.6001L57.0453 24.0764L57.2134 24.9606L56.6302 24.6001ZM57.2134 24.9606L57.621 24.4382L57.7878 25.3158L57.2134 24.9606ZM57.5369 23.996L58.1201 24.3566L57.1293 24.5185L57.5369 23.996Z" fill="white"/>
<path d="M9.83362 33.9449C9.07106 34.0699 8.34603 33.6204 8.2176 32.943C8.08916 32.2656 8.60517 31.6128 9.36773 31.4878L20.6417 29.6402L22.4844 27.9345C23.0293 27.4343 23.9117 27.4129 24.4561 27.8852C24.5372 27.9472 24.5972 28.0196 24.6584 28.0986L24.6571 28.0919L27.3827 31.8153L28.6948 19.3024C28.7646 18.6131 29.4466 18.1042 30.2108 18.1501C30.8129 18.1952 31.2922 18.5686 31.439 19.0581L36.7921 33.2244L37.9054 23.6474C37.9839 22.9635 38.6734 22.4534 39.4413 22.5192C39.8402 22.5497 40.1908 22.7319 40.4182 22.996L42.9129 25.9081L57.5499 24.194C58.3124 24.0691 58.9041 23.8557 59.0325 24.5331C59.1609 25.2105 58.6524 25.8621 57.8899 25.9871L42.5414 28.5025L42.5402 28.4958C42.0393 28.5779 41.5155 28.4173 41.1882 28.0327L40.3175 27.0182L38.8974 39.1653C38.8472 39.6323 38.4891 40.0607 37.951 40.2311C37.2222 40.4532 36.4251 40.1114 36.1871 39.4657L30.8628 25.3699L29.7992 35.5345C29.7812 35.9278 29.5601 36.3064 29.1579 36.5435C28.513 36.923 27.644 36.771 27.2266 36.1958L23.2539 30.7733L22.4016 31.5634C22.1989 31.7952 21.9001 31.9674 21.5487 32.025L9.83362 33.9449Z" fill="white"/>
<path d="M54.3893 22.3025C54.9795 17.4546 53.5923 13.3713 51.1637 10.4709C49.7826 8.83456 48.0754 7.57076 46.2174 6.75967C44.3793 5.95436 42.3689 5.58714 40.3903 5.74242C36.5903 6.03602 32.8102 8.24639 30.2061 12.9097C29.7533 13.7128 29.7256 14.6001 28.8901 14.1654C28.7747 14.1026 27.6555 13.4329 27.5642 13.3479C23.4221 9.80357 19.0573 8.94418 15.3888 9.88935C13.464 10.3815 11.7173 11.3719 10.2736 12.7215C8.82248 14.0815 7.67758 15.8184 6.98363 17.7989C5.74236 21.3354 5.92955 25.654 8.30027 30.0564L4.78085 30.6401C2.39152 25.6858 2.29543 20.7969 3.73661 16.7178C4.60217 14.2446 6.04161 12.0676 7.88613 10.3421C9.72899 8.60777 11.9894 7.34107 14.4802 6.70043C18.7146 5.60679 23.4223 6.46391 28.0665 9.77029C31.229 5.16904 35.7084 2.78809 40.0851 2.45343C42.6586 2.25407 45.2339 2.71868 47.6052 3.75403C49.9566 4.78358 52.1005 6.36623 53.822 8.41025C56.6357 11.7564 58.3141 16.3373 57.8996 21.7203L54.3893 22.3025ZM35.9422 50.8144C40.3036 46.3237 43.9689 42.3943 46.8673 38.5467C49.4288 35.1644 51.4301 31.8113 52.8302 28.1666L56.697 27.5253C55.1664 32.1834 52.8037 36.3244 49.6474 40.5061C46.4146 44.7823 42.3892 49.0535 37.5987 53.9703C37.0947 54.4998 36.2678 54.6643 35.5618 54.3173C29.2547 51.2412 23.9178 48.5138 19.3256 45.5355C14.8737 42.6522 11.1716 39.5444 8.05749 35.7021L11.9243 35.0608C14.5564 37.9911 17.6219 40.4674 21.2167 42.8012C25.348 45.4829 30.2207 47.9961 35.9422 50.8144Z" fill="white"/>
</svg>
