<svg width="278" height="83" viewBox="0 0 278 83" fill="none" xmlns="http://www.w3.org/2000/svg">
<path fill-rule="evenodd" clip-rule="evenodd" d="M75.5523 33.8499L76.1516 33.1196L76.2969 34.2514L75.5523 33.8499ZM74.144 33.5975L74.7434 32.8673L74.8897 34.0076L74.144 33.5975ZM74.8897 34.0076L75.4791 33.2797L75.6244 34.4115L74.8897 34.0076ZM75.4059 32.7096L76.1516 33.1196L74.8166 33.4374L75.4059 32.7096Z" fill="#C1121F"/>
<path d="M12.5524 49.0971C11.5409 49.334 10.6282 48.8408 10.518 47.9978C10.4078 47.1548 11.1412 46.2761 12.1527 46.0392L27.1073 42.537L29.6724 40.1901C30.4307 39.5014 31.5906 39.3831 32.2643 39.9238C32.3654 39.9938 32.4379 40.0791 32.5114 40.1726L32.5103 40.1643L35.7665 44.589L38.5664 28.6355C38.7172 27.7569 39.6562 27.043 40.655 27.022C41.4413 27.0167 42.0382 27.4391 42.1887 28.0427L47.9935 45.3967L50.2796 33.175C50.4415 32.3024 51.3903 31.5861 52.3924 31.5899C52.9133 31.5872 53.3577 31.7812 53.6333 32.0915L56.6564 35.5146L76.013 31.8333C77.0245 31.5964 77.8193 31.2654 77.9295 32.1084C78.0397 32.9514 77.3162 33.8278 76.3047 34.0647L55.9454 38.8327L55.9443 38.8244C55.2799 38.98 54.6063 38.8311 54.2099 38.3788L53.1547 37.1865L50.2447 52.6888C50.1386 53.2843 49.6317 53.863 48.9108 54.1341C47.9353 54.4903 46.9187 54.1406 46.6619 53.349L40.8888 36.0812L38.6173 49.0406C38.5599 49.5395 38.2371 50.041 37.6889 50.3823C36.8099 50.9289 35.6825 50.8267 35.1843 50.1427L30.4377 43.699L29.2512 44.7861C28.9652 45.1001 28.5582 45.3487 28.0921 45.4579L12.5524 49.0971Z" fill="#C1121F"/>
<path d="M72.1345 29.7257C73.2432 23.2199 71.6876 17.89 68.6761 14.2187C66.9625 12.1482 64.7929 10.6 62.3933 9.66696C60.0197 8.74001 57.3886 8.41041 54.7642 8.77438C49.7241 9.46727 44.5801 12.7123 40.8233 19.132C40.1707 20.2379 40.0738 21.4222 38.9996 20.9094C38.8513 20.8349 37.4183 20.0315 37.3034 19.9256C32.0717 15.5323 26.3637 14.734 21.4531 16.2845C18.8768 17.093 16.5021 18.5512 14.5033 20.464C12.4939 22.3911 10.8634 24.796 9.81225 27.4898C7.93241 32.2998 7.88661 38.0387 10.7198 43.7157L6.03068 44.7729C3.21035 38.3619 3.41519 31.8562 5.59597 26.3071C6.90731 22.9435 8.95671 19.9288 11.5106 17.4834C14.0629 15.0265 17.1351 13.1594 20.4692 12.1081C26.1376 10.3148 32.2987 11.0829 38.2098 15.1192C42.7 8.73791 48.7794 5.21011 54.5841 4.41673C57.9975 3.94678 61.3683 4.36128 64.4308 5.55238C67.4673 6.73734 70.1923 8.67564 72.3278 11.2622C75.8179 15.4967 77.7244 21.4666 76.8114 28.6712L72.1345 29.7257ZM45.8289 69.1765C51.8955 62.8473 57.0045 57.3212 61.0947 51.9648C64.7082 47.2552 67.5798 42.629 69.6767 37.6621L74.8287 36.5006C72.4905 42.8282 69.088 48.5328 64.6345 54.3546C60.0734 60.3085 54.4655 66.3186 47.8031 73.2496C47.1013 73.995 45.9977 74.2798 45.0887 73.8735C36.9651 70.2761 30.0996 67.0662 24.2349 63.4628C18.5492 59.9749 13.8692 56.1285 10.0159 51.2567L15.1679 50.0952C18.4463 53.7902 22.3281 56.846 26.9189 59.6699C32.1948 62.9146 38.4615 65.8761 45.8289 69.1765Z" fill="#284B63"/>
<path d="M101.279 31.5653C101.211 30.8778 100.918 30.3437 100.401 29.9631C99.8839 29.5824 99.1822 29.392 98.2958 29.392C97.6935 29.392 97.185 29.4773 96.7702 29.6477C96.3555 29.8125 96.0373 30.0426 95.8157 30.3381C95.5998 30.6335 95.4918 30.9688 95.4918 31.3438C95.4805 31.6562 95.5458 31.929 95.6879 32.1619C95.8356 32.3949 96.0373 32.5966 96.293 32.767C96.5487 32.9318 96.8441 33.0767 97.1793 33.2017C97.5146 33.321 97.8725 33.4233 98.2532 33.5085L99.8214 33.8835C100.583 34.054 101.282 34.2812 101.918 34.5653C102.554 34.8494 103.105 35.1989 103.571 35.6136C104.037 36.0284 104.398 36.517 104.654 37.0795C104.915 37.642 105.049 38.2869 105.054 39.0142C105.049 40.0824 104.776 41.0085 104.236 41.7926C103.702 42.571 102.929 43.1761 101.918 43.608C100.912 44.0341 99.6992 44.2472 98.2788 44.2472C96.8697 44.2472 95.6424 44.0312 94.5969 43.5994C93.5572 43.1676 92.7447 42.5284 92.1594 41.6818C91.5799 40.8295 91.2759 39.7756 91.2475 38.5199H94.8185C94.8583 39.1051 95.0259 39.5937 95.3214 39.9858C95.6225 40.3722 96.0231 40.6648 96.5231 40.8636C97.0288 41.0568 97.5998 41.1534 98.2362 41.1534C98.8612 41.1534 99.4038 41.0625 99.864 40.8807C100.33 40.6989 100.691 40.446 100.946 40.1222C101.202 39.7983 101.33 39.4261 101.33 39.0057C101.33 38.6136 101.213 38.2841 100.98 38.017C100.753 37.75 100.418 37.5227 99.9748 37.3352C99.5373 37.1477 99.0004 36.9773 98.364 36.8239L96.4634 36.3466C94.9918 35.9886 93.8299 35.429 92.9776 34.6676C92.1254 33.9062 91.7021 32.8807 91.7077 31.5909C91.7021 30.5341 91.9833 29.6108 92.5515 28.821C93.1254 28.0312 93.9123 27.4148 94.9123 26.9716C95.9123 26.5284 97.0487 26.3068 98.3214 26.3068C99.6168 26.3068 100.748 26.5284 101.713 26.9716C102.685 27.4148 103.441 28.0312 103.98 28.821C104.52 29.6108 104.799 30.5256 104.816 31.5653H101.279ZM107.537 44V26.5455H114.423C115.747 26.5455 116.875 26.7983 117.806 27.304C118.738 27.804 119.449 28.5 119.937 29.392C120.431 30.2784 120.679 31.3011 120.679 32.4602C120.679 33.6193 120.429 34.642 119.929 35.5284C119.429 36.4148 118.704 37.1051 117.755 37.5994C116.812 38.0937 115.67 38.3409 114.329 38.3409H109.94V35.3835H113.733C114.443 35.3835 115.028 35.2614 115.488 35.017C115.954 34.767 116.301 34.4233 116.528 33.9858C116.761 33.5426 116.877 33.0341 116.877 32.4602C116.877 31.8807 116.761 31.375 116.528 30.9432C116.301 30.5057 115.954 30.1676 115.488 29.929C115.022 29.6847 114.431 29.5625 113.716 29.5625H111.227V44H107.537ZM139.115 35.2727C139.115 37.1761 138.755 38.7955 138.033 40.1307C137.317 41.4659 136.34 42.4858 135.101 43.1903C133.868 43.8892 132.482 44.2386 130.942 44.2386C129.391 44.2386 127.999 43.8864 126.766 43.1818C125.533 42.4773 124.559 41.4574 123.843 40.1222C123.127 38.7869 122.769 37.1705 122.769 35.2727C122.769 33.3693 123.127 31.75 123.843 30.4148C124.559 29.0795 125.533 28.0625 126.766 27.3636C127.999 26.6591 129.391 26.3068 130.942 26.3068C132.482 26.3068 133.868 26.6591 135.101 27.3636C136.34 28.0625 137.317 29.0795 138.033 30.4148C138.755 31.75 139.115 33.3693 139.115 35.2727ZM135.374 35.2727C135.374 34.0398 135.189 33 134.82 32.1534C134.456 31.3068 133.942 30.6648 133.277 30.2273C132.613 29.7898 131.834 29.571 130.942 29.571C130.05 29.571 129.272 29.7898 128.607 30.2273C127.942 30.6648 127.425 31.3068 127.056 32.1534C126.692 33 126.51 34.0398 126.51 35.2727C126.51 36.5057 126.692 37.5455 127.056 38.392C127.425 39.2386 127.942 39.8807 128.607 40.3182C129.272 40.7557 130.05 40.9744 130.942 40.9744C131.834 40.9744 132.613 40.7557 133.277 40.3182C133.942 39.8807 134.456 39.2386 134.82 38.392C135.189 37.5455 135.374 36.5057 135.374 35.2727ZM141.849 44V26.5455H148.735C150.054 26.5455 151.179 26.7812 152.11 27.2528C153.048 27.7187 153.761 28.3807 154.25 29.2386C154.744 30.0909 154.991 31.0937 154.991 32.2472C154.991 33.4062 154.741 34.4034 154.241 35.2386C153.741 36.0682 153.017 36.7045 152.068 37.1477C151.125 37.5909 149.983 37.8125 148.642 37.8125H144.031V34.8466H148.045C148.75 34.8466 149.335 34.75 149.801 34.5568C150.267 34.3636 150.613 34.0739 150.841 33.6875C151.074 33.3011 151.19 32.821 151.19 32.2472C151.19 31.6676 151.074 31.179 150.841 30.7812C150.613 30.3835 150.264 30.0824 149.792 29.8778C149.326 29.6676 148.738 29.5625 148.028 29.5625H145.539V44H141.849ZM151.275 36.0568L155.613 44H151.539L147.295 36.0568H151.275ZM156.934 29.5881V26.5455H171.27V29.5881H165.926V44H162.278V29.5881H156.934ZM173.63 44V26.5455H177.321V33.7472H184.812V26.5455H188.494V44H184.812V36.7898H177.321V44H173.63ZM207.576 35.2727C207.576 37.1761 207.216 38.7955 206.494 40.1307C205.778 41.4659 204.801 42.4858 203.562 43.1903C202.329 43.8892 200.943 44.2386 199.403 44.2386C197.852 44.2386 196.46 43.8864 195.227 43.1818C193.994 42.4773 193.02 41.4574 192.304 40.1222C191.588 38.7869 191.23 37.1705 191.23 35.2727C191.23 33.3693 191.588 31.75 192.304 30.4148C193.02 29.0795 193.994 28.0625 195.227 27.3636C196.46 26.6591 197.852 26.3068 199.403 26.3068C200.943 26.3068 202.329 26.6591 203.562 27.3636C204.801 28.0625 205.778 29.0795 206.494 30.4148C207.216 31.75 207.576 33.3693 207.576 35.2727ZM203.835 35.2727C203.835 34.0398 203.65 33 203.281 32.1534C202.917 31.3068 202.403 30.6648 201.738 30.2273C201.074 29.7898 200.295 29.571 199.403 29.571C198.511 29.571 197.733 29.7898 197.068 30.2273C196.403 30.6648 195.886 31.3068 195.517 32.1534C195.153 33 194.971 34.0398 194.971 35.2727C194.971 36.5057 195.153 37.5455 195.517 38.392C195.886 39.2386 196.403 39.8807 197.068 40.3182C197.733 40.7557 198.511 40.9744 199.403 40.9744C200.295 40.9744 201.074 40.7557 201.738 40.3182C202.403 39.8807 202.917 39.2386 203.281 38.392C203.65 37.5455 203.835 36.5057 203.835 35.2727ZM210.31 44V26.5455H214V40.9574H221.483V44H210.31ZM221.083 29.5881V26.5455H235.418V29.5881H230.074V44H226.426V29.5881H221.083ZM237.779 44V26.5455H249.54V29.5881H241.469V33.7472H248.935V36.7898H241.469V40.9574H249.574V44H237.779ZM252.474 44V26.5455H259.36C260.679 26.5455 261.804 26.7812 262.735 27.2528C263.673 27.7187 264.386 28.3807 264.875 29.2386C265.369 30.0909 265.616 31.0937 265.616 32.2472C265.616 33.4062 265.366 34.4034 264.866 35.2386C264.366 36.0682 263.642 36.7045 262.693 37.1477C261.75 37.5909 260.608 37.8125 259.267 37.8125H254.656V34.8466H258.67C259.375 34.8466 259.96 34.75 260.426 34.5568C260.892 34.3636 261.238 34.0739 261.466 33.6875C261.699 33.3011 261.815 32.821 261.815 32.2472C261.815 31.6676 261.699 31.179 261.466 30.7812C261.238 30.3835 260.889 30.0824 260.417 29.8778C259.951 29.6676 259.363 29.5625 258.653 29.5625H256.164V44H252.474ZM261.9 36.0568L266.238 44H262.164L257.92 36.0568H261.9Z" fill="black"/>
</svg>
