<svg width="280" height="93" viewBox="0 0 280 93" fill="none" xmlns="http://www.w3.org/2000/svg">
<path d="M106.435 37.2947C106.372 36.6645 106.104 36.1749 105.63 35.8259C105.156 35.477 104.513 35.3025 103.7 35.3025C103.148 35.3025 102.682 35.3806 102.302 35.5369C101.922 35.6879 101.63 35.8988 101.427 36.1697C101.229 36.4405 101.13 36.7478 101.13 37.0916C101.12 37.378 101.18 37.628 101.31 37.8416C101.445 38.0551 101.63 38.24 101.865 38.3962C102.099 38.5473 102.37 38.6801 102.677 38.7947C102.984 38.9041 103.312 38.9978 103.661 39.0759L105.099 39.4197C105.797 39.5759 106.437 39.7843 107.021 40.0447C107.604 40.3051 108.109 40.6254 108.536 41.0056C108.963 41.3858 109.294 41.8337 109.529 42.3494C109.768 42.865 109.891 43.4561 109.896 44.1228C109.891 45.102 109.641 45.9509 109.146 46.6697C108.656 47.3832 107.948 47.9379 107.021 48.3337C106.099 48.7244 104.987 48.9197 103.685 48.9197C102.393 48.9197 101.268 48.7218 100.31 48.3259C99.3567 47.9301 98.6119 47.3442 98.0754 46.5681C97.5442 45.7869 97.2655 44.8207 97.2395 43.6697H100.513C100.549 44.2061 100.703 44.6541 100.974 45.0134C101.25 45.3676 101.617 45.6358 102.075 45.8181C102.539 45.9952 103.062 46.0837 103.646 46.0837C104.219 46.0837 104.716 46.0004 105.138 45.8337C105.565 45.6671 105.896 45.4353 106.13 45.1384C106.365 44.8416 106.482 44.5004 106.482 44.115C106.482 43.7556 106.375 43.4535 106.161 43.2087C105.953 42.9639 105.646 42.7556 105.24 42.5837C104.838 42.4119 104.346 42.2556 103.763 42.115L102.021 41.6775C100.672 41.3494 99.6067 40.8363 98.8254 40.1384C98.0442 39.4405 97.6562 38.5004 97.6614 37.3181C97.6562 36.3494 97.914 35.503 98.4348 34.7791C98.9609 34.0551 99.6822 33.49 100.599 33.0837C101.516 32.6775 102.557 32.4744 103.724 32.4744C104.911 32.4744 105.948 32.6775 106.833 33.0837C107.724 33.49 108.417 34.0551 108.911 34.7791C109.406 35.503 109.661 36.3416 109.677 37.2947H106.435ZM112.171 48.6931V32.6931H118.484C119.697 32.6931 120.731 32.9249 121.585 33.3884C122.439 33.8468 123.09 34.4848 123.538 35.3025C123.991 36.115 124.218 37.0525 124.218 38.115C124.218 39.1775 123.989 40.115 123.531 40.9275C123.072 41.74 122.408 42.3728 121.538 42.8259C120.674 43.2791 119.627 43.5056 118.398 43.5056H114.374V40.7947H117.851C118.502 40.7947 119.038 40.6827 119.46 40.4587C119.887 40.2296 120.205 39.9145 120.413 39.5134C120.627 39.1072 120.734 38.641 120.734 38.115C120.734 37.5837 120.627 37.1202 120.413 36.7244C120.205 36.3233 119.887 36.0134 119.46 35.7947C119.033 35.5707 118.491 35.4587 117.835 35.4587H115.554V48.6931H112.171ZM141.118 40.6931C141.118 42.4379 140.788 43.9223 140.126 45.1462C139.47 46.3702 138.574 47.3051 137.439 47.9509C136.309 48.5916 135.038 48.9119 133.626 48.9119C132.204 48.9119 130.928 48.5889 129.798 47.9431C128.668 47.2973 127.775 46.3624 127.118 45.1384C126.462 43.9145 126.134 42.4327 126.134 40.6931C126.134 38.9483 126.462 37.4639 127.118 36.24C127.775 35.016 128.668 34.0837 129.798 33.4431C130.928 32.7973 132.204 32.4744 133.626 32.4744C135.038 32.4744 136.309 32.7973 137.439 33.4431C138.574 34.0837 139.47 35.016 140.126 36.24C140.788 37.4639 141.118 38.9483 141.118 40.6931ZM137.689 40.6931C137.689 39.5629 137.519 38.6098 137.181 37.8337C136.848 37.0577 136.376 36.4692 135.767 36.0681C135.157 35.6671 134.444 35.4666 133.626 35.4666C132.809 35.4666 132.095 35.6671 131.486 36.0681C130.876 36.4692 130.402 37.0577 130.064 37.8337C129.73 38.6098 129.564 39.5629 129.564 40.6931C129.564 41.8233 129.73 42.7764 130.064 43.5525C130.402 44.3285 130.876 44.9171 131.486 45.3181C132.095 45.7192 132.809 45.9197 133.626 45.9197C134.444 45.9197 135.157 45.7192 135.767 45.3181C136.376 44.9171 136.848 44.3285 137.181 43.5525C137.519 42.7764 137.689 41.8233 137.689 40.6931ZM143.624 48.6931V32.6931H149.937C151.145 32.6931 152.176 32.9093 153.031 33.3416C153.89 33.7686 154.544 34.3754 154.991 35.1619C155.445 35.9431 155.671 36.8624 155.671 37.9197C155.671 38.9822 155.442 39.8962 154.984 40.6619C154.525 41.4223 153.861 42.0056 152.991 42.4119C152.127 42.8181 151.08 43.0212 149.851 43.0212H145.624V40.3025H149.304C149.95 40.3025 150.486 40.2139 150.913 40.0369C151.34 39.8598 151.658 39.5942 151.866 39.24C152.08 38.8858 152.187 38.4457 152.187 37.9197C152.187 37.3884 152.08 36.9405 151.866 36.5759C151.658 36.2113 151.338 35.9353 150.906 35.7478C150.478 35.5551 149.939 35.4587 149.288 35.4587H147.007V48.6931H143.624ZM152.265 41.4119L156.241 48.6931H152.507L148.616 41.4119H152.265ZM157.452 35.4822V32.6931H170.593V35.4822H165.695V48.6931H162.351V35.4822H157.452ZM172.757 48.6931V32.6931H176.14V39.2947H183.007V32.6931H186.382V48.6931H183.007V42.0837H176.14V48.6931H172.757ZM203.874 40.6931C203.874 42.4379 203.544 43.9223 202.882 45.1462C202.226 46.3702 201.33 47.3051 200.195 47.9509C199.064 48.5916 197.794 48.9119 196.382 48.9119C194.96 48.9119 193.684 48.5889 192.554 47.9431C191.424 47.2973 190.531 46.3624 189.874 45.1384C189.218 43.9145 188.89 42.4327 188.89 40.6931C188.89 38.9483 189.218 37.4639 189.874 36.24C190.531 35.016 191.424 34.0837 192.554 33.4431C193.684 32.7973 194.96 32.4744 196.382 32.4744C197.794 32.4744 199.064 32.7973 200.195 33.4431C201.33 34.0837 202.226 35.016 202.882 36.24C203.544 37.4639 203.874 38.9483 203.874 40.6931ZM200.445 40.6931C200.445 39.5629 200.275 38.6098 199.937 37.8337C199.603 37.0577 199.132 36.4692 198.523 36.0681C197.913 35.6671 197.2 35.4666 196.382 35.4666C195.564 35.4666 194.851 35.6671 194.241 36.0681C193.632 36.4692 193.158 37.0577 192.82 37.8337C192.486 38.6098 192.32 39.5629 192.32 40.6931C192.32 41.8233 192.486 42.7764 192.82 43.5525C193.158 44.3285 193.632 44.9171 194.241 45.3181C194.851 45.7192 195.564 45.9197 196.382 45.9197C197.2 45.9197 197.913 45.7192 198.523 45.3181C199.132 44.9171 199.603 44.3285 199.937 43.5525C200.275 42.7764 200.445 41.8233 200.445 40.6931ZM206.38 48.6931V32.6931H209.763V45.9041H216.622V48.6931H206.38ZM216.255 35.4822V32.6931H229.396V35.4822H224.497V48.6931H221.154V35.4822H216.255ZM231.56 48.6931V32.6931H242.341V35.4822H234.943V39.2947H241.786V42.0837H234.943V45.9041H242.372V48.6931H231.56ZM245.031 48.6931V32.6931H251.343C252.551 32.6931 253.583 32.9093 254.437 33.3416C255.296 33.7686 255.95 34.3754 256.398 35.1619C256.851 35.9431 257.077 36.8624 257.077 37.9197C257.077 38.9822 256.848 39.8962 256.39 40.6619C255.932 41.4223 255.267 42.0056 254.398 42.4119C253.533 42.8181 252.486 43.0212 251.257 43.0212H247.031V40.3025H250.71C251.356 40.3025 251.892 40.2139 252.32 40.0369C252.747 39.8598 253.064 39.5942 253.273 39.24C253.486 38.8858 253.593 38.4457 253.593 37.9197C253.593 37.3884 253.486 36.9405 253.273 36.5759C253.064 36.2113 252.744 35.9353 252.312 35.7478C251.885 35.5551 251.346 35.4587 250.695 35.4587H248.413V48.6931H245.031ZM253.671 41.4119L257.648 48.6931H253.913L250.023 41.4119H253.671Z" fill="black"/>
<path fill-rule="evenodd" clip-rule="evenodd" d="M87.0942 38.9532L87.7325 38.1332L87.9726 39.4952L87.0942 38.9532ZM85.4662 38.5328L86.1044 37.7128L86.3464 39.0851L85.4662 38.5328ZM86.3464 39.0851L86.9733 38.2671L87.2134 39.6291L86.3464 39.0851ZM86.8523 37.5809L87.7325 38.1332L86.2254 38.3989L86.8523 37.5809Z" fill="#C1121F"/>
<path d="M14.6778 53.3905C13.522 53.5943 12.4316 52.9102 12.2474 51.8656C12.0632 50.8211 12.8539 49.8052 14.0096 49.6014L31.0973 46.5884L33.9112 43.9276C34.7434 43.1473 36.079 43.1019 36.8956 43.8238C37.0174 43.9184 37.1071 44.0293 37.1985 44.1505L37.1967 44.1402L41.2652 49.8534L43.4385 30.5059C43.5544 29.4401 44.5941 28.6443 45.7497 28.7045C46.6601 28.7657 47.3799 29.3357 47.5946 30.0898L55.4824 51.8975L57.3109 37.0879C57.4399 36.0304 58.4909 35.2326 59.652 35.3235C60.2551 35.365 60.7829 35.6415 61.123 36.0462L64.8543 40.5094L87.0289 37.6554C88.1847 37.4516 89.0832 37.1136 89.2674 38.1582C89.4516 39.2028 88.6723 40.2166 87.5165 40.4204L64.2533 44.5223L64.2515 44.5121C63.4923 44.6459 62.7021 44.4052 62.2126 43.8157L60.9102 42.2608L58.5792 61.0448C58.4962 61.7669 57.9478 62.4338 57.131 62.7046C56.0249 63.058 54.8239 62.5412 54.4733 61.5471L46.628 39.848L44.866 55.5646C44.833 56.1723 44.4927 56.7602 43.8806 57.1321C42.899 57.7276 41.5863 57.505 40.9633 56.6223L35.033 48.3019L33.7315 49.5346C33.4213 49.8955 32.9665 50.1657 32.4339 50.2596L14.6778 53.3905Z" fill="#C1121F"/>
<path d="M82.291 34.7729C83.2306 27.2093 81.1666 20.8555 77.5137 16.355C75.4362 13.816 72.8611 11.8607 70.0533 10.6126C67.2756 9.37333 64.2326 8.8186 61.2332 9.07821C55.4724 9.56961 49.7239 13.0492 45.7344 20.3429C45.0409 21.5989 44.9906 22.9825 43.7286 22.3122C43.5543 22.2154 41.8648 21.1811 41.7272 21.0494C35.4837 15.5602 28.8779 14.2589 23.3103 15.765C20.3891 16.5494 17.7333 18.109 15.5331 20.226C13.3215 22.3591 11.5705 25.0772 10.5005 28.1712C8.58664 33.6958 8.83 40.4273 12.3812 47.27L7.04292 48.2113C3.46863 40.5081 3.36862 32.8868 5.59043 26.5143C6.92506 22.6508 9.12651 19.2439 11.9376 16.5374C14.7462 13.8171 18.1831 11.8221 21.9633 10.8013C28.3899 9.05868 35.5152 10.3533 42.5217 15.4671C47.3566 8.26538 54.1663 4.5136 60.8013 3.95309C64.7027 3.61947 68.6008 4.32103 72.1843 5.91424C75.7376 7.49859 78.9715 9.94708 81.5609 13.1186C85.7933 18.3106 88.2938 25.4378 87.6155 33.8341L82.291 34.7729ZM54.0728 79.3889C60.7233 72.3488 66.314 66.1901 70.7417 60.1656C74.6545 54.8696 77.7184 49.6241 79.8739 43.9294L85.7391 42.8952C83.3763 50.1712 79.7576 56.6484 74.936 63.1959C69.9975 69.8915 63.858 76.5863 56.5533 84.2945C55.7846 85.1245 54.5301 85.3882 53.4637 84.8534C43.9354 80.1134 35.8739 75.9084 28.9433 71.3056C22.2244 66.8497 16.6435 62.0372 11.9607 56.0744L17.8259 55.0402C21.787 59.5855 26.4089 63.4191 31.8343 67.026C38.0694 71.1704 45.4293 75.0455 54.0728 79.3889Z" fill="#284B63"/>
</svg>
