<svg width="34" height="34" viewBox="0 0 34 34" fill="none" xmlns="http://www.w3.org/2000/svg">
<path d="M28.3335 5.66602H5.66683C4.91538 5.66602 4.19471 5.96453 3.66336 6.49588C3.13201 7.02723 2.8335 7.7479 2.8335 8.49935V25.4993C2.8335 26.2508 3.13201 26.9715 3.66336 27.5028C4.19471 28.0342 4.91538 28.3327 5.66683 28.3327H28.3335C29.0849 28.3327 29.8056 28.0342 30.337 27.5028C30.8683 26.9715 31.1668 26.2508 31.1668 25.4993V8.49935C31.1668 7.7479 30.8683 7.02723 30.337 6.49588C29.8056 5.96453 29.0849 5.66602 28.3335 5.66602ZM28.3335 12.3243L17.0002 19.8808L5.66683 12.3243V8.9201L17.0002 16.4752L28.3335 8.9201V12.3243Z" fill="#F4F5F7"/>
</svg>
