<svg width="259" height="168" viewBox="0 0 259 168" fill="none" xmlns="http://www.w3.org/2000/svg">
<g clip-path="url(#clip0_28_1449)">
<path opacity="0.1" d="M86.1068 167.906C98.72 167.906 108.945 166.402 108.945 164.547C108.945 162.691 98.72 161.188 86.1068 161.188C73.4937 161.188 63.2688 162.691 63.2688 164.547C63.2688 166.402 73.4937 167.906 86.1068 167.906Z" fill="#AA9FA3"/>
<path opacity="0.1" d="M210.251 168C225.99 168 238.75 166.496 238.75 164.641C238.75 162.786 225.99 161.282 210.251 161.282C194.512 161.282 181.753 162.786 181.753 164.641C181.753 166.496 194.512 168 210.251 168Z" fill="#AA9FA3"/>
<path opacity="0.1" d="M3.24386 72.5881H27.0312V102.278H4.98531C4.92671 102.583 4.87046 102.89 4.80952 103.197H27.0312V127.141C26.9913 127.13 26.9562 127.117 26.9186 127.104C26.2905 126.877 25.6671 126.636 25.0436 126.379L24.6452 126.214C24.0201 125.943 23.3951 125.657 22.7701 125.355C22.5521 125.25 22.3342 125.14 22.1185 125.029C18.6487 123.249 15.4966 120.994 12.7714 118.341C12.6917 118.27 12.6167 118.195 12.5371 118.126C12.1574 117.749 11.7847 117.367 11.4237 116.976L11.0253 116.547C10.5987 116.068 10.1862 115.577 9.78542 115.079C9.72683 115.006 9.67058 114.933 9.60964 114.864C7.97963 112.794 6.62621 110.553 5.57829 108.189C5.54548 108.118 5.51735 108.041 5.48688 107.974C5.165 107.216 4.87984 106.45 4.63139 105.678C4.52358 105.354 4.42045 105.034 4.33139 104.697C4.29857 104.598 4.27045 104.502 4.24466 104.405C2.91338 99.6466 2.75635 94.7037 2.75635 89.7951C2.75635 89.222 2.75635 88.6468 2.75635 88.078C2.75635 86.0927 2.78213 84.0945 2.81963 82.0984C2.81963 81.5812 2.84307 81.066 2.85479 80.5466C2.8876 79.2288 2.93448 77.911 2.99542 76.5931C3.00948 76.2261 3.02823 75.8613 3.04932 75.4964C3.04932 75.286 3.06104 75.0757 3.08448 74.8654C3.14073 74.1013 3.18761 73.3436 3.24386 72.5881Z" fill="#AA9FA3"/>
<path opacity="0.1" d="M27.0311 39.5307H13.9832C16.1042 36.4907 18.4216 33.5693 20.9232 30.7824C22.8615 28.6017 24.9076 26.4769 27.0311 24.4293V39.5307Z" fill="#AA9FA3"/>
<path opacity="0.1" d="M27.0311 40.4493V71.6695H3.31885C3.31885 71.5794 3.33525 71.4871 3.34229 71.3969C3.36338 71.1501 3.38447 70.9033 3.40791 70.6586C3.43369 70.371 3.46182 70.0812 3.49229 69.8001C3.52276 69.5189 3.55557 69.1755 3.59073 68.8643C3.62589 68.5531 3.6587 68.2376 3.69854 67.9264C3.73839 67.6151 3.77355 67.3039 3.81573 66.9949C3.85792 66.6858 3.89542 66.3724 3.93996 66.0634C3.97511 65.8058 4.01261 65.5504 4.05011 65.2928C4.10402 64.9301 4.16027 64.5652 4.22121 64.2047C4.22121 64.151 4.23762 64.0952 4.24699 64.0437C4.67478 61.4041 5.25767 58.7875 5.99313 56.2054C6.76297 53.4967 7.74604 50.8427 8.93461 48.264C10.1978 45.5665 11.6769 42.9581 13.3597 40.4601L27.0311 40.4493Z" fill="#AA9FA3"/>
<path opacity="0.1" d="M32.7102 72.5861V102.278H83.5169V72.5861H32.7102ZM32.7102 103.195V128.693C33.0008 128.748 33.2891 128.802 33.5751 128.847C33.9641 128.916 34.3509 128.978 34.747 129.032C34.822 129.043 34.8993 129.053 34.9814 129.06C35.136 129.083 35.2954 129.103 35.4501 129.122C35.8415 129.171 36.2306 129.212 36.622 129.244C36.8072 129.261 36.9947 129.276 37.1822 129.289L37.6345 129.322C37.8806 129.339 38.1244 129.352 38.3658 129.358C38.5158 129.358 38.6658 129.371 38.8205 129.375C38.9377 129.375 39.0549 129.375 39.1768 129.375C39.2986 129.375 39.4721 129.375 39.6197 129.375C39.8213 129.375 40.0229 129.375 40.2221 129.375H40.4916C40.6932 129.375 40.8948 129.375 41.094 129.358H41.1081C41.2463 129.358 41.387 129.358 41.5276 129.341C41.5666 129.343 41.6058 129.343 41.6448 129.341C41.762 129.341 41.8792 129.341 41.9917 129.326H42.0737L42.8589 129.27C43.1167 129.249 43.3769 129.221 43.6394 129.195L44.1738 129.137C46.3478 128.858 48.4977 128.439 50.6075 127.884C55.3467 126.673 59.9827 124.98 64.7196 123.739C70.8439 122.14 77.6105 121.354 83.5286 123.31V103.195H32.7102ZM83.5169 39.5308V0.00228933C77.9544 -0.0528973 72.4071 0.542875 67.0095 1.77514C54.1443 4.7349 42.6011 11.1545 32.7102 19.3534V39.5287H35.2603V40.4452H32.7102V71.6696H83.5169V40.4473H45.7301V39.5308H83.5169ZM148.775 26.1786C145.593 26.0756 142.428 25.1527 139.567 23.7276C134.094 21.0018 129.723 16.7928 124.838 13.2407C114.69 5.84239 102.103 1.37807 89.1912 0.270578V39.5308H161.72L161.901 39.357L148.775 26.1786ZM155.383 25.1055L162.388 32.1454V23.2597C160.042 23.5258 157.987 24.159 155.392 25.0969L155.383 25.1055ZM162.388 135.024V103.195H147.461C147.421 103.059 147.381 102.922 147.334 102.785C147.379 102.922 147.416 103.059 147.458 103.195H89.2006V126.214C89.7538 126.589 90.2999 126.984 90.8413 127.386C91.4249 127.815 92.0015 128.268 92.5804 128.712L93.164 129.154C93.4429 129.369 93.7242 129.583 94.0078 129.785C94.5703 130.203 95.1383 130.615 95.7117 131.021C95.9953 131.236 96.2859 131.429 96.5742 131.631C101.151 134.835 105.979 137.727 111.019 140.283C112.149 140.855 113.289 141.414 114.439 141.959C115.205 142.317 115.976 142.674 116.75 143.019C117.912 143.539 119.084 144.04 120.265 144.522C131.156 148.999 142.672 152.071 154.485 153.65C157.109 154.005 159.742 154.284 162.386 154.487V135.022H162.62L162.388 135.024ZM89.2006 40.4473V71.6696H162.398V40.4473H89.2006ZM89.2006 72.5861V102.278H162.398V72.5861H89.2006ZM168.079 23.221V33.1327L177.021 24.1482C174.058 23.7104 171.078 23.3978 168.079 23.2103V23.221ZM168.079 72.5968V102.278H239.272V72.5861L168.079 72.5968ZM239.012 137.381L239.263 103.195H168.079V154.828C172.665 155.005 177.257 154.955 181.837 154.678H181.917C184.104 154.552 186.282 154.369 188.449 154.129H188.498C200.06 152.896 211.366 150.134 222.062 145.928M253 77.4754C252.733 76.898 252.454 76.325 252.17 75.7583C251.64 74.6852 251.08 73.6421 250.504 72.599H244.949V102.278H258.993C258.986 93.8732 256.663 85.2879 253.007 77.4646L253 77.4754ZM244.949 103.205V132.61C248.905 129.137 252.248 125.164 254.655 120.623C257.549 115.154 258.873 109.232 258.981 103.201L244.949 103.205ZM244.949 63.9451V71.6718H249.983C248.46 69.0119 246.782 66.429 244.956 63.9343L244.949 63.9451ZM196.666 29.0461C196.296 28.9173 195.926 28.7864 195.553 28.6598C191.623 27.3306 187.606 26.2253 183.527 25.3502L169.844 39.1016L169.581 39.357L169.757 39.533H218.457C211.674 35.2576 204.362 31.7338 196.674 29.0354L196.666 29.0461ZM219.884 40.458H169.078L168.079 41.2951V71.6696H176.831H176.845H239.282V56.9567C233.634 50.7014 227.115 45.1511 219.891 40.4473L219.884 40.458Z" fill="#AA9FA3"/>
<path opacity="0.1" d="M27.0311 56.1968V71.6695H3.31885C3.31885 71.5794 3.33525 71.4871 3.34229 71.3969C3.36338 71.1501 3.38447 70.9033 3.40791 70.6586C3.43369 70.371 3.46182 70.0812 3.49229 69.8001C3.52276 69.5189 3.55557 69.1755 3.59073 68.8643C3.62589 68.5531 3.6587 68.2376 3.69854 67.9263C3.73839 67.6151 3.77355 67.3039 3.81573 66.9948C3.85792 66.6858 3.89542 66.3724 3.93996 66.0633C3.97511 65.8058 4.01261 65.5504 4.05011 65.2928C4.10402 64.9301 4.16027 64.5652 4.22121 64.2046C4.22121 64.151 4.23762 64.0952 4.24699 64.0437C4.67478 61.4041 5.25767 58.7875 5.99313 56.2054L27.0311 56.1968Z" fill="#AA9FA3"/>
<path opacity="0.1" d="M3.24386 72.5881H27.0312V102.278H4.98531C4.92671 102.583 4.87046 102.89 4.80952 103.197H27.0312V127.141C26.9913 127.13 26.9562 127.117 26.9186 127.104C26.2905 126.877 25.6671 126.636 25.0436 126.379L24.6452 126.214C24.0201 125.943 23.3951 125.657 22.7701 125.355C22.5521 125.25 22.3342 125.14 22.1185 125.029C18.6487 123.249 15.4966 120.994 12.7714 118.341C12.6917 118.27 12.6167 118.195 12.5371 118.126C12.1574 117.749 11.7847 117.367 11.4237 116.976L11.0253 116.547C10.5987 116.068 10.1862 115.577 9.78542 115.079C9.72683 115.006 9.67058 114.933 9.60964 114.864C7.97963 112.794 6.62621 110.553 5.57829 108.189C5.54548 108.118 5.51735 108.041 5.48688 107.974C5.165 107.216 4.87984 106.45 4.63139 105.678C4.52358 105.354 4.42045 105.034 4.33139 104.697C4.29857 104.598 4.27045 104.502 4.24466 104.405C2.91338 99.6466 2.75635 94.7037 2.75635 89.7951C2.75635 89.222 2.75635 88.6468 2.75635 88.078C2.75635 86.0927 2.78213 84.0945 2.81963 82.0984C2.81963 81.5812 2.84307 81.066 2.85479 80.5466C2.8876 79.2288 2.93448 77.911 2.99542 76.5931C3.00948 76.2261 3.02823 75.8613 3.04932 75.4964C3.04932 75.286 3.06104 75.0757 3.08448 74.8654C3.14073 74.1013 3.18761 73.3436 3.24386 72.5881Z" fill="#AA9FA3"/>
<path opacity="0.1" d="M50.5958 44.9179V71.6695H32.7102V44.9179H35.2603V35.8605H45.7277V44.9179H50.5958Z" fill="#AA9FA3"/>
<path opacity="0.1" d="M50.5956 72.5859H32.7124V102.276H50.5956V72.5859Z" fill="#AA9FA3"/>
<path opacity="0.1" d="M32.7102 103.197H50.5958V127.879C48.486 128.434 46.3361 128.852 44.162 129.13L43.6277 129.19C43.3651 129.218 43.105 129.242 42.8472 129.266C42.5893 129.289 42.3222 129.306 42.062 129.321H41.98C41.8675 129.321 41.7456 129.334 41.6354 129.336H41.5159C41.3753 129.336 41.2346 129.349 41.094 129.354C40.8948 129.364 40.6956 129.366 40.4916 129.369C40.4049 129.369 40.3229 129.369 40.2362 129.369C40.0346 129.369 39.8354 129.369 39.6338 129.369H39.1908C39.0713 129.369 38.9564 129.369 38.8322 129.369L38.3799 129.354C38.1455 129.354 37.8924 129.33 37.6486 129.315L37.1986 129.285L36.6384 129.238C36.2447 129.205 35.8532 129.165 35.4665 129.115L34.9978 129.055L34.7634 129.025C34.372 128.969 33.9852 128.909 33.5915 128.841C33.3032 128.796 33.0172 128.74 32.7266 128.686L32.7102 103.197Z" fill="#AA9FA3"/>
<path opacity="0.1" d="M162.398 41.7585H147.65V71.6673H162.398V41.7585Z" fill="#AA9FA3"/>
<path opacity="0.1" d="M162.4 72.5859V102.278H89.2007V89.4709H128.19V97.0259H147.651V72.5859H162.4Z" fill="#AA9FA3"/>
<path opacity="0.1" d="M162.632 135.031H162.398V154.508C159.757 154.304 157.124 154.025 154.499 153.673C142.681 152.089 131.16 149.01 120.265 144.526C117.12 143.229 114.039 141.814 111.022 140.28C105.981 137.724 101.153 134.832 96.5743 131.629C95.4243 130.822 94.2891 129.996 93.1687 129.152C92.3929 128.566 91.6218 127.965 90.8413 127.381C90.2999 126.98 89.7538 126.585 89.2007 126.207V103.197H147.456C147.416 103.059 147.376 102.922 147.334 102.787C147.379 102.922 147.421 103.059 147.461 103.197H162.398V135.018C162.477 135.02 162.555 135.026 162.632 135.031Z" fill="#AA9FA3"/>
<path opacity="0.1" d="M200.86 39.5306H191.25V36.7962H195.558V28.651C195.931 28.7755 196.303 28.9036 196.674 29.0352V36.7962H200.86V39.5306Z" fill="#AA9FA3"/>
<path opacity="0.1" d="M224.012 71.6695H176.836C176.836 71.6695 176.836 71.6695 176.852 71.6803L176.831 71.6695H168.079V41.7607H170.559V63.8677H181.891V50.7752H191.252V40.4493H200.862V50.7838H210.223V63.8763H224.012V71.6695Z" fill="#AA9FA3"/>
<path opacity="0.1" d="M168.079 72.5859V102.278H224.012V72.5859H168.079ZM239.195 137.228L239.272 113.726H224.012V103.209H168.079V154.828C172.665 155.005 177.257 154.954 181.837 154.678H181.917C184.104 154.552 186.282 154.369 188.449 154.128H188.498C200.06 152.896 211.366 150.134 222.062 145.927" fill="#AA9FA3"/>
<path opacity="0.1" d="M245.943 103.197H258.991C258.876 109.226 257.554 115.147 254.662 120.616C252.255 125.16 248.91 129.133 244.958 132.603V113.716H245.943V103.197Z" fill="#AA9FA3"/>
<path opacity="0.1" d="M258.998 102.278H245.943V77.4645H253.007C256.663 85.2878 258.986 93.873 258.998 102.278Z" fill="#AA9FA3"/>
<path opacity="0.1" d="M162.4 50.0734H154.499V59.4506H162.4V50.0734Z" fill="#AA9FA3"/>
<path opacity="0.1" d="M162.4 69.5103H154.499V71.6694H162.4V69.5103Z" fill="#AA9FA3"/>
<path opacity="0.1" d="M162.4 72.5859H154.499V78.8853H162.4V72.5859Z" fill="#AA9FA3"/>
<path opacity="0.1" d="M162.4 88.9473H154.499V98.3245H162.4V88.9473Z" fill="#AA9FA3"/>
<path opacity="0.1" d="M162.4 108.384H154.499V117.761H162.4V108.384Z" fill="#AA9FA3"/>
<path opacity="0.1" d="M162.398 135.018C162.477 135.018 162.555 135.018 162.632 135.031H162.398V137.209H154.499V127.821H162.398V135.018Z" fill="#AA9FA3"/>
<path opacity="0.1" d="M162.398 147.254V154.498C159.757 154.293 157.124 154.015 154.499 153.663V147.254H162.398Z" fill="#AA9FA3"/>
<path opacity="0.1" d="M123.062 101.589H89.2007V102.278H123.062V101.589Z" fill="#AA9FA3"/>
<path opacity="0.1" d="M123.062 103.194H89.2007V105.834H123.062V103.194Z" fill="#AA9FA3"/>
<path opacity="0.1" d="M123.062 114.488H89.2007V118.734H123.062V114.488Z" fill="#AA9FA3"/>
<path opacity="0.1" d="M123.059 127.388V131.633H96.5742C95.4241 130.829 94.2882 130.003 93.1663 129.156C92.3905 128.57 91.6217 127.969 90.8389 127.388H123.059Z" fill="#AA9FA3"/>
<path opacity="0.1" d="M123.059 140.285V144.526H120.263C117.121 143.228 114.04 141.812 111.021 140.278L123.059 140.285Z" fill="#AA9FA3"/>
<path opacity="0.1" d="M188.505 75.4641H181.84V81.5682H188.505V75.4641Z" fill="#AA9FA3"/>
<path opacity="0.1" d="M44.1785 47.0234H37.5127V53.1275H44.1785V47.0234Z" fill="#AA9FA3"/>
<path opacity="0.1" d="M44.1785 61.2019H37.5127V67.306H44.1785V61.2019Z" fill="#AA9FA3"/>
<path opacity="0.1" d="M44.1785 75.3804H37.5127V81.4845H44.1785V75.3804Z" fill="#AA9FA3"/>
<path opacity="0.1" d="M44.1785 89.5568H37.5127V95.6609H44.1785V89.5568Z" fill="#AA9FA3"/>
<path opacity="0.1" d="M44.1785 103.735H37.5127V109.839H44.1785V103.735Z" fill="#AA9FA3"/>
<path opacity="0.1" d="M44.1785 117.914H37.5127V124.018H44.1785V117.914Z" fill="#AA9FA3"/>
<path opacity="0.1" d="M213.952 75.4641H207.286V81.5682H213.952V75.4641Z" fill="#AA9FA3"/>
<path opacity="0.1" d="M188.505 90.5205H181.84V96.6246H188.505V90.5205Z" fill="#AA9FA3"/>
<path opacity="0.1" d="M213.952 90.5205H207.286V96.6246H213.952V90.5205Z" fill="#AA9FA3"/>
<path opacity="0.1" d="M188.505 105.575H181.84V111.679H188.505V105.575Z" fill="#AA9FA3"/>
<path opacity="0.1" d="M213.952 105.575H207.286V111.679H213.952V105.575Z" fill="#AA9FA3"/>
<path opacity="0.1" d="M188.505 120.631H181.84V126.735H188.505V120.631Z" fill="#AA9FA3"/>
<path opacity="0.1" d="M213.952 120.631H207.286V126.735H213.952V120.631Z" fill="#AA9FA3"/>
<path opacity="0.1" d="M188.505 135.687H181.84V141.791H188.505V135.687Z" fill="#AA9FA3"/>
<path opacity="0.1" d="M213.952 135.687H207.286V141.791H213.952V135.687Z" fill="#AA9FA3"/>
<path opacity="0.1" d="M181.84 154.678V150.742H188.503V154.118L181.84 154.678Z" fill="#AA9FA3"/>
<path opacity="0.1" d="M4.21875 64.0393V67.5313H27.031V64.0393H4.21875ZM6.49224 67.3124H4.63126V64.2539H6.50631L6.49224 67.3124ZM8.76339 67.3124H6.88835V64.2539H8.76339V67.3124ZM11.0299 67.3124H9.15481V64.2539H11.0299V67.3124ZM13.301 67.3124H11.4283V64.2539H13.3033L13.301 67.3124ZM15.5698 67.3124H13.6948V64.2539H15.5698V67.3124ZM17.841 67.3124H15.9659V64.2539H17.841V67.3124ZM20.1121 67.3124H18.2371V64.2539H20.1121V67.3124ZM22.3809 67.3124H20.5059V64.2539H22.3809V67.3124ZM24.6497 67.3124H22.7747V64.2539H24.6497V67.3124ZM26.9185 67.3124H25.0435V64.2539H26.9185V67.3124Z" fill="#AA9FA3"/>
<path opacity="0.1" d="M4.21875 74.2V77.692H27.031V74.2H4.21875ZM6.49224 77.4709H4.63126V74.421H6.50631L6.49224 77.4709ZM8.76339 77.4709H6.88835V74.421H8.76339V77.4709ZM11.0299 77.4709H9.15481V74.421H11.0299V77.4709ZM13.301 77.4709H11.4283V74.421H13.3033L13.301 77.4709ZM15.5698 77.4709H13.6948V74.421H15.5698V77.4709ZM17.841 77.4709H15.9659V74.421H17.841V77.4709ZM20.1121 77.4709H18.2371V74.421H20.1121V77.4709ZM22.3809 77.4709H20.5059V74.421H22.3809V77.4709ZM24.6497 77.4709H22.7747V74.421H24.6497V77.4709ZM26.9185 77.4709H25.0435V74.421H26.9185V77.4709Z" fill="#AA9FA3"/>
<path opacity="0.1" d="M4.21875 84.3649V87.8633H27.031V84.3649H4.21875ZM6.49224 87.6358H4.63126V84.5838H6.50631L6.49224 87.6358ZM8.76339 87.6358H6.88835V84.5838H8.76339V87.6358ZM11.0299 87.6358H9.15481V84.5838H11.0299V87.6358ZM13.301 87.6358H11.4283V84.5838H13.3033L13.301 87.6358ZM15.5698 87.6358H13.6948V84.5838H15.5698V87.6358ZM17.841 87.6358H15.9659V84.5838H17.841V87.6358ZM20.1121 87.6358H18.2371V84.5838H20.1121V87.6358ZM22.3809 87.6358H20.5059V84.5838H22.3809V87.6358ZM24.6497 87.6358H22.7747V84.5838H24.6497V87.6358ZM26.9185 87.6358H25.0435V84.5838H26.9185V87.6358Z" fill="#AA9FA3"/>
<path opacity="0.1" d="M4.21875 94.5298V98.0175H27.031V94.5298H4.21875ZM6.49224 97.8008H4.63126V94.7466H6.50631L6.49224 97.8008ZM8.76339 97.8008H6.88835V94.7466H8.76339V97.8008ZM11.0299 97.8008H9.15481V94.7466H11.0299V97.8008ZM13.301 97.8008H11.4283V94.7466H13.3033L13.301 97.8008ZM15.5698 97.8008H13.6948V94.7466H15.5698V97.8008ZM17.841 97.8008H15.9659V94.7466H17.841V97.8008ZM20.1121 97.8008H18.2371V94.7466H20.1121V97.8008ZM22.3809 97.8008H20.5059V94.7466H22.3809V97.8008ZM24.6497 97.8008H22.7747V94.7466H24.6497V97.8008ZM26.9185 97.8008H25.0435V94.7466H26.9185V97.8008Z" fill="#AA9FA3"/>
<path opacity="0.1" d="M4.31738 104.693C4.40879 105.021 4.51192 105.349 4.61973 105.673V104.911H6.49478V107.963H5.49163C5.5221 108.034 5.55257 108.112 5.58304 108.178H27.0312V104.693H4.31738ZM8.77062 107.963H6.89557V104.911H8.77062V107.963ZM11.0371 107.963H9.16203V104.911H11.0371V107.963ZM13.3082 107.963H11.4285V104.911H13.3035L13.3082 107.963ZM15.577 107.963H13.702V104.911H15.577V107.963ZM17.8482 107.963H15.9731V104.911H17.8482V107.963ZM20.1193 107.963H18.2443V104.911H20.1193V107.963ZM22.3881 107.963H20.5131V104.911H22.3881V107.963ZM24.6569 107.963H22.7819V104.911H24.6569V107.963ZM26.9257 107.963H25.0507V104.911H26.9257V107.963Z" fill="#AA9FA3"/>
<path opacity="0.1" d="M9.61426 114.857C9.67285 114.926 9.7291 115.003 9.79004 115.072H11.0299V116.538C11.1635 116.684 11.2948 116.83 11.4307 116.967V115.063H13.3058V118.126H12.5464C12.6214 118.197 12.694 118.272 12.7807 118.341H27.0381V114.857H9.61426ZM15.5699 118.126H13.6948V115.076H15.5699V118.126ZM17.841 118.126H15.966V115.076H17.841V118.126ZM20.1122 118.126H18.2371V115.076H20.1122V118.126ZM22.381 118.126H20.5059V115.076H22.381V118.126ZM24.6498 118.126H22.7747V115.076H24.6498V118.126ZM26.9186 118.126H25.0435V115.076H26.9186V118.126Z" fill="#AA9FA3"/>
<path opacity="0.1" d="M22.1279 125.02C22.3412 125.132 22.5592 125.235 22.7795 125.347V125.239H24.6546V126.205L25.053 126.375V125.239H26.928V127.096C26.964 127.112 27.0017 127.125 27.0405 127.134V125.02H22.1279Z" fill="#AA9FA3"/>
<path opacity="0.1" d="M147.334 102.784C147.378 102.922 147.416 103.059 147.458 103.194C147.421 103.059 147.381 102.922 147.334 102.784ZM35.2695 39.5242V40.4406H45.7393V39.5242H35.2695ZM147.334 102.784C147.378 102.922 147.416 103.059 147.458 103.194C147.421 103.059 147.381 102.922 147.334 102.784ZM147.334 102.784C147.378 102.922 147.416 103.059 147.458 103.194C147.421 103.059 147.381 102.922 147.334 102.784Z" fill="#AA9FA3"/>
<path d="M108.19 81.4888C108.19 81.4888 107.267 81.3707 107.267 80.1388C107.267 78.9068 106.606 76.6059 106.606 76.6059C106.606 76.5952 106.034 72.5988 105.244 71.9635C104.454 71.3282 103.439 67.5979 103.439 67.5979C103.439 67.5979 103.266 65.5739 102.912 65.1382C102.558 64.7025 102.08 63.6358 101.374 62.1141C100.669 60.5923 97.7275 59.5385 97.7275 59.5385C97.7275 59.5385 92.4094 56.714 90.9023 55.7932C90.7653 55.7175 90.6373 55.6291 90.5203 55.5292C90.2578 55.2137 89.114 55.2073 89.114 55.2073C88.9944 54.5161 88.8796 53.722 88.8421 53.003C88.8421 52.9257 88.8421 52.8485 88.8304 52.7712C90.5109 51.8616 91.7766 50.4273 92.3953 48.7318C92.4234 48.6503 92.4469 48.5644 92.4727 48.4829C92.5733 48.4525 92.666 48.4032 92.7447 48.3382C92.8234 48.2731 92.8864 48.1938 92.9297 48.1051C93.0656 47.8283 93.068 47.5042 93.2367 47.2466C93.4336 46.9418 93.8086 46.7787 94.1039 46.5491C94.8493 45.9696 95.0415 44.993 95.0063 44.1044C94.9829 43.3854 94.8563 42.6599 94.9055 41.9452L94.9196 41.7649C94.9337 41.6576 94.9501 41.5503 94.9712 41.4473C95.086 40.915 95.3368 40.4128 95.4774 39.8848C95.618 39.3568 95.6321 38.7623 95.304 38.3072C94.8235 37.6397 93.8227 37.5067 92.9438 37.438C91.9476 37.3607 91.057 37.4616 90.4195 36.7039C90.1211 36.308 89.7854 35.9367 89.4163 35.5943C89.2851 35.4827 88.01 34.7701 88.01 34.7229C86.7656 34.1951 85.3551 34.096 84.0373 34.4439C83.3763 34.6199 82.7529 34.9075 82.0826 35.0513C80.6364 35.3646 78.9723 35.0255 77.7442 35.7832C77.0598 36.2124 76.6496 36.895 76.2652 37.5603C75.9527 38.1083 75.6355 38.6557 75.3136 39.2022C74.7957 40.1015 74.2683 41.0159 74.0503 42.0118C74.0045 42.2285 73.9763 42.448 73.966 42.6685V42.6793C73.966 42.7587 73.966 42.8381 73.966 42.9175V43.0184C73.966 43.0935 73.966 43.1665 73.98 43.233C73.9941 43.2995 73.9917 43.321 73.9988 43.3661C74.0058 43.4112 74.0175 43.512 74.0316 43.5807C74.0456 43.6494 74.0738 43.7696 74.1019 43.864C74.1136 43.9048 74.13 43.9434 74.1441 43.9821C74.1675 44.055 74.1956 44.1259 74.2261 44.1967C74.2425 44.2332 74.2589 44.2718 74.2777 44.3083C74.3128 44.3834 74.355 44.4564 74.3972 44.5229C74.416 44.553 74.43 44.5809 74.4488 44.6088C74.5142 44.7086 74.5862 44.8047 74.6644 44.8964C75.166 45.4695 75.9043 45.8343 76.4504 46.3709C76.4504 46.3924 76.4504 46.4138 76.4504 46.4332C76.4504 46.4932 76.4504 46.5512 76.4504 46.6113C76.4794 47.808 76.8272 48.98 77.4636 50.0256C78.1 51.0711 79.0058 51.9584 80.102 52.6102C80.102 52.6918 80.1138 52.7755 80.1185 52.857C80.1642 53.4941 80.1555 54.1335 80.0927 54.7694C79.9972 54.6665 79.8778 54.5845 79.7431 54.5295C79.6084 54.4745 79.4619 54.4479 79.3145 54.4518C79.2138 54.4473 79.1129 54.4552 79.0145 54.4754L78.9934 54.4603V54.4797C78.4778 54.5956 77.8426 55.0871 77.2356 56.4843C77.2356 56.4843 75.3887 58.3902 73.9824 58.3108C72.5761 58.2314 69.0158 60.294 69.0158 60.294C69.0158 60.294 65.5423 62.3587 64.797 64.4621C64.3804 65.6549 63.8809 66.822 63.3016 67.9563L59.0078 76.0586L58.2156 82.4868C58.2156 82.4868 58.6539 85.3457 58.5671 85.7814C58.4804 86.2171 60.3695 90.147 60.3695 90.147C60.3695 90.147 66.6111 100.19 69.1612 100.705L69.344 100.587C69.4531 100.639 69.5688 100.678 69.6885 100.705L70.2135 100.366C70.245 100.744 70.2317 101.123 70.1737 101.499C69.8221 102.49 70.3049 108.962 70.919 110.23C71.5331 111.498 71.3151 128.13 71.3151 128.13L71.2284 129.598C71.2284 129.598 71.2284 129.645 71.2495 129.727L71.2284 130.075L71.2917 130.105C71.3574 130.57 71.336 131.043 71.2284 131.502C71.0081 132.146 70.919 133.966 70.919 133.966C70.919 133.966 69.1635 144.243 69.9956 146.307C70.8276 148.372 71.5354 150.634 71.5354 150.634C71.5354 150.634 72.4144 153.21 71.5776 153.65C70.7409 154.09 68.3619 154.828 68.8518 155.901C69.2971 156.893 70.987 159.55 71.2378 159.938L71.2167 160.142L70.8721 163.561C70.9279 164.013 71.0616 164.453 71.2682 164.866C71.6456 165.611 72.3792 166.384 73.7738 166.3C74.0081 166.285 74.28 166.259 74.5425 166.227C77.0949 165.914 80.238 164.871 80.238 164.871C80.0748 164.776 79.9252 164.663 79.7927 164.534C79.6672 164.422 79.5678 164.289 79.5005 164.141C79.4332 163.994 79.3994 163.835 79.4012 163.675C79.4387 163.053 78.1661 160.087 77.8496 159.357C77.8004 159.252 77.7746 159.192 77.7746 159.192C77.7746 159.192 80.6763 156.414 80.1935 153.952C80.1935 153.952 76.9824 152.235 78.0395 151.293C79.0966 150.351 80.9857 147.644 80.9857 147.644C80.9857 147.644 81.0724 137.525 80.9857 136.014C80.8952 134.965 80.9495 133.91 81.1474 132.874C81.1825 132.717 81.2247 132.564 81.2693 132.414C82.7311 132.614 84.2069 132.717 85.685 132.721C86.2241 132.721 86.7725 132.721 87.3257 132.691C87.3257 132.834 87.3327 132.989 87.3468 133.155C87.4686 135.662 87.696 140.057 87.8811 141.691C88.1436 144.032 89.5945 150.342 89.5945 150.342C89.5945 150.342 86.8264 151.969 90.0773 155.979C90.0773 155.979 90.0773 157.432 89.8617 157.642C89.6315 158.329 89.446 159.029 89.3062 159.737C89.1702 160.492 89.114 161.256 89.3343 161.653C89.8617 162.602 93.0258 162.525 93.0258 162.525L93.1031 162.512C93.7005 162.455 94.3042 162.508 94.8791 162.667C95.4541 162.826 95.9889 163.087 96.4524 163.437C97.6548 164.321 102.218 163.933 104.689 163.652C105.657 163.54 106.303 163.437 106.303 163.437C106.335 163.337 106.346 163.232 106.336 163.128C106.31 162.572 105.835 161.353 102.61 160.265C102.61 160.265 99.5767 158.397 99.6189 156.77H99.5556H99.2041C99.4595 156.758 99.6236 156.77 99.6236 156.77C99.6236 156.77 98.4353 152.8 98.9205 152.478C99.4056 152.156 97.9525 147.756 97.9525 147.756C97.9525 147.756 97.1204 140.373 97.0759 139.855C97.0778 139.412 97.1512 138.97 97.2939 138.546L97.0759 134.498C97.0759 134.498 97.0337 133.153 97.0759 132.715C97.0688 132.335 97.0351 131.955 96.9751 131.579C96.954 131.429 96.9329 131.272 96.9095 131.118C98.0462 130.854 98.7845 130.609 98.7845 130.609L98.6533 116.519C99.6189 114.802 99.7971 111.035 99.7924 108.363C99.7924 106.646 99.708 105.375 99.708 105.375L101.028 103.403C101.028 103.403 101.332 101.042 100.849 100.524C100.636 100.29 100.732 100.048 100.908 99.8483C100.999 99.782 101.096 99.7217 101.196 99.668C101.196 99.668 101.182 99.6487 101.166 99.6208C101.258 99.5503 101.356 99.4864 101.459 99.4298C101.459 99.4298 100.99 98.7644 101.41 98.4832C101.803 98.7279 102.155 98.9125 102.422 99.0627C102.403 99.2194 102.385 99.3096 102.385 99.3096L102.497 99.0949C102.755 99.228 102.912 99.3096 102.912 99.3096C102.912 99.3096 104.979 95.5385 104.935 94.9826C104.89 94.4267 106.341 92.0851 106.341 92.0851C106.341 92.0851 106.517 90.8553 107.309 90.3401C108.101 89.825 107.923 86.0926 107.923 86.0926C107.923 86.0926 108.143 84.1481 108.671 83.3539C109.198 82.5598 108.19 81.4888 108.19 81.4888ZM68.6361 79.834L68.676 80.7333C68.4416 80.3877 68.2729 80.1388 68.2729 80.1388L68.6361 79.834Z" fill="url(#paint0_linear_28_1449)"/>
<path d="M103.024 97.6805L102.518 99.6551C102.518 99.6551 98.4634 97.7599 97.7321 95.3518C97.0009 92.9436 98.9556 92.0293 98.9556 92.0293L102.734 93.4952L103.024 97.6805Z" fill="white"/>
<path opacity="0.1" d="M103.024 97.6805L102.518 99.6551C102.518 99.6551 98.4634 97.7599 97.7321 95.3518C97.0009 92.9436 98.9556 92.0293 98.9556 92.0293L102.734 93.4952L103.024 97.6805Z" fill="black"/>
<path d="M80.2684 164.884C80.2684 164.884 76.5183 166.146 73.9401 166.304C72.5713 166.388 71.8518 165.62 71.4815 164.879C71.2792 164.468 71.1487 164.029 71.0947 163.581L71.4299 160.179L71.608 158.367L77.0855 157.065L77.8613 159.237L77.934 159.402C78.2457 160.127 79.4949 163.079 79.4574 163.695C79.4559 163.852 79.4891 164.009 79.5552 164.154C79.6212 164.3 79.7187 164.432 79.8418 164.542C79.9676 164.672 80.1109 164.787 80.2684 164.884Z" fill="white"/>
<path d="M105.884 163.154C105.893 163.257 105.882 163.361 105.851 163.461C105.851 163.461 97.8306 164.686 96.1899 163.461C95.7273 163.103 95.1881 162.837 94.6069 162.681C94.0257 162.525 93.4153 162.482 92.8148 162.555C92.8148 162.555 89.7116 162.632 89.1937 161.696C88.978 161.304 89.0343 160.542 89.1679 159.79C89.3042 159.087 89.4857 158.391 89.7116 157.706L89.8359 157.616L90.5742 157.073L99.2181 156.839H99.2837C99.2416 158.458 102.218 160.314 102.218 160.314C105.38 161.387 105.846 162.6 105.884 163.154Z" fill="white"/>
<path opacity="0.1" d="M105.884 163.154C105.892 163.257 105.88 163.361 105.849 163.461C105.849 163.461 97.8306 164.686 96.1899 163.461C95.7276 163.103 95.1888 162.837 94.608 162.682C94.0272 162.526 93.4172 162.482 92.8172 162.555C92.8172 162.555 89.7116 162.632 89.196 161.696C88.9804 161.301 89.0343 160.542 89.1679 159.79C90.3632 159.9 92.25 160.172 92.9906 160.823C94.1109 161.812 96.0094 162.8 97.1743 162.877C98.086 162.93 103.54 163.089 105.884 163.154Z" fill="black"/>
<path opacity="0.1" d="M80.2682 164.884C80.2682 164.884 76.5181 166.146 73.9399 166.304C72.5712 166.388 71.8516 165.62 71.4836 164.877C72.4376 165.171 73.7618 165.48 74.4579 165.197C75.283 164.862 78.208 164.645 79.8487 164.553C79.9736 164.678 80.1144 164.789 80.2682 164.884Z" fill="black"/>
<path d="M85.8326 63.1808C82.7388 62.0798 78.759 58.4418 79.7528 56.7419C79.9735 56.3129 80.1046 55.85 80.1395 55.3769C80.2034 54.7346 80.2128 54.0888 80.1676 53.4452C80.0979 52.3911 79.9594 51.3419 79.7528 50.303C79.7528 50.303 89.4116 50.5026 88.8491 51.8054C88.685 52.1874 88.6592 52.8506 88.7038 53.5933C88.7483 54.3359 88.8655 55.1751 88.9874 55.8855C89.1561 56.8599 89.3249 57.6026 89.3249 57.6026C89.3249 57.6026 88.7342 58.3602 88.3874 58.401C88.0405 58.4418 90.2718 64.7498 85.8326 63.1808Z" fill="#CF6F80"/>
<path opacity="0.1" d="M77.9269 159.402L77.8543 159.475C74.9667 156.277 71.4744 160.263 71.4744 160.263L71.4229 160.179L71.601 158.367L77.0785 157.065L77.8543 159.237L77.9269 159.402Z" fill="black"/>
<path opacity="0.1" d="M99.2859 157.065C99.2859 157.065 97.1765 157.024 96.0515 157.934C94.9264 158.844 89.4888 158.131 89.7232 157.934C89.7926 157.836 89.8345 157.724 89.8451 157.608L90.5834 157.065L99.2273 156.831C99.2601 156.974 99.2859 157.065 99.2859 157.065Z" fill="black"/>
<path d="M81.5199 131.951C81.3627 132.306 81.2434 132.675 81.1636 133.052C80.9681 134.083 80.9138 135.133 81.0019 136.177C81.0886 137.679 81.0019 147.747 81.0019 147.747C81.0019 147.747 79.1479 150.432 78.1143 151.379C77.0807 152.326 80.2237 154.025 80.2237 154.025C80.6925 156.472 77.8518 159.237 77.8518 159.237C74.9642 156.039 71.472 160.026 71.472 160.026C71.472 160.026 69.5735 157.022 69.1 155.948C68.6266 154.875 70.954 154.133 71.772 153.697C72.59 153.261 71.7321 150.692 71.7321 150.692C71.7321 150.692 71.0407 148.441 70.2204 146.387C69.4 144.333 71.1251 134.108 71.1251 134.108C71.1251 134.108 71.2141 132.292 71.4274 131.659C71.535 131.202 71.5564 130.731 71.4907 130.268C71.4767 130.111 71.4602 129.98 71.4485 129.892C71.4368 129.804 71.4274 129.764 71.4274 129.764L71.4602 129.712L72.6321 127.712C72.6321 127.712 82.0824 130.691 81.5199 131.951Z" fill="#AA9FA3"/>
<path d="M99.286 156.829C99.286 156.829 97.1766 156.788 96.0516 157.687C94.9266 158.586 89.4889 157.884 89.7233 157.687C89.9577 157.49 89.9389 156.028 89.9389 156.028C86.749 152.04 89.4702 150.422 89.4702 150.422C89.4702 150.422 88.0451 144.144 87.7873 141.815C87.6069 140.188 87.3842 135.816 87.2647 133.32C87.2131 132.247 87.1826 131.509 87.1826 131.509L89.7889 131.028L90.1241 130.966L96.4102 129.811C96.4102 129.811 96.5836 130.884 96.7008 131.762C96.7592 132.137 96.7921 132.514 96.7993 132.893C96.7571 133.322 96.7993 134.666 96.7993 134.666L97.0125 138.694C96.8732 139.117 96.8014 139.556 96.7993 139.997C96.8414 140.51 97.6594 147.855 97.6594 147.855C97.6594 147.855 99.0821 152.238 98.597 152.553C98.1118 152.869 99.286 156.829 99.286 156.829Z" fill="#AA9FA3"/>
<path opacity="0.1" d="M88.849 51.8054C88.6849 52.1874 88.6592 52.8506 88.7037 53.5933C87.4099 54.3067 85.9226 54.6715 84.4127 54.6456C82.9027 54.6198 81.4313 54.2045 80.1675 53.4473C80.098 52.3926 79.9594 51.3426 79.7527 50.303C79.7527 50.303 89.4115 50.4983 88.849 51.8054Z" fill="black"/>
<path d="M92.5827 47.062C92.5845 47.8354 92.4516 48.6042 92.1889 49.3392C91.6017 50.9862 90.3976 52.3901 88.7894 53.3028C87.1811 54.2154 85.2724 54.578 83.4004 54.3266C81.5285 54.0751 79.8139 53.2258 78.5596 51.9286C77.3054 50.6315 76.5923 48.9701 76.5463 47.238C76.5463 47.1779 76.5463 47.1221 76.5463 47.062C76.5281 46.0871 76.7221 45.1186 77.117 44.213C77.5118 43.3074 78.0996 42.4829 78.8461 41.7876C79.5925 41.0922 80.4827 40.5399 81.4647 40.1629C82.4467 39.786 83.5009 39.5918 84.5657 39.5918C85.6305 39.5918 86.6846 39.786 87.6666 40.1629C88.6486 40.5399 89.5388 41.0922 90.2853 41.7876C91.0318 42.4829 91.6196 43.3074 92.0144 44.213C92.4092 45.1186 92.6032 46.0871 92.585 47.062H92.5827Z" fill="#CF6F80"/>
<path opacity="0.1" d="M85.8326 63.1808C82.7388 62.0797 78.759 58.4418 79.7528 56.7419C79.9735 56.3129 80.1046 55.8499 80.1395 55.3768L84.3748 58.5641L86.9951 60.5323L88.9874 55.8876C89.1561 56.8621 89.3249 57.6047 89.3249 57.6047C89.3249 57.6047 88.7342 58.3623 88.3874 58.4031C88.0405 58.4439 90.2718 64.7497 85.8326 63.1808Z" fill="black"/>
<path d="M96.7851 77.2671L93.2483 131.676L88.6357 131.953L76.6917 100.404L78.6511 62.9491L79.0636 55.0356L84.3746 59.0299L86.9974 60.9981L89.0482 56.2183L92.8616 59.2617L96.7851 77.2671Z" fill="#AA9FA3"/>
<path opacity="0.1" d="M81.52 131.951C81.3629 132.306 81.2436 132.675 81.1638 133.052C77.8074 132.577 74.5477 131.645 71.4932 130.285L71.4299 130.255L71.451 129.91L71.4627 129.729L72.6347 127.729C72.6347 127.729 82.0825 130.691 81.52 131.951Z" fill="black"/>
<path opacity="0.1" d="M89.8427 133.06C88.9847 133.194 88.1193 133.284 87.2505 133.331C87.1989 132.258 87.1685 131.519 87.1685 131.519L89.7748 131.038L89.8427 133.06Z" fill="black"/>
<path opacity="0.1" d="M96.6866 131.773C95.0201 132.17 92.4466 132.616 90.1427 132.337L90.1099 130.976L96.3959 129.822C96.3959 129.822 96.5694 130.884 96.6866 131.773Z" fill="black"/>
<path opacity="0.1" d="M90.1005 132.586C80.4909 134.088 71.6899 129.781 71.6899 129.781L71.7743 128.321C71.7743 128.321 71.9922 111.775 71.3875 110.507C70.7828 109.238 70.3117 102.806 70.6539 101.819C70.9961 100.831 69.4047 86.0261 69.4047 86.0261L69.1469 80.0164L59.7107 76.5158L63.9295 68.4629C64.4994 67.3338 64.9895 66.1724 65.3968 64.9858C66.1304 62.8953 69.5359 60.8413 69.5359 60.8413C69.5359 60.8413 73.0282 58.7895 74.4087 58.8667C75.7892 58.944 77.5986 57.0509 77.5986 57.0509C78.9346 53.9324 80.144 55.3446 80.144 55.3446C80.144 55.4927 80.144 55.3446 80.0784 55.8061C79.6096 59.2294 87.6582 70.0468 87.7731 70.2379L88.5395 87.3353L89.3153 108.972L90.1005 132.586Z" fill="black"/>
<path d="M89.8429 132.586C80.2333 134.088 71.4299 129.781 71.4299 129.781L71.5166 128.321C71.5166 128.321 71.7346 111.775 71.1276 110.507C70.5205 109.238 70.0518 102.806 70.3963 101.819C70.7408 100.831 69.1471 86.0261 69.1471 86.0261L68.8869 80.0165L59.446 76.503L63.6649 68.45C64.2335 67.3205 64.7235 66.1592 65.1321 64.973C65.8634 62.8825 69.2713 60.8285 69.2713 60.8285C69.2713 60.8285 72.7636 58.7766 74.1417 58.8539C75.5199 58.9312 77.3316 57.0381 77.3316 57.0381C78.6699 53.9195 80.1442 55.3318 80.1442 55.3318C80.1442 55.4799 80.0036 55.5464 80.0786 55.7933C81.1098 59.1136 87.4006 70.034 87.5155 70.225L88.2913 87.3225L89.0671 108.959L89.8429 132.586Z" fill="white"/>
<path opacity="0.1" d="M87.253 70.7122C86.2193 70.3173 80.7442 64.5931 80.7442 64.5931V63.2902C80.545 62.861 79.3614 63.1228 78.4004 63.4233L78.8129 55.5099L79.2817 55.8662C80.3083 59.1844 87.1334 70.5212 87.253 70.7122Z" fill="black"/>
<path d="M87.5131 70.2379C86.4771 69.843 81.002 64.1188 81.002 64.1188V62.816C80.8028 62.3867 79.6192 62.6486 78.6582 62.9491L79.0731 55.0356L79.5418 55.3919C80.5707 58.7101 87.3983 70.0491 87.5131 70.2379Z" fill="white"/>
<path opacity="0.1" d="M71.69 98.7859C71.8189 98.7859 78.3721 98.1549 78.3721 98.1549C78.3721 98.1549 82.3402 105.3 82.0801 107.038C81.8199 108.777 81.3488 110.316 79.7527 110.043C78.1565 109.771 71.1626 110.258 71.1626 110.258L71.69 98.7859Z" fill="black"/>
<path d="M71.4299 98.3116C71.5589 98.3116 78.1121 97.6805 78.1121 97.6805C78.1121 97.6805 82.0779 104.828 81.82 106.564C81.5622 108.3 81.0864 109.842 79.4926 109.569C77.8988 109.296 70.9026 109.784 70.9026 109.784L71.4299 98.3116Z" fill="white"/>
<path d="M76.3684 94.9569C76.3684 94.9569 82.3826 97.9167 82.5115 98.8203C82.6404 99.7239 79.4505 98.4253 78.7614 98.2687C78.3078 98.1686 77.8461 98.1025 77.3809 98.0712L72.7847 98.185L76.3684 94.9569Z" fill="#CF6F80"/>
<path opacity="0.1" d="M85.5747 71.0814C85.9242 71.0814 86.2075 70.8219 86.2075 70.5019C86.2075 70.1818 85.9242 69.9224 85.5747 69.9224C85.2252 69.9224 84.9419 70.1818 84.9419 70.5019C84.9419 70.8219 85.2252 71.0814 85.5747 71.0814Z" fill="black"/>
<path d="M85.5747 70.8453C85.9242 70.8453 86.2075 70.5858 86.2075 70.2658C86.2075 69.9457 85.9242 69.6863 85.5747 69.6863C85.2252 69.6863 84.9419 69.9457 84.9419 70.2658C84.9419 70.5858 85.2252 70.8453 85.5747 70.8453Z" fill="#3F3D56"/>
<path opacity="0.1" d="M86.7395 96.1674C87.089 96.1674 87.3723 95.908 87.3723 95.5879C87.3723 95.2679 87.089 95.0084 86.7395 95.0084C86.39 95.0084 86.1067 95.2679 86.1067 95.5879C86.1067 95.908 86.39 96.1674 86.7395 96.1674Z" fill="black"/>
<path d="M86.7395 95.9292C87.089 95.9292 87.3723 95.6697 87.3723 95.3496C87.3723 95.0296 87.089 94.7701 86.7395 94.7701C86.39 94.7701 86.1067 95.0296 86.1067 95.3496C86.1067 95.6697 86.39 95.9292 86.7395 95.9292Z" fill="#3F3D56"/>
<path opacity="0.1" d="M86.2051 83.6243C86.5546 83.6243 86.8379 83.3649 86.8379 83.0448C86.8379 82.7248 86.5546 82.4653 86.2051 82.4653C85.8556 82.4653 85.5723 82.7248 85.5723 83.0448C85.5723 83.3649 85.8556 83.6243 86.2051 83.6243Z" fill="black"/>
<path d="M86.2051 83.3883C86.5546 83.3883 86.8379 83.1288 86.8379 82.8088C86.8379 82.4887 86.5546 82.2292 86.2051 82.2292C85.8556 82.2292 85.5723 82.4887 85.5723 82.8088C85.5723 83.1288 85.8556 83.3883 86.2051 83.3883Z" fill="#3F3D56"/>
<path d="M100.793 97.951C100.793 97.951 101.224 98.5434 100.793 98.8203C100.362 99.0971 100.835 99.7668 100.835 99.7668C100.835 99.7668 99.7593 100.344 100.233 100.864C100.706 101.383 100.406 103.729 100.406 103.729L99.1124 105.691C99.1124 105.691 99.1898 106.955 99.1945 108.663C99.1945 111.329 99.0234 115.076 98.0765 116.785L98.2077 130.802C98.2077 130.802 93.6772 132.318 89.8849 131.856L89.3224 109.363C89.3224 109.363 90.1427 96.6074 90.4451 94.1606C90.622 92.8904 90.6941 91.6097 90.6607 90.3295C90.6607 90.3295 90.5318 86.5005 90.0982 84.7233C90.0982 84.7233 89.6294 77.0245 89.5825 74.8932C89.5614 73.8737 89.62 70.899 89.6857 68.0701C89.7583 64.9773 89.8404 62.0605 89.8404 62.0605L88.9849 55.8619C88.9849 55.8619 89.8404 55.7825 90.0982 56.098C90.2137 56.1968 90.3392 56.2852 90.4732 56.362C91.9498 57.2764 97.1671 60.088 97.1671 60.088C97.1671 60.088 100.055 61.1397 100.746 62.6464C101.438 64.1531 101.918 65.222 102.253 65.6512C102.588 66.0805 102.771 68.098 102.771 68.098C102.771 68.098 103.765 71.8111 104.541 72.44C105.317 73.0689 105.884 77.0696 105.884 77.0696L99.0281 82.0061C99.0281 82.0061 98.4257 90.2179 98.2968 90.5355C98.1679 90.8532 100.793 97.951 100.793 97.951Z" fill="white"/>
<path d="M101.053 97.951C101.053 97.951 101.482 98.5434 101.053 98.8203C100.624 99.0971 101.093 99.7668 101.093 99.7668C101.093 99.7668 100.024 100.351 100.493 100.87C100.962 101.389 100.666 103.735 100.666 103.735L99.3727 105.697C99.3727 105.697 99.45 106.961 99.457 108.67C99.457 111.335 99.2859 115.083 98.339 116.791L98.468 130.809C98.468 130.809 93.9303 132.324 90.1428 131.863L89.5826 109.369C89.5826 109.369 90.4029 96.6139 90.7053 94.1671C90.8824 92.8968 90.9537 91.6161 90.9186 90.3359C90.9186 90.3359 90.7896 86.5069 90.3584 84.7298C90.3584 84.7298 89.8896 77.031 89.8404 74.8997C89.8193 73.8802 89.8802 70.9054 89.9435 68.0766C90.0162 64.9837 90.0982 62.0669 90.0982 62.0669L88.9685 55.7847C88.9685 55.7847 90.0982 55.7847 90.3584 56.1045C90.4728 56.2044 90.5985 56.2929 90.7334 56.3685C92.21 57.2828 97.4296 60.0944 97.4296 60.0944C97.4296 60.0944 100.315 61.1461 101.006 62.6528C101.698 64.1596 102.178 65.2284 102.516 65.6577C102.853 66.0869 103.031 68.1045 103.031 68.1045C103.031 68.1045 104.025 71.8176 104.801 72.4464C105.577 73.0753 106.137 77.0674 106.137 77.0674L99.2813 82.0039C99.2813 82.0039 98.6789 90.2157 98.5476 90.5334C98.4164 90.851 101.053 97.951 101.053 97.951Z" fill="white"/>
<path opacity="0.1" d="M92.8429 63.889L93.4617 65.5417L90.2038 68.5465C90.2764 65.4559 90.3585 62.5369 90.3585 62.5369L89.2288 56.2546C89.2288 56.2546 90.3585 56.2546 90.6186 56.5744C90.7327 56.6741 90.8585 56.7619 90.9936 56.8363L93.764 64.1552L92.8429 63.889Z" fill="black"/>
<path d="M92.5827 63.4148L93.2038 65.0675L89.9459 68.0723C90.0185 64.9795 90.1006 62.0626 90.1006 62.0626L88.9685 55.7804C88.9685 55.7804 90.1006 55.7804 90.3584 56.1002C90.4734 56.1996 90.599 56.288 90.7334 56.3642L93.5061 63.6809L92.5827 63.4148Z" fill="white"/>
<path opacity="0.1" d="M92.5827 47.062C92.5845 47.8354 92.4516 48.6042 92.1889 49.3392C92.1446 49.3456 92.0994 49.3437 92.0559 49.3337C92.0125 49.3238 91.9716 49.306 91.9358 49.2813C91.8748 47.3496 90.8365 45.536 89.5592 43.9928C89.2005 43.5269 88.7657 43.1142 88.2701 42.7694C87.7689 42.4247 87.1456 42.2633 86.5216 42.3165C85.8184 42.4045 85.1973 42.8424 84.4872 42.8982C83.5496 42.969 82.7106 42.3745 81.7801 42.3444C81.4018 42.3477 81.0286 42.4248 80.6855 42.5707C80.3424 42.7165 80.0371 42.9277 79.7902 43.1901C79.3013 43.7196 78.9382 44.3365 78.7237 45.0016C78.3552 46.01 78.1545 47.0634 78.1284 48.1266C78.1167 48.7275 78.0534 49.4809 77.444 49.6998C77.4899 49.2578 77.435 48.812 77.2829 48.3904C77.1308 47.9689 76.8848 47.5808 76.5604 47.2509L76.5463 47.238C76.5463 47.1779 76.5463 47.1221 76.5463 47.062C76.5281 46.0871 76.7221 45.1186 77.117 44.213C77.5118 43.3074 78.0996 42.4829 78.8461 41.7876C79.5925 41.0922 80.4827 40.5399 81.4647 40.1629C82.4467 39.786 83.5009 39.5918 84.5657 39.5918C85.6305 39.5918 86.6846 39.786 87.6666 40.1629C88.6486 40.5399 89.5388 41.0922 90.2853 41.7876C91.0318 42.4829 91.6196 43.3074 92.0144 44.213C92.4092 45.1186 92.6032 46.0871 92.585 47.062H92.5827Z" fill="black"/>
<path d="M87.8856 35.4011C86.6677 34.8765 85.2824 34.7773 83.9902 35.1221C83.341 35.2981 82.7293 35.5836 82.0707 35.7274C80.6644 36.0386 79.0237 35.7016 77.8166 36.455C77.1463 36.8842 76.7432 37.5625 76.3682 38.2214L75.4307 39.8569C74.9197 40.7519 74.4041 41.6619 74.1908 42.6471C73.9775 43.6322 74.1064 44.7354 74.7884 45.5274C75.2853 46.1048 76.0189 46.4675 76.558 47.0105C76.881 47.3408 77.1259 47.7286 77.2776 48.1496C77.4292 48.5707 77.4843 49.0159 77.4393 49.4573C78.051 49.2427 78.1096 48.4872 78.1237 47.8862C78.1498 46.8231 78.3505 45.7696 78.719 44.7612C78.9329 44.096 79.2962 43.479 79.7854 42.9497C80.0326 42.6875 80.3379 42.4765 80.681 42.3307C81.024 42.1849 81.3971 42.1076 81.7753 42.104C82.7129 42.1341 83.5543 42.7265 84.4824 42.6556C85.1856 42.602 85.809 42.162 86.5169 42.0761C87.141 42.0221 87.7646 42.1836 88.2653 42.529C88.7609 42.8733 89.195 43.286 89.5521 43.7524C90.8318 45.2956 91.8701 47.1049 91.931 49.0409C92.1959 49.2191 92.5779 48.9873 92.7092 48.7125C92.8404 48.4378 92.8451 48.1159 93.0115 47.854C93.2037 47.5514 93.5717 47.3904 93.86 47.1629C94.5913 46.5855 94.7741 45.6133 94.746 44.7311C94.7178 43.849 94.5303 42.954 94.7131 42.0869C94.8233 41.5546 95.0717 41.0566 95.2077 40.5308C95.3436 40.005 95.36 39.4147 95.0389 38.9619C94.5702 38.2965 93.5834 38.1656 92.7233 38.1033C91.7459 38.0261 90.8716 38.1248 90.2482 37.3714C89.9555 36.9783 89.6262 36.6092 89.2638 36.2682C89.1396 36.1566 87.8856 35.4484 87.8856 35.4011Z" fill="#512E4E"/>
<path opacity="0.1" d="M62.4109 80.6625L59.9616 76.5159L59.1858 82.914C59.1858 82.914 59.6171 85.7557 59.5303 86.1914C59.4436 86.6271 61.2976 90.5334 61.2976 90.5334C61.2976 90.5334 67.4219 100.522 69.9228 101.037L78.3722 95.5085L76.1315 92.9029C76.1315 92.9029 75.3557 92.626 75.1612 92.9029C75.1612 92.9029 71.0009 86.3481 70.5697 85.8738C70.1384 85.3994 70.2228 84.4529 70.2228 84.4529C70.2228 84.4529 69.5759 83.8219 69.7915 83.2295C70.0071 82.6371 68.5423 80.5831 68.5423 80.5831L69.8782 79.4391L62.4109 80.6625Z" fill="black"/>
<path d="M60.0904 76.0437L59.4435 76.5159L58.6677 82.914C58.6677 82.914 59.099 85.7557 59.0123 86.1914C58.9255 86.6271 60.7818 90.5334 60.7818 90.5334C60.7818 90.5334 66.9039 100.522 69.4047 101.037L77.8565 95.5086L75.6134 92.9029C75.6134 92.9029 74.8376 92.6261 74.6431 92.9029C74.6431 92.9029 70.4829 86.3481 70.0516 85.8738C69.6203 85.3995 69.7071 84.4529 69.7071 84.4529C69.7071 84.4529 69.0602 83.8219 69.2758 83.2295C69.4914 82.6372 68.0242 80.5831 68.0242 80.5831L69.3602 79.4392L60.0904 76.0437Z" fill="white"/>
<path opacity="0.1" d="M100.233 101.108C100.702 101.63 100.406 103.971 100.406 103.971L99.1125 105.933C99.1125 105.933 99.1898 107.199 99.1945 108.906L97.0195 109.528C96.8229 109.584 96.6145 109.597 96.4116 109.564C96.2088 109.532 96.0174 109.455 95.8534 109.341C95.6894 109.227 95.5576 109.079 95.4689 108.909C95.3802 108.738 95.3373 108.551 95.3436 108.363L95.7186 97.2856L100.793 99.0628C100.362 99.3375 100.835 100.011 100.835 100.011C100.835 100.011 99.7594 100.587 100.233 101.108Z" fill="black"/>
<path d="M100.493 100.87C100.962 101.392 100.666 103.735 100.666 103.735L99.3726 105.697C99.3726 105.697 99.4499 106.961 99.457 108.67L97.2421 109.303C97.0496 109.358 96.8455 109.369 96.647 109.337C96.4485 109.305 96.2612 109.23 96.1007 109.119C95.9402 109.007 95.8111 108.862 95.7243 108.695C95.6374 108.529 95.5953 108.346 95.6014 108.161L95.9788 97.0496L101.055 98.8267C100.622 99.1014 101.095 99.7732 101.095 99.7732C101.095 99.7732 100.024 100.351 100.493 100.87Z" fill="white"/>
<path d="M102.173 95.5901C102.173 95.5901 101.829 97.6055 100.966 97.7235C100.104 97.8415 99.7172 100.984 98.857 100.872C97.9968 100.761 98.5664 97.951 98.5968 97.4058C98.6273 96.8607 97.6593 94.6028 98.3835 94.0898C99.1078 93.5768 101.4 94.0898 101.4 94.0898L102.173 95.5901Z" fill="#CF6F80"/>
<path opacity="0.1" d="M104.009 80.0701L105.635 77.0653C105.635 77.0653 106.282 79.3554 106.282 80.5788C106.282 81.8022 107.187 81.9224 107.187 81.9224C107.187 81.9224 108.178 82.9956 107.656 83.7768C107.133 84.5581 106.922 86.5026 106.922 86.5026C106.922 86.5026 107.093 90.2136 106.317 90.7265C105.542 91.2395 105.38 92.4651 105.38 92.4651C105.38 92.4651 103.955 94.7938 103.999 95.3475C104.044 95.9013 102.017 99.6509 102.017 99.6509C102.017 99.6509 103.008 94.9913 97.2306 92.978C97.2306 92.978 97.186 91.3962 97.6173 90.9626C98.0485 90.5291 98.7212 90.3316 98.2993 88.1403C97.8774 85.9489 98.1775 83.3304 98.1775 82.8045C98.1775 82.2787 99.4712 78.9991 99.4712 78.9991L104.009 80.0701Z" fill="black"/>
<path d="M104.712 76.636L106.132 77.0652C106.132 77.0652 106.782 79.3554 106.782 80.5788C106.782 81.8021 107.686 81.9223 107.686 81.9223C107.686 81.9223 108.678 82.9955 108.155 83.7767C107.632 84.558 107.424 86.5026 107.424 86.5026C107.424 86.5026 107.595 90.2135 106.819 90.7265C106.043 91.2395 105.87 92.465 105.87 92.465C105.87 92.465 104.447 94.7937 104.492 95.3475C104.536 95.9012 102.506 99.6508 102.506 99.6508C102.506 99.6508 103.5 94.9912 97.7204 92.978C97.7204 92.978 97.6782 91.3961 98.1094 90.9626C98.5407 90.529 99.2134 90.3316 98.7915 88.1402C98.3696 85.9488 98.6696 83.3303 98.6696 82.8045C98.6696 82.2786 99.9634 78.9991 99.9634 78.9991L104.712 76.636Z" fill="white"/>
<path opacity="0.1" d="M73.3401 154.519C73.3401 154.519 75.6042 153.216 77.0902 154.163C78.5762 155.109 73.3401 154.519 73.3401 154.519Z" fill="black"/>
<path opacity="0.1" d="M90.9326 150.49C90.9326 150.49 92.9366 150.254 94.6194 151.913C96.3023 153.573 90.9326 150.49 90.9326 150.49Z" fill="black"/>
<g opacity="0.1">
<path d="M93.8648 46.693C93.5765 46.9205 93.2061 47.0836 93.014 47.3862C92.8499 47.6459 92.8452 47.9657 92.7139 48.2447C92.5827 48.5238 92.2006 48.7513 91.9358 48.5753C91.8749 46.6436 90.8342 44.83 89.5568 43.2846C89.1997 42.8182 88.7656 42.4055 88.2701 42.0612C87.7684 41.7159 87.1441 41.5544 86.5193 41.6084C85.8161 41.6964 85.1974 42.1342 84.4872 42.1879C83.5497 42.2608 82.7082 41.6663 81.7777 41.6363C81.3996 41.6397 81.0266 41.7171 80.6839 41.8633C80.3411 42.0096 80.0364 42.2212 79.7902 42.484C79.3009 43.0125 78.9377 43.6288 78.7238 44.2934C78.3555 45.3019 78.1548 46.3553 78.1284 47.4184C78.1144 48.0172 78.0534 48.7641 77.4487 48.9874C77.4628 49.1459 77.4628 49.3053 77.4487 49.4638C78.0581 49.2492 78.1191 48.4937 78.1331 47.8927C78.1592 46.8296 78.3599 45.7761 78.7285 44.7677C78.9424 44.1025 79.3056 43.4855 79.7949 42.9562C80.0416 42.6941 80.3464 42.4831 80.6891 42.3373C81.0318 42.1915 81.4046 42.1142 81.7824 42.1106C82.72 42.1406 83.5637 42.733 84.4919 42.6622C85.195 42.6085 85.8185 42.1685 86.5239 42.0827C87.1488 42.0287 87.7731 42.1902 88.2748 42.5356C88.7703 42.8799 89.2044 43.2926 89.5615 43.759C90.8389 45.3021 91.8796 47.1115 91.9405 49.0475C92.2053 49.2256 92.5874 48.9938 92.7186 48.7191C92.8499 48.4443 92.8546 48.1224 93.0186 47.8605C93.2108 47.5579 93.5812 47.3969 93.8694 47.1694C94.6007 46.5921 94.7835 45.6198 94.7554 44.7377C94.7554 44.7098 94.7554 44.6819 94.7554 44.6561C94.7109 45.4202 94.4882 46.1993 93.8648 46.693Z" fill="black"/>
<path d="M76.5627 46.5405C76.0237 45.9975 75.2877 45.6348 74.7932 45.0596C74.3768 44.5504 74.1389 43.9374 74.1111 43.3018C74.0374 44.0961 74.2796 44.8881 74.7932 45.5318C75.2877 46.1091 76.0237 46.4718 76.5627 47.0149C77.0803 47.546 77.3911 48.2193 77.4464 48.9294C77.4823 48.4972 77.4225 48.0629 77.2706 47.6524C77.1188 47.2419 76.878 46.8638 76.5627 46.5405Z" fill="black"/>
<path d="M95.2124 40.0608C95.0741 40.5867 94.828 41.0868 94.7155 41.6169C94.6489 41.9712 94.6245 42.331 94.6429 42.6901C94.6507 42.4855 94.675 42.2818 94.7155 42.0805C94.828 41.5482 95.0741 41.0503 95.2124 40.5244C95.293 40.2344 95.3192 39.9339 95.2898 39.6359C95.2752 39.779 95.2493 39.9211 95.2124 40.0608Z" fill="black"/>
</g>
<path opacity="0.1" d="M31.1093 163.246C43.7224 163.246 53.9473 161.742 53.9473 159.887C53.9473 158.032 43.7224 156.528 31.1093 156.528C18.4962 156.528 8.27124 158.032 8.27124 159.887C8.27124 161.742 18.4962 163.246 31.1093 163.246Z" fill="#AA9FA3"/>
<path d="M31.8453 95.5406H30.3757V125.84H31.8453V95.5406Z" fill="#535461"/>
<path d="M41.0798 125.748L40.9884 127.113L40.8571 129.045L40.8032 129.847L40.6743 131.779L40.6181 132.582L40.4868 134.513L39.0055 156.421C38.9411 157.363 38.487 158.248 37.7354 158.895C36.9839 159.541 35.9914 159.902 34.9601 159.902H27.2584C26.2273 159.902 25.2351 159.541 24.484 158.895C23.7328 158.248 23.2791 157.363 23.2153 156.421L21.741 134.498L21.6098 132.567L21.5559 131.764L21.4246 129.832L21.3707 129.03L21.2395 127.098L21.1457 125.733C21.1294 125.47 21.1719 125.207 21.2706 124.96C21.3693 124.713 21.5221 124.487 21.7197 124.296C21.9172 124.104 22.1553 123.952 22.4193 123.848C22.6834 123.745 22.9678 123.691 23.2551 123.692H39.0079C39.2942 123.694 39.5769 123.75 39.8386 123.856C40.1004 123.962 40.3356 124.116 40.5297 124.309C40.7239 124.502 40.8729 124.729 40.9675 124.976C41.0621 125.224 41.1003 125.486 41.0798 125.748Z" fill="#3F3D56"/>
<path d="M40.9885 127.113L40.8573 129.038H21.3615L21.2302 127.113H40.9885Z" fill="#9D9CB5"/>
<path d="M40.8032 129.841L40.6743 131.768H21.5465L21.4153 129.841H40.8032Z" fill="#9D9CB5"/>
<path d="M40.6182 132.573L40.4893 134.498H21.7318L21.6006 132.573H40.6182Z" fill="#9D9CB5"/>
<path d="M18.9873 106.897C27.5445 112.567 31.1165 121.436 31.1165 121.436C31.1165 121.436 20.8037 121.112 12.2441 115.441C3.68456 109.771 0.119629 100.904 0.119629 100.904C0.119629 100.904 10.4277 101.226 18.9873 106.897Z" fill="#AA9FA3"/>
<path d="M0.112549 100.904C0.112549 100.904 10.8191 106.345 14.2527 110.85C17.6864 115.355 31.1164 121.436 31.1164 121.436" stroke="#535461" stroke-width="2" stroke-miterlimit="10"/>
<path d="M24.5115 95.4742C29.1687 98.5584 31.1164 103.385 31.1164 103.385C31.1164 103.385 25.503 103.209 20.8435 100.125C16.184 97.041 14.241 92.2118 14.241 92.2118C14.241 92.2118 19.852 92.3878 24.5115 95.4742Z" fill="#AA9FA3"/>
<path d="M14.241 92.2118C14.241 92.2118 20.0677 95.1737 21.9357 97.6248C23.8037 100.076 31.1164 103.385 31.1164 103.385" stroke="#535461" stroke-width="2" stroke-miterlimit="10"/>
<path d="M37.8782 103.141C32.5273 108.526 31.3953 115.564 31.3953 115.564C31.3953 115.564 38.94 113.868 44.2862 108.481C49.6324 103.094 50.7692 96.058 50.7692 96.058C50.7692 96.058 43.2291 97.7557 37.8782 103.141Z" fill="#AA9FA3"/>
<path d="M50.7739 96.0601C50.7739 96.0601 43.8034 101.58 42.0315 105.384C40.2595 109.187 31.3953 115.564 31.3953 115.564" stroke="#535461" stroke-width="2" stroke-miterlimit="10"/>
<path d="M234.303 101.246C234.303 101.246 230.434 83.6158 231.915 81.4223C231.915 81.4223 231.969 79.3833 231.88 76.7841C231.88 76.6854 231.88 76.5867 231.88 76.4858C232.14 76.6449 232.412 76.7883 232.693 76.9151C234.058 77.5572 235.625 77.7424 237.123 77.4388L235.951 76.2433C235.67 75.9578 235.377 75.6487 235.316 75.271C235.255 74.8932 235.424 74.5563 235.569 74.2193C236.682 71.6437 236.741 68.405 234.596 66.4389C232.785 64.7863 232.344 62.6529 230.378 61.144C228.941 60.0387 228.151 58.4182 227.406 56.8514C226.775 55.5271 226.14 54.1921 225.779 52.7884C225.498 51.6917 225.385 50.5563 224.998 49.4853C224.612 48.4143 223.888 47.3733 222.755 46.8947C222.352 46.7251 221.905 46.6285 221.537 46.4032C221.054 46.1048 220.763 45.6198 220.414 45.1948C218.64 43.0485 212.698 44.3127 209.886 45.1841C209.121 45.4035 208.413 45.7628 207.804 46.24L207.83 46.2014C207.851 46.1692 207.877 46.137 207.9 46.1048C207.593 46.3328 207.327 46.6045 207.113 46.9097C206.703 47.5042 206.532 48.1975 206.189 48.8414C205.777 49.6033 203.482 51.7303 204.469 52.5867C204.538 52.6442 204.617 52.6906 204.703 52.724C205.074 52.8652 205.482 52.9026 205.875 52.8314L205.833 52.9236C205.496 53.6792 205.323 54.4877 205.325 55.3039C205.325 58.8303 208.5 61.6892 212.422 61.6892C213.159 61.6898 213.892 61.5863 214.594 61.3822C214.611 61.4638 214.625 61.5454 214.641 61.6269C214.641 61.6591 214.653 61.6913 214.658 61.7235L214.533 61.8823C214.527 61.8725 214.52 61.8632 214.512 61.8544L210.833 66.5634C210.27 66.9262 207.031 69.0725 206.848 70.6822C206.656 72.4443 206.464 74.5069 206.464 74.5069L206.438 74.949C206.277 75.0721 206.089 75.1617 205.887 75.2118C205.684 75.2618 205.473 75.271 205.266 75.2388C204.117 75.0671 204.117 79.1021 204.117 79.1021C204.117 79.1021 203.353 79.746 202.828 79.188C202.303 78.63 200.916 80.5209 200.916 80.5209L192.22 80.8643L192.021 80.875L191.552 79.5464C191.502 79.4063 191.393 79.29 191.25 79.2229C191.106 79.1558 190.939 79.1433 190.786 79.188C190.75 79.1989 190.714 79.2126 190.68 79.2288L190.648 79.246L190.587 79.2846L190.556 79.3103C190.539 79.3243 190.524 79.3394 190.509 79.3554L190.481 79.3855L190.467 79.3983C190.413 79.4669 190.377 79.546 190.363 79.6295C190.348 79.713 190.355 79.7985 190.383 79.8791L190.786 81.0188C189.108 81.3279 187.392 82.1993 188.791 84.5988L181.699 83.3991L183.994 85.1633L195.839 87.4019C195.682 87.6595 195.785 88.0329 196.275 88.5588C198.385 90.8274 202.228 91.4434 203.775 91.6022C204.184 92.4391 204.694 93.2311 205.296 93.9632L205.163 96.2232C205.163 96.2232 201.246 113.45 200.529 114.323C200.891 113.947 201.223 113.548 201.521 113.128C200.384 116.667 198.795 121.511 198.378 122.236C197.707 123.395 197.086 128.085 197.85 128.386C198.085 128.478 198.755 128.433 199.711 128.366V128.755L199.669 143.476C199.669 143.476 199.861 152.506 199.334 153.367C198.806 154.227 198.666 156.032 198.666 156.032C198.666 156.032 196.556 159.593 194.885 161.025C194.874 161.036 194.861 161.046 194.848 161.055L194.796 160.72C194.796 160.72 192.788 163.042 188.344 162.911C188.344 162.911 185.669 164.504 189.635 164.59C193.601 164.675 198.666 164.461 198.666 164.461C198.666 164.461 202.203 159.524 205.165 160.168V163.909H206.072V160.108C206.493 159.854 206.853 159.525 207.13 159.14C207.408 158.756 207.597 158.323 207.687 157.869C207.765 157.402 207.708 156.923 207.522 156.482C207.336 156.04 207.028 155.651 206.628 155.352C206.448 155.203 206.304 155.022 206.204 154.819C206.104 154.617 206.051 154.398 206.049 154.176L206.016 154.201C206.016 154.126 205.995 154.049 205.986 153.97C205.725 152.038 205.4 148.052 206.55 145.103C208.128 141.06 208.606 135.428 207.457 132.075C207.087 131.003 206.782 129.914 206.546 128.811C206.518 128.671 206.492 128.538 206.468 128.414C207.253 128.511 208.031 128.654 208.796 128.843C211.456 129.515 217.276 129.639 222.244 129.603C222.256 129.727 222.27 129.858 222.287 129.989C222.375 130.899 222.561 131.799 222.84 132.676C223.463 134.393 223.749 141.963 223.749 141.963C223.749 141.963 224.553 148.187 224.115 150.72C223.88 152.128 223.646 153.543 223.512 154.963V154.991C223.512 154.991 222.195 158.425 221.232 160.29C221.209 160.338 221.183 160.385 221.159 160.43C220.902 160.451 220.65 160.503 220.407 160.582C220.407 160.582 219.116 162.943 217.829 163.334C216.542 163.725 216.969 165.01 219.882 164.538C222.795 164.066 227.195 163.68 227.195 163.68L227.384 161.271L228.28 160.245L228.045 162.647L228.999 162.475L228.873 159.554L230.338 157.876C230.338 157.876 232.107 156.434 229.477 153.596V153.658C229.449 153.618 229.424 153.575 229.393 153.534V153.521C228.957 152.903 228.61 151.75 229.245 149.705C230.394 146.009 231.062 142.654 231.062 142.654C231.062 142.654 233.626 133.668 230.544 129.416H230.68C230.364 128.818 230.141 128.182 230.017 127.527C230.001 127.45 229.987 127.37 229.974 127.289C232.255 127.169 234.493 126.791 236.319 125.975C236.312 125.967 235.213 104.641 234.303 101.246ZM205.35 86.3717V86.4146L204.882 86.4361L205.35 86.3717ZM203.742 86.5756C203.665 86.5912 203.593 86.6228 203.532 86.6679C203.33 86.929 203.203 87.2324 203.164 87.55L202.432 87.3998C202.432 87.3998 201.919 87.2989 201.181 87.1851L200.831 86.8632C201.792 86.7902 202.791 86.6829 203.742 86.5756Z" fill="url(#paint1_linear_28_1449)"/>
<path d="M227.938 159.584L227.659 162.626L228.594 162.454L228.453 159.155L227.938 159.584Z" fill="#1D2366"/>
<path d="M206.602 145.144C205.475 148.084 205.793 152.053 206.046 153.98C206.14 154.693 206.227 155.126 206.227 155.126C206.227 155.126 204.542 158.642 204.401 158.775C204.261 158.908 199.442 161.602 199.442 161.602L196.074 163.403C196.074 163.403 192.656 162.031 194.295 161.559C194.629 161.436 194.931 161.248 195.178 161.007C196.819 159.58 198.879 156.032 198.879 156.032C198.879 156.032 199.02 154.231 199.535 153.375C200.051 152.519 199.864 143.519 199.864 143.519L199.903 128.849V126.937L206.314 126.98C206.354 127.629 206.447 128.275 206.59 128.911C206.82 130.011 207.118 131.097 207.483 132.165C208.613 135.511 208.144 141.115 206.602 145.144Z" fill="#FFB0B1"/>
<path opacity="0.1" d="M206.227 155.126C206.227 155.126 204.542 158.642 204.401 158.775C204.261 158.908 199.442 161.602 199.442 161.602L196.074 163.403C196.074 163.403 192.656 162.031 194.295 161.559C194.629 161.436 194.931 161.248 195.178 161.007L195.324 161.945L196.446 161.902L206.056 153.985C206.14 154.693 206.227 155.126 206.227 155.126Z" fill="black"/>
<path d="M206.11 154.184L196.446 162.156L195.323 162.199L195.089 160.696C195.089 160.696 193.125 163.01 188.761 162.881C188.761 162.881 186.14 164.467 190.024 164.553C193.908 164.639 198.867 164.424 198.867 164.424C198.867 164.424 202.331 159.488 205.231 160.132V163.86H206.121V160.097C206.535 159.842 206.889 159.513 207.16 159.129C207.432 158.745 207.616 158.316 207.701 157.865C207.778 157.401 207.724 156.927 207.543 156.488C207.361 156.049 207.06 155.66 206.667 155.358C206.492 155.208 206.352 155.026 206.256 154.824C206.16 154.622 206.11 154.404 206.11 154.184Z" fill="#1D2366"/>
<path d="M228.828 149.728C228.205 151.767 228.545 152.916 228.971 153.532V153.545C229.518 154.305 229.899 155.156 230.091 156.049L230.129 156.243L225.732 162.113L223.346 162.971C223.346 162.971 219.509 161.771 220.21 161.428C220.386 161.344 220.66 160.898 220.974 160.282C221.912 158.425 223.205 155 223.205 155V154.972C223.341 153.557 223.557 152.147 223.796 150.744C224.225 148.217 223.437 142.017 223.437 142.017C223.437 142.017 223.156 134.477 222.547 132.762C222.272 131.89 222.089 130.996 222.001 130.092C221.874 129.019 221.846 128.134 221.846 128.134C221.846 128.134 224.373 124.915 229.004 128.392C229.374 128.669 229.7 128.993 229.972 129.354C233.171 133.522 230.595 142.704 230.595 142.704C230.595 142.704 229.951 146.043 228.828 149.728Z" fill="#FFB0B1"/>
<path opacity="0.1" d="M230.136 156.243L225.739 162.113L223.353 162.971C223.353 162.971 219.516 161.771 220.217 161.428C220.393 161.344 220.667 160.898 220.981 160.282C222.605 160.269 223.447 161.686 223.447 161.686L225.505 161.385C225.505 161.385 228.219 156.5 228.828 156.202C229.438 155.903 228.922 153.972 228.922 153.972V153.48C228.938 153.497 228.952 153.517 228.971 153.534V153.547C229.518 154.307 229.899 155.158 230.092 156.052L230.136 156.243Z" fill="black"/>
<path d="M223.588 161.812C223.588 161.812 222.416 159.842 220.17 160.57C220.17 160.57 218.907 162.93 217.644 163.312C216.38 163.695 216.802 164.982 219.657 164.512C222.512 164.042 226.815 163.654 226.815 163.654L227.002 161.252L229.904 157.867C229.904 157.867 231.634 156.431 229.06 153.605V154.096C229.06 154.096 229.576 156.028 228.967 156.326C228.357 156.625 225.652 161.512 225.652 161.512L223.588 161.812Z" fill="#1D2366"/>
<path opacity="0.1" d="M206.321 126.976C206.361 127.625 206.454 128.27 206.597 128.907C203.958 128.553 201.509 128.729 199.903 128.845V126.933L206.321 126.976Z" fill="black"/>
<path opacity="0.1" d="M230.232 129.888C230.232 129.888 226.482 130.055 222.01 130.09C221.884 129.017 221.855 128.132 221.855 128.132C221.855 128.132 224.382 124.913 229.013 128.39C229.384 128.667 229.71 128.991 229.981 129.352C230.054 129.534 230.138 129.714 230.232 129.888Z" fill="black"/>
<path d="M230.232 129.502C230.232 129.502 213.807 130.229 208.8 128.944C203.794 127.658 198.832 128.772 198.085 128.474C197.337 128.175 197.944 123.503 198.6 122.346C199.256 121.189 202.857 109.49 202.857 109.49L206.321 92.9501L209.97 92.0294L210.228 91.9628L216.587 90.3574L221.246 89.1791C221.246 89.1791 230.511 122.303 229.717 124.746C229.428 125.681 229.381 126.665 229.581 127.619C229.702 128.271 229.921 128.905 230.232 129.502Z" fill="#1D2366"/>
<path d="M194.245 81.639C194.245 81.639 190.964 84.8585 193.449 86.6528C195.933 88.4471 197.567 86.8245 197.567 86.8245L194.245 81.639Z" fill="#C7DAF5"/>
<path opacity="0.1" d="M194.245 81.639C194.245 81.639 190.964 84.8585 193.449 86.6528C195.933 88.4471 197.567 86.8245 197.567 86.8245L194.245 81.639Z" fill="black"/>
<path d="M220.756 60.4722C220.756 60.4722 220.372 60.807 219.793 61.3006C218.968 62.0068 217.747 63.0391 216.664 63.9041C215.164 65.0996 213.926 65.9774 214.369 65.2284C214.812 64.4793 214.728 63.1744 214.507 61.9531C214.491 61.8716 214.477 61.79 214.461 61.7106C214.278 60.8137 214.036 59.9278 213.736 59.0577C213.736 59.0577 216.16 56.1903 217.5 55.0592C218 54.6299 218.349 54.4539 218.37 54.7523C218.393 55.1536 218.722 56.04 219.129 56.9801C219.141 57.0102 219.153 57.0381 219.167 57.0681C219.439 57.712 219.746 58.3731 220.015 58.944C220.428 59.8197 220.756 60.4722 220.756 60.4722Z" fill="#FFB0B1"/>
<path opacity="0.1" d="M219.167 57.0682C218.939 58.1899 218.387 59.235 217.567 60.0944C216.747 60.9537 215.691 61.5956 214.507 61.9532C214.321 60.9734 214.063 60.0061 213.736 59.0578C213.736 59.0578 218.3 53.6598 218.37 54.7523C218.386 55.1665 218.743 56.0851 219.167 57.0682Z" fill="black"/>
<path opacity="0.1" d="M214.053 63.3955L214.643 62.6335C214.643 62.6335 215.035 64.8185 216.474 63.8548C217.913 62.8911 217.983 71.1072 217.983 71.1072L216.439 92.2547L205.278 91.643L205.594 81.4245L206.857 76.2733L209.982 68.7849L211.84 66.3102L214.053 63.3955Z" fill="black"/>
<path d="M217.983 71.238L216.577 90.3595L216.429 92.3856L210.207 92.0443L209.972 92.0314L205.285 91.7739L205.601 81.5532L206.864 76.402L209.989 68.9136L211.847 66.4389L214.06 63.5134L214.651 62.7537C214.651 62.7537 215.042 64.9386 216.481 63.9749L216.512 63.9556C217.918 63.14 217.983 71.238 217.983 71.238Z" fill="#1D2366"/>
<path d="M207.021 74.6121C207.021 74.6121 206.461 75.6852 205.336 75.5114C204.211 75.3375 204.214 79.3747 204.214 79.3747C204.214 79.3747 203.466 80.0186 202.95 79.4606C202.435 78.9025 201.075 80.7891 201.075 80.7891L192.558 81.1325C192.558 81.1325 196.348 82.7187 195.605 87.5178C195.605 87.5178 208.472 86.7881 208.894 85.6741C209.316 84.5602 207.021 74.6121 207.021 74.6121Z" fill="white"/>
<path opacity="0.03" d="M207.021 74.6121C207.021 74.6121 206.461 75.6852 205.336 75.5114C204.211 75.3375 204.214 79.3747 204.214 79.3747C204.214 79.3747 203.466 80.0186 202.95 79.4606C202.435 78.9025 201.075 80.7891 201.075 80.7891L192.558 81.1325C192.558 81.1325 196.348 82.7187 195.605 87.5178C195.605 87.5178 208.472 86.7881 208.894 85.6741C209.316 84.5602 207.021 74.6121 207.021 74.6121Z" fill="black"/>
<path d="M182.269 83.6544L184.514 85.4101L202.997 88.9665L200.705 86.8245L182.269 83.6544Z" fill="white"/>
<path d="M214.088 64.0715C213.781 64.5008 212.902 66.6986 212.168 68.6174C211.557 70.2164 211.046 71.6222 211.046 71.6222C211.046 71.6222 209.853 78.7351 209.243 80.0207C208.634 81.3063 208.965 86.3201 208.965 86.3201L206.693 98.7022C206.693 98.7022 205.664 105.087 204.075 108.901C202.507 112.655 200.761 114.415 200.707 114.471C201.41 113.6 205.243 96.4421 205.243 96.4421L206.508 74.803C206.508 74.803 206.693 72.7469 206.881 70.989C207.068 69.2312 210.865 66.8316 210.865 66.8316L214.526 62.0647C214.894 62.5154 214.648 63.301 214.088 64.0715Z" fill="white"/>
<path d="M204.542 91.8813C204.542 91.8813 199.151 91.6666 196.54 88.7949C193.929 85.9231 202.575 87.6488 202.575 87.6488L204.823 88.1209L204.542 91.8813Z" fill="#FFB0B1"/>
<path opacity="0.1" d="M229.717 124.748C229.428 125.683 229.381 126.667 229.581 127.622C223.7 128.004 217.409 126.548 217.409 126.548C216.237 127.536 213.151 128.991 213.151 128.991L211.468 109.889C210.392 107.313 209.97 93.8194 209.97 93.8194C209.97 93.8194 210.066 93.1133 210.204 92.0551C210.204 92.0294 210.204 92.0015 210.216 91.9757C210.636 89.0203 211.468 83.4721 211.875 82.723C212.438 81.6928 210.146 78.9519 210.146 78.9519L211.189 70.8067L211.315 69.8237C213.514 68.9244 215.199 66.0526 215.199 66.0526L216.493 63.9772C217.899 63.1508 217.972 71.2489 217.972 71.2489L216.565 90.3703L221.225 89.192C221.225 89.192 230.511 122.305 229.717 124.748Z" fill="black"/>
<path d="M235.752 126.068C229.342 128.982 217.69 126.282 217.69 126.282C216.519 127.27 213.432 128.725 213.432 128.725L211.747 109.623C210.673 107.047 210.251 93.5532 210.251 93.5532C210.251 93.5532 211.606 83.4849 212.168 82.4568C212.333 82.1563 212.253 81.7099 212.058 81.2291C211.102 78.9408 210.75 76.4777 211.032 74.0411L211.482 70.5405L211.606 69.5597C213.807 68.6582 215.492 65.7865 215.492 65.7865L216.664 63.9063L218.82 60.4421L219.842 58.8024L220.016 58.9462L221.34 60.0451C221.34 60.0451 221.902 60.4743 222.746 61.1182C224.581 62.5348 227.752 65.0288 229.388 66.5548C230.827 67.8984 231.282 73.1247 231.413 77.0589C231.5 79.6494 231.449 81.6798 231.449 81.6798C229.998 83.8669 233.792 101.426 233.792 101.426C234.676 104.819 235.752 126.068 235.752 126.068Z" fill="white"/>
<path opacity="0.03" d="M223.447 65.7435C223.447 65.7435 219.047 73.4123 219.558 76.327C220.069 79.2416 221.523 82.5405 220.822 83.311C220.581 83.603 220.27 83.8399 219.912 84.0034C219.555 84.1668 219.161 84.2524 218.761 84.2533C218.058 84.2962 216.183 85.496 216.183 85.6248C216.183 85.7535 214.451 85.7535 212.902 86.3545C211.353 86.9555 209.065 87.2967 209.065 87.2967C209.065 87.2967 204.612 87.168 204.197 87.5543C203.782 87.9406 203.356 90.2522 204.244 92.0959C205.132 93.9396 206.119 95.3153 206.864 95.5665C207.61 95.8176 212.339 94.3667 216.176 94.0233C220.013 93.6799 224.178 90.8961 224.178 90.8961C224.178 90.8961 228.765 89.3937 229.569 86.8675C230.373 84.3413 228.587 70.4568 228.587 70.4568C228.587 70.4568 227.237 63.9857 223.447 65.7435Z" fill="black"/>
<path opacity="0.03" d="M222.884 65.0996C222.884 65.0996 218.485 72.7705 219.001 75.6831C219.516 78.5956 220.965 81.8966 220.262 82.6693C220.022 82.9615 219.711 83.1988 219.354 83.3623C218.997 83.5258 218.603 83.6111 218.204 83.6115C217.501 83.6544 215.626 84.8542 215.626 84.983C215.626 85.1118 213.893 85.1118 212.344 85.7106C210.795 86.3094 208.507 86.6528 208.507 86.6528C208.507 86.6528 204.054 86.5241 203.642 86.9104C203.229 87.2967 202.798 89.6104 203.689 91.452C204.579 93.2935 205.564 94.6714 206.309 94.9226C207.054 95.1737 211.784 93.7228 215.621 93.3815C219.458 93.0402 223.623 90.2522 223.623 90.2522C223.623 90.2522 228.207 88.7498 229.002 86.2257C229.796 83.7017 228.02 69.8129 228.02 69.8129C228.02 69.8129 226.674 63.3439 222.884 65.0996Z" fill="black"/>
<path d="M223.309 65.3571C223.309 65.3571 218.909 73.028 219.425 75.9406C219.94 78.8531 221.389 82.1541 220.688 82.9246C220.448 83.2176 220.137 83.4554 219.78 83.6193C219.422 83.7832 219.028 83.8687 218.628 83.869C217.925 83.9119 216.05 85.1117 216.05 85.2384C216.05 85.365 214.32 85.3671 212.768 85.9681C211.217 86.5691 208.932 86.9103 208.932 86.9103C208.932 86.9103 204.478 86.7816 204.064 87.1679C203.649 87.5542 203.222 89.8679 204.11 91.7095C204.999 93.551 205.985 94.9289 206.731 95.18C207.476 95.4312 212.206 93.9803 216.043 93.6369C219.88 93.2934 224.044 90.5097 224.044 90.5097C224.044 90.5097 228.631 89.0073 229.435 86.4811C230.239 83.9549 228.465 70.0704 228.465 70.0704C228.465 70.0704 227.096 63.61 223.309 65.3571Z" fill="white"/>
<path opacity="0.1" d="M223.212 85.9317C223.212 85.9317 219.697 85.2878 220.92 86.3609C222.144 87.4341 222.137 88.3742 223.634 88.3313C225.132 88.2883 223.212 85.9317 223.212 85.9317Z" fill="black"/>
<path opacity="0.1" d="M229.154 109.022C229.154 109.022 227.565 110.007 230.605 112.278C233.645 114.548 229.154 109.022 229.154 109.022Z" fill="black"/>
<path opacity="0.1" d="M226.121 117.12C226.121 117.248 225.558 121.841 227.663 122.99C229.768 124.138 226.121 117.12 226.121 117.12Z" fill="black"/>
<path d="M192.703 81.1218C191.006 81.1755 187.341 81.6498 189.241 84.8972C190.922 87.7711 193.746 85.8501 195.335 84.3928C194.948 83.0341 194.006 81.8633 192.703 81.1218Z" fill="#FFB0B1"/>
<path opacity="0.1" d="M222.746 61.2491C220.946 62.3759 219.437 63.3267 219.141 63.5242C218.335 64.0715 216.797 67.2845 215.806 68.9243C215.016 70.2443 212.45 70.5834 211.482 70.6671L211.606 69.6862C213.807 68.7848 215.492 65.913 215.492 65.913L219.842 58.929L221.34 60.176C221.34 60.176 221.902 60.6052 222.746 61.2491Z" fill="black"/>
<path d="M222.746 61.1203C220.946 62.2471 219.437 63.198 219.141 63.3976C218.335 63.9427 216.797 67.1557 215.806 68.7955C215.016 70.1155 212.45 70.4546 211.482 70.5383L211.606 69.5575C213.807 68.656 215.492 65.7843 215.492 65.7843L219.842 58.8002L221.34 60.0429C221.34 60.0429 221.902 60.4679 222.746 61.1203Z" fill="#DCE7FF"/>
<path d="M219.282 55.6516C219.283 56.94 218.856 58.1983 218.058 59.2595C217.116 60.5143 215.714 61.4183 214.106 61.8074C212.499 62.1964 210.792 62.0449 209.296 61.3801C207.799 60.7154 206.613 59.5816 205.952 58.1844C205.29 56.7871 205.198 55.2191 205.691 53.7648C206.184 52.3105 207.23 51.0663 208.64 50.2579C210.049 49.4494 211.728 49.1304 213.372 49.3587C215.016 49.5869 216.517 50.3473 217.601 51.5019C218.685 52.6565 219.282 54.1288 219.282 55.6516Z" fill="#FFB0B1"/>
<path opacity="0.1" d="M231.413 77.061C230.462 76.5249 229.686 75.7623 229.17 74.8546C228.779 74.1463 228.519 73.3286 227.851 72.8264C227.248 72.3756 226.445 72.2662 225.695 72.0644C223.229 71.3969 221.162 69.3365 221.084 66.9841C221.047 65.8766 221.424 64.7713 221.253 63.6745C221.156 63.0538 220.886 62.4663 220.47 61.9682C220.264 61.73 220.037 61.5068 219.793 61.3007C219.465 61.0174 219.12 60.7427 218.82 60.4422C218.631 60.2561 218.466 60.0509 218.328 59.8305C218.216 59.6501 218.126 59.4595 218.058 59.2617C217.59 57.9482 218.016 56.3899 217.501 55.0614L217.472 54.9884C217.278 54.5162 216.882 54.044 216.331 54.0075C215.78 53.9711 215.309 54.3896 214.784 54.5763C213.685 54.9669 212.499 54.3016 211.582 53.6234C210.666 52.9451 209.632 52.1703 208.468 52.3205C207.696 52.4214 207.087 52.9022 206.377 53.1512C206.217 53.208 206.051 53.2518 205.882 53.2821C206.483 51.9096 207.588 50.7715 209.005 50.0635C210.423 49.3555 212.066 49.1218 213.651 49.4024C215.237 49.683 216.666 50.4605 217.694 51.6013C218.721 52.7421 219.283 54.175 219.282 55.6538C219.283 56.1003 219.232 56.5457 219.13 56.9823C219.141 57.0124 219.153 57.0403 219.167 57.0703C219.439 57.7142 219.746 58.3753 220.015 58.9462L221.34 60.0451C221.34 60.0451 221.902 60.4744 222.746 61.1183C224.581 62.5348 227.752 65.0288 229.388 66.5549C230.827 67.9027 231.277 73.1268 231.413 77.061Z" fill="black"/>
<path d="M206.295 49.2298C206.63 48.6052 206.796 47.9055 207.197 47.3132C207.786 46.4546 208.812 45.9052 209.867 45.5725C212.621 44.7033 218.44 43.4412 220.18 45.5725C220.522 46.0018 220.805 46.4782 221.279 46.7744C221.64 46.9998 222.076 47.0964 222.472 47.2659C223.58 47.7424 224.288 48.7812 224.666 49.8415C225.043 50.9018 225.155 52.0393 225.432 53.1318C225.786 54.5333 226.407 55.8619 227.026 57.1819C227.755 58.7401 228.528 60.3563 229.934 61.4573C231.854 62.9597 232.278 65.0867 234.06 66.7351C236.169 68.6925 236.101 71.9227 235.013 74.4875C234.871 74.8245 234.709 75.1765 234.765 75.5349C234.821 75.8934 235.112 76.2196 235.386 76.5051L236.539 77.6963C233.811 78.2994 230.724 76.9944 229.454 74.7043C229.063 73.996 228.802 73.1804 228.132 72.6761C227.532 72.2253 226.726 72.118 225.978 71.9163C223.512 71.2466 221.445 69.184 221.368 66.8317C221.33 65.7263 221.708 64.621 221.537 63.5264C221.441 62.9015 221.171 62.3099 220.751 61.8093C220.107 61.0388 219.134 60.5215 218.609 59.663C217.721 58.2271 218.396 56.362 217.756 54.8209C217.559 54.3488 217.165 53.8766 216.615 53.8401C216.064 53.8036 215.593 54.2221 215.065 54.4089C213.968 54.7995 212.782 54.1363 211.866 53.4559C210.95 52.7755 209.916 52.0028 208.749 52.1552C207.978 52.254 207.371 52.7347 206.66 52.9859C206.135 53.1704 205.071 53.3357 204.612 52.93C203.642 52.1123 205.889 49.9939 206.295 49.2298Z" fill="#591D4B"/>
<path opacity="0.1" d="M230.106 73.9961C229.712 73.2878 229.454 72.4722 228.784 71.97C228.184 71.5192 227.377 71.4098 226.627 71.208C224.164 70.5405 222.097 68.4779 222.017 66.1256C221.98 65.0202 222.357 63.9127 222.188 62.8181C222.09 62.1972 221.82 61.6098 221.403 61.1118C220.756 60.3413 219.783 59.824 219.261 58.9655C218.372 57.5318 219.047 55.6666 218.405 54.1234C218.211 53.6534 217.815 53.1812 217.266 53.1426C216.718 53.1039 216.242 53.5268 215.717 53.7135C214.62 54.1041 213.432 53.4388 212.518 52.7605C211.604 52.0823 210.565 51.3075 209.4 51.4577C208.629 51.5586 208.02 52.0394 207.312 52.2883C206.787 52.4729 205.721 52.6403 205.261 52.2347C204.296 51.3762 206.543 49.262 206.946 48.5022C207.282 47.8755 207.448 47.178 207.851 46.5856C207.872 46.5534 207.896 46.5212 207.919 46.489C207.618 46.7178 207.357 46.9887 207.148 47.2917C206.747 47.8841 206.581 48.5795 206.246 49.2084C205.84 49.9682 203.592 52.0887 204.56 52.9408C205.029 53.3486 206.084 53.1812 206.609 52.9966C207.312 52.7455 207.926 52.2647 208.697 52.166C209.869 52.0136 210.9 52.7884 211.815 53.4667C212.729 54.1449 213.924 54.8102 215.016 54.4196C215.541 54.2329 216.001 53.8122 216.563 53.8508C217.126 53.8895 217.501 54.3595 217.704 54.8317C218.344 56.3728 217.669 58.2379 218.558 59.6738C219.083 60.5173 220.055 61.0453 220.7 61.8201C221.119 62.3206 221.39 62.9122 221.485 63.5371C221.656 64.6317 221.279 65.7371 221.316 66.8424C221.394 69.2034 223.461 71.2574 225.927 71.927C226.67 72.1288 227.48 72.2361 228.081 72.6868C228.753 73.1912 229.018 74.0068 229.402 74.7151C230.673 77.0052 233.76 78.3102 236.488 77.707L235.944 77.1447C233.579 77.1769 231.186 75.9449 230.106 73.9961Z" fill="black"/>
<path opacity="0.1" d="M213.947 64.2003C213.64 64.6295 212.761 66.8273 212.028 68.7461C211.341 68.5015 210.718 66.9411 210.718 66.9411L214.379 62.172C214.754 62.6442 214.507 63.4276 213.947 64.2003Z" fill="black"/>
<path d="M214.088 64.0715C213.781 64.5008 212.902 66.6986 212.168 68.6174C211.482 68.3749 210.858 66.8124 210.858 66.8124L214.519 62.0454C214.894 62.5155 214.648 63.301 214.088 64.0715Z" fill="#DCE7FF"/>
<path d="M192.801 85.9982L190.772 80.1367C190.748 80.068 190.739 79.9957 190.745 79.9239C190.752 79.8521 190.774 79.7822 190.81 79.7182C190.846 79.6542 190.896 79.5973 190.956 79.5509C191.016 79.5045 191.086 79.4694 191.161 79.4477C191.312 79.4045 191.475 79.4177 191.616 79.4844C191.756 79.5512 191.862 79.666 191.911 79.804L193.941 85.6591L193.739 86.8846L192.801 85.9982Z" fill="#BE8B87"/>
<path opacity="0.1" d="M190.964 79.6215C191.115 79.5777 191.28 79.5905 191.421 79.6573C191.562 79.7241 191.668 79.8393 191.716 79.9778L193.746 85.8329L193.594 86.7515L193.741 86.8932L193.943 85.6677L191.902 79.8125C191.853 79.6746 191.747 79.5597 191.607 79.493C191.466 79.4263 191.303 79.4131 191.152 79.4562C191.024 79.494 190.915 79.5695 190.84 79.6709C190.88 79.6513 190.921 79.6348 190.964 79.6215Z" fill="white"/>
<path d="M192.802 85.9983L193.941 85.6677L193.774 86.6722L193.739 86.8933L193.406 86.5756L192.802 85.9983Z" fill="#EFC8C4"/>
<path d="M193.406 86.5755C193.426 86.5526 193.451 86.5336 193.479 86.5197C193.495 86.5102 193.515 86.5051 193.534 86.5051C193.553 86.5051 193.573 86.5102 193.589 86.5197C193.605 86.5374 193.618 86.5569 193.629 86.5777C193.644 86.6014 193.666 86.6216 193.691 86.6368C193.716 86.652 193.744 86.6619 193.774 86.6657L193.739 86.8803L193.406 86.5755Z" fill="#727A9C"/>
<path d="M190.76 82.2185C190.76 82.2185 194.831 82.1971 193.873 83.7832C192.914 85.3693 191.416 85.5603 191.416 85.5603L190.76 82.2185Z" fill="#FFB0B1"/>
<path d="M165.44 11.0363H165.264C158.27 11.0363 152.085 14.4253 148.527 19.4262C144.969 14.4253 138.784 11.0363 131.79 11.0363H131.614C126.365 11.0821 121.348 13.0229 117.654 16.4369C113.959 19.851 111.884 24.4625 111.882 29.2691C111.882 35.238 114.736 43.7073 120.303 50.6764C130.909 63.9556 148.527 75.5735 148.527 75.5735C148.527 75.5735 166.145 63.9577 176.749 50.6764C182.318 43.7073 185.17 35.238 185.17 29.2691C185.167 24.4628 183.093 19.8517 179.399 16.4377C175.705 13.0237 170.688 11.0826 165.44 11.0363ZM162.925 51.698C162.128 51.6953 161.351 51.472 160.696 51.0575C160.041 50.6431 159.537 50.0568 159.252 49.3757H155.071C154.796 49.3742 154.528 49.2939 154.305 49.1461C154.081 48.9984 153.914 48.7905 153.826 48.5515L152.542 45.008L148.478 58.0125C148.399 58.2628 148.233 58.4829 148.006 58.6396C147.778 58.7964 147.501 58.8813 147.217 58.8817H147.135C146.838 58.8686 146.555 58.7625 146.333 58.5813C146.111 58.4 145.964 58.1545 145.916 57.8858L141.728 34.8173L138.667 48.4678C138.596 48.7272 138.433 48.9575 138.204 49.122C137.974 49.2866 137.69 49.3759 137.399 49.3757H131.509C131.332 49.3826 131.156 49.3566 130.99 49.2995C130.825 49.2423 130.674 49.1551 130.547 49.0431C130.419 48.9312 130.317 48.7967 130.248 48.6479C130.179 48.499 130.143 48.3388 130.143 48.177C130.143 48.0152 130.179 47.855 130.248 47.7062C130.317 47.5573 130.419 47.4229 130.547 47.3109C130.674 47.1989 130.825 47.1117 130.99 47.0546C131.156 46.9974 131.332 46.9715 131.509 46.9783H136.367L140.703 28.6252C140.775 28.3539 140.946 28.1136 141.19 27.9455C141.433 27.7773 141.732 27.6918 142.037 27.7035C142.341 27.7151 142.632 27.8233 142.859 28.0094C143.086 28.1955 143.235 28.4481 143.282 28.724L147.559 52.2561L151.201 40.6209C151.277 40.3759 151.437 40.1599 151.658 40.0052C151.879 39.8504 152.149 39.7653 152.427 39.7624H152.453C152.728 39.7625 152.997 39.8422 153.22 39.9902C153.443 40.1382 153.609 40.3469 153.695 40.5866L156.018 46.9847H159.201C159.427 46.3552 159.839 45.7951 160.391 45.3663C160.943 44.9375 161.613 44.6567 162.329 44.5549C163.044 44.4531 163.776 44.5342 164.444 44.7893C165.112 45.0444 165.69 45.4636 166.114 46.0006C166.539 46.5375 166.793 47.1714 166.849 47.8323C166.904 48.4931 166.76 49.1553 166.43 49.7455C166.101 50.3358 165.6 50.8314 164.983 51.1774C164.366 51.5235 163.656 51.7066 162.932 51.7066L162.925 51.698Z" fill="#AA9FA3"/>
</g>
<defs>
<linearGradient id="paint0_linear_28_1449" x1="83.517" y1="166.311" x2="83.517" y2="34.24" gradientUnits="userSpaceOnUse">
<stop stop-color="#808080" stop-opacity="0.25"/>
<stop offset="0.54" stop-color="#808080" stop-opacity="0.12"/>
<stop offset="1" stop-color="#808080" stop-opacity="0.1"/>
</linearGradient>
<linearGradient id="paint1_linear_28_1449" x1="209.403" y1="164.641" x2="209.403" y2="44.0186" gradientUnits="userSpaceOnUse">
<stop stop-color="#808080" stop-opacity="0.25"/>
<stop offset="0.54" stop-color="#808080" stop-opacity="0.12"/>
<stop offset="1" stop-color="#808080" stop-opacity="0.1"/>
</linearGradient>
<clipPath id="clip0_28_1449">
<rect width="259" height="168" fill="white"/>
</clipPath>
</defs>
</svg>
