<svg width="49" height="39" viewBox="0 0 49 39" fill="none" xmlns="http://www.w3.org/2000/svg">
<path fill-rule="evenodd" clip-rule="evenodd" d="M36.6006 0C39.886 0 43.0465 1.14833 45.3715 3.20883C47.699 5.265 49 8.03833 49 10.9417V28.0583C49 34.1033 43.4385 39 36.6006 39H12.397C5.55905 39 0 34.1033 0 28.0583V10.9417C0 4.89667 5.53455 0 12.397 0H36.6006ZM40.4985 14.1701L40.6945 13.9967C41.2801 13.3684 41.28 12.4584 40.6675 11.8301C40.327 11.5072 39.8591 11.3101 39.3715 11.2667C38.857 11.2429 38.367 11.3967 37.9971 11.7001L26.95 19.5001C25.529 20.5422 23.4931 20.5422 22.05 19.5001L11.025 11.7001C10.2631 11.2017 9.20955 11.2667 8.575 11.8517C7.9135 12.4367 7.84 13.3684 8.40105 14.0184L8.722 14.3001L19.8695 21.9917C21.2415 22.9451 22.9051 23.4651 24.647 23.4651C26.3841 23.4651 28.077 22.9451 29.4466 21.9917L40.4985 14.1701Z" fill="#18191F"/>
</svg>
