<svg width="307" height="180" viewBox="0 0 307 180" fill="none" xmlns="http://www.w3.org/2000/svg">
<g opacity="0.3" clip-path="url(#clip0_28_1658)" filter="url(#filter0_d_28_1658)">
<path d="M291.234 150.437H4V152.707H291.234V150.437Z" fill="#3F3D56"/>
<path d="M291.234 169.73H4V172H291.234V169.73Z" fill="#3F3D56"/>
<path d="M266.456 152.525C266.285 152.324 262.237 147.481 260.834 137.423C259.547 128.196 260.374 112.642 271.63 90.9461C292.953 49.8447 266.716 16.6817 266.448 16.3514L267.742 15.8132C267.81 15.897 274.58 24.3522 278.58 37.8159C283.864 55.6659 281.94 74.2256 273.032 91.3199C251.746 132.351 267.571 151.775 267.733 151.967L266.456 152.525Z" fill="#3F3D56"/>
<path d="M258.119 13.938C263.489 13.938 267.843 10.8179 267.843 6.969C267.843 3.12013 263.489 0 258.119 0C252.748 0 248.394 3.12013 248.394 6.969C248.394 10.8179 252.748 13.938 258.119 13.938Z" fill="#3F3D56"/>
<path d="M288.788 39.6697C294.158 39.6697 298.512 36.5496 298.512 32.7007C298.512 28.8518 294.158 25.7317 288.788 25.7317C283.417 25.7317 279.063 28.8518 279.063 32.7007C279.063 36.5496 283.417 39.6697 288.788 39.6697Z" fill="#3F3D56"/>
<path d="M267.843 56.8241C273.214 56.8241 277.567 53.704 277.567 49.8551C277.567 46.0062 273.214 42.8861 267.843 42.8861C262.472 42.8861 258.119 46.0062 258.119 49.8551C258.119 53.704 262.472 56.8241 267.843 56.8241Z" fill="#AA9FA3"/>
<path d="M293.276 71.2982C298.646 71.2982 303 68.1781 303 64.3292C303 60.4804 298.646 57.3602 293.276 57.3602C287.905 57.3602 283.551 60.4804 283.551 64.3292C283.551 68.1781 287.905 71.2982 293.276 71.2982Z" fill="#AA9FA3"/>
<path d="M260.363 93.8134C265.733 93.8134 270.087 90.6932 270.087 86.8444C270.087 82.9955 265.733 79.8754 260.363 79.8754C254.992 79.8754 250.638 82.9955 250.638 86.8444C250.638 90.6932 254.992 93.8134 260.363 93.8134Z" fill="#3F3D56"/>
<path d="M272.331 152.782C272.331 152.782 262.607 135.627 291.78 122.761L272.331 152.782Z" fill="#3F3D56"/>
<path d="M260.372 152.471C260.372 152.471 255.946 134.228 221.692 134.385L260.372 152.471Z" fill="#3F3D56"/>
<path d="M51.7558 107.437C59.6779 107.437 66.1001 102.835 66.1001 97.1574C66.1001 91.48 59.6779 86.8776 51.7558 86.8776C43.8337 86.8776 37.4116 91.48 37.4116 97.1574C37.4116 102.835 43.8337 107.437 51.7558 107.437Z" fill="#A0616A"/>
<path d="M54.3546 84.3712C51.6113 83.8885 48.6615 83.8079 46.0039 84.4939C43.2669 85.2004 41.0139 86.6774 39.3567 88.391C37.6996 90.1046 36.5867 92.0548 35.5897 94.0134C35.0082 95.0814 34.5582 96.1838 34.2447 97.308C33.8872 98.8065 33.956 100.341 34.447 101.82C34.938 103.299 35.8411 104.692 37.1019 105.914C36.6819 105.121 37.7395 104.255 38.8994 104.083C40.0594 103.911 41.241 104.202 42.385 104.422C44.4007 104.81 46.4843 104.986 48.5705 104.944C49.3697 104.927 50.2075 104.87 50.872 104.551C52.9543 103.553 51.8521 100.975 53.5848 99.6785C54.2031 99.2158 55.0855 98.9995 55.8824 98.7093C58.7514 97.6646 60.6419 95.5563 61.5345 93.3405C62.0939 91.9517 63.4823 87.9625 62.299 86.6716C61.2296 85.505 56.1708 84.6908 54.3546 84.3712Z" fill="#2F2E41"/>
<path d="M90.7883 85.8223C89.7287 85.5556 88.6061 85.4414 87.4848 85.4862C86.3635 85.531 85.2655 85.7339 84.2538 86.0834C80.5122 87.3409 73.8953 90.3877 74.1467 96.1546C74.4966 104.178 78.345 109.443 78.345 109.443L77.6453 125.741L74.1467 155.327C74.1467 155.327 57.0036 165.356 63.651 167.863C70.2983 170.37 81.4938 155.828 81.4938 155.828L90.2402 139.029L93.389 122.732C93.389 122.732 98.6368 105.682 93.389 98.1604C93.389 98.1604 99.4515 88.0885 90.7883 85.8223Z" fill="#A0616A"/>
<path d="M132.573 111.7C132.573 111.7 126.625 129.752 147.617 134.767C168.609 139.781 196.247 148.306 196.247 148.306L199.746 152.569L207.793 144.796L206.393 138.778L192.749 136.02C192.749 136.02 167.209 121.98 156.014 120.977L157.413 111.7H132.573Z" fill="#A0616A"/>
<path d="M188.483 97.2118L195.898 105.933C195.898 105.933 220.388 115.962 226.685 122.732C232.983 129.501 248.027 136.773 248.027 136.773L241.379 148.055C241.379 148.055 222.487 132.259 214.44 130.755C206.393 129.251 170.708 108.691 170.708 108.691L188.483 97.2118Z" fill="#A0616A"/>
<path d="M122.451 66.6484C119.72 66.9559 116.987 67.2637 114.289 67.6949C108.02 68.6968 101.992 70.3567 96.108 72.2017C87.8732 74.7839 79.8749 77.7373 72.1611 81.0442C70.0809 81.8956 68.096 82.8615 66.2245 83.9331C64.979 84.6765 63.8066 85.5286 63.1385 86.5869C62.7144 87.3258 62.4399 88.1044 62.3235 88.8989C61.7811 91.687 61.8063 94.564 62.8604 97.2758C63.9144 99.9877 66.0523 102.53 69.1992 104.215C70.032 104.675 70.9568 105.042 71.9426 105.305C73.2685 105.594 74.6415 105.759 76.0269 105.795C80.4412 106.047 85.0526 106.277 89.1374 105.052C91.7333 104.274 93.9309 102.957 96.3195 101.891C106.435 97.376 119.286 97.5683 130.347 94.3894C131.422 94.0803 132.517 93.7199 133.269 93.0884C133.839 92.5469 134.268 91.9365 134.536 91.2863C135.934 88.5126 137.332 85.7389 138.731 82.9653C139.617 81.2077 140.504 79.4491 141.247 77.658C142.025 75.7846 142.645 73.8796 143.265 71.9761C143.798 70.3381 144.347 68.6224 144.142 66.929C143.839 64.4312 143.034 64.3298 139.833 64.6913C134.039 65.3457 128.245 65.9981 122.451 66.6484Z" fill="#AA9FA3"/>
<path d="M80.2924 85.8223C79.2328 85.5556 78.1102 85.4414 76.9889 85.4862C75.8676 85.531 74.7696 85.7339 73.758 86.0834C70.0163 87.3409 63.3994 90.3877 63.6509 96.1546C64.0007 104.178 67.8492 109.443 67.8492 109.443L67.1495 125.741L63.6509 155.327C63.6509 155.327 46.5078 165.356 53.1551 167.863C59.8024 170.37 70.9979 155.828 70.9979 155.828L79.7444 139.029L82.8931 122.732C82.8931 122.732 88.141 105.682 82.8931 98.1604C82.8931 98.1604 88.9556 88.0885 80.2924 85.8223Z" fill="#A0616A"/>
<path d="M141.026 64.5736C141.026 64.5736 172.107 62.5568 170.708 76.3469C169.308 90.137 158.813 113.956 158.813 113.956L131.873 114.959C131.873 114.959 128.375 98.6618 133.273 93.1458L141.026 64.5736Z" fill="#2F2E41"/>
<path d="M162.661 69.0758C162.661 69.0758 170.358 72.586 174.556 79.6064C178.755 86.6268 191.349 100.417 191.349 100.417L170.708 110.948L155.314 99.6647L162.661 69.0758Z" fill="#2F2E41"/>
<path d="M199.746 147.303C199.746 147.303 193.099 149.058 197.647 152.569C200.441 154.747 202.796 157.194 204.644 159.84C204.644 159.84 203.245 166.359 209.192 166.108C215.14 165.857 217.589 157.082 216.189 154.073C214.79 151.064 213.041 136.773 213.041 136.773C213.041 136.773 200.796 137.525 201.145 138.778C201.495 140.032 203.245 146.3 199.746 147.303Z" fill="#2F2E41"/>
<path d="M241.379 142.289C241.379 142.289 235.082 144.545 236.831 146.551C238.58 148.557 244.178 154.324 244.178 154.324C244.178 154.324 242.079 161.845 248.027 162.598C253.974 163.35 257.473 153.571 256.423 151.566C255.374 149.56 255.374 141.787 255.374 141.787C255.374 141.787 255.724 134.015 252.225 134.015C248.726 134.015 242.779 135.017 242.779 135.017C242.779 135.017 244.178 142.038 241.379 142.289Z" fill="#2F2E41"/>
<path d="M47.7323 154.918H37.5864V167.608H47.7323V154.918Z" fill="#AA9FA3"/>
</g>
<defs>
<filter id="filter0_d_28_1658" x="0" y="0" width="307" height="180" filterUnits="userSpaceOnUse" color-interpolation-filters="sRGB">
<feFlood flood-opacity="0" result="BackgroundImageFix"/>
<feColorMatrix in="SourceAlpha" type="matrix" values="0 0 0 0 0 0 0 0 0 0 0 0 0 0 0 0 0 0 127 0" result="hardAlpha"/>
<feOffset dy="4"/>
<feGaussianBlur stdDeviation="2"/>
<feComposite in2="hardAlpha" operator="out"/>
<feColorMatrix type="matrix" values="0 0 0 0 0.517647 0 0 0 0 0.647059 0 0 0 0 0.615686 0 0 0 0.5 0"/>
<feBlend mode="normal" in2="BackgroundImageFix" result="effect1_dropShadow_28_1658"/>
<feBlend mode="normal" in="SourceGraphic" in2="effect1_dropShadow_28_1658" result="shape"/>
</filter>
<clipPath id="clip0_28_1658">
<rect width="299" height="172" fill="white" transform="translate(4)"/>
</clipPath>
</defs>
</svg>
